<?xml version="1.0" encoding="UTF-8" standalone="no"?>
<svg
   xmlns:dc="http://purl.org/dc/elements/1.1/"
   xmlns:cc="http://creativecommons.org/ns#"
   xmlns:rdf="http://www.w3.org/1999/02/22-rdf-syntax-ns#"
   xmlns:svg="http://www.w3.org/2000/svg"
   xmlns="http://www.w3.org/2000/svg"
   xmlns:xlink="http://www.w3.org/1999/xlink"
   xmlns:sodipodi="http://sodipodi.sourceforge.net/DTD/sodipodi-0.dtd"
   xmlns:inkscape="http://www.inkscape.org/namespaces/inkscape"
   width="297mm"
   height="210mm"
   viewBox="0 0 297 210"
   version="1.1"
   id="svg8"
   inkscape:version="1.0 (6e3e5246a0, 2020-05-07)"
   sodipodi:docname="awards.svg">
  <defs
     id="defs2">
    <inkscape:path-effect
       effect="powerclip"
       id="path-effect5578"
       is_visible="true"
       lpeversion="1"
       inverse="true"
       flatten="false"
       hide_clip="false"
       message="Use fill-rule evenodd on &lt;b&gt;fill and stroke&lt;/b&gt; dialog if no flatten result after convert clip to paths." />
    <linearGradient
       inkscape:collect="always"
       id="linearGradient3023">
      <stop
         style="stop-color:#ffcc00;stop-opacity:1;"
         offset="0"
         id="stop3019" />
      <stop
         style="stop-color:#ffcc00;stop-opacity:0;"
         offset="1"
         id="stop3021" />
    </linearGradient>
    <linearGradient
       inkscape:collect="always"
       id="linearGradient3015">
      <stop
         style="stop-color:#ffcc00;stop-opacity:1;"
         offset="0"
         id="stop3011" />
      <stop
         style="stop-color:#ffcc00;stop-opacity:0;"
         offset="1"
         id="stop3013" />
    </linearGradient>
    <linearGradient
       inkscape:collect="always"
       xlink:href="#linearGradient3015"
       id="linearGradient3017"
       x1="255.64583"
       y1="28.04154"
       x2="207.42027"
       y2="17.868601"
       gradientUnits="userSpaceOnUse"
       gradientTransform="matrix(0.98421601,0.00343052,0.00343052,0.9845485,45.521775,46.241034)" />
    <linearGradient
       inkscape:collect="always"
       xlink:href="#linearGradient3023"
       id="linearGradient3037"
       x1="341.26752"
       y1="141.89047"
       x2="248.02493"
       y2="133.12714"
       gradientUnits="userSpaceOnUse"
       gradientTransform="matrix(0.99454417,0.00346652,0.00346652,0.99488015,56.291034,33.551494)" />
    <linearGradient
       inkscape:collect="always"
       xlink:href="#linearGradient3023"
       id="linearGradient3048"
       gradientUnits="userSpaceOnUse"
       x1="287.70523"
       y1="131.12009"
       x2="325.06025"
       y2="131.12009"
       gradientTransform="matrix(0.99454417,0.00346652,0.00346652,0.99488015,56.291034,33.551494)" />
    <linearGradient
       inkscape:collect="always"
       xlink:href="#linearGradient3023"
       id="linearGradient3050"
       gradientUnits="userSpaceOnUse"
       x1="287.70523"
       y1="155.62195"
       x2="325.28711"
       y2="155.62195"
       gradientTransform="matrix(0.99454417,0.00346652,0.00346652,0.99488015,56.291034,33.551494)" />
    <clipPath
       clipPathUnits="userSpaceOnUse"
       id="clipPath5574">
      <path
         inkscape:transform-center-y="-0.66770085"
         inkscape:transform-center-x="1.4804327"
         style="display:none;fill:#e7e7e7;fill-opacity:1;stroke:none;stroke-width:0.740822px;stroke-linecap:butt;stroke-linejoin:miter;stroke-opacity:1"
         d="m 300.24312,154.01372 c 0,0 22.92251,-9.77095 17.82449,-15.9124 -5.09804,-6.14144 -16.36306,0.59161 -16.36306,0.59161 0,0 4.09836,-5.68213 1.73682,-5.20657 -2.36151,0.4756 -6.8914,3.62021 -6.8914,3.62021 l -6.40788,2.49109 2.90525,9.84783 z"
         id="path5576"
         sodipodi:nodetypes="cscscccc" />
      <path
         id="lpe_path-effect5578"
         style="fill:#e7e7e7;fill-opacity:1;stroke:none;stroke-width:0.740822px;stroke-linecap:butt;stroke-linejoin:miter;stroke-opacity:1"
         class="powerclip"
         d="m 282.70523,107.3949 h 47.35502 v 47.45039 h -47.35502 z m 17.53789,46.61882 c 0,0 22.92251,-9.77095 17.82449,-15.9124 -5.09804,-6.14144 -16.36306,0.59161 -16.36306,0.59161 0,0 4.09836,-5.68213 1.73682,-5.20657 -2.36151,0.4756 -6.8914,3.62021 -6.8914,3.62021 l -6.40788,2.49109 2.90525,9.84783 z" />
    </clipPath>
    <linearGradient
       y2="131.12009"
       x2="325.06025"
       y1="131.12009"
       x1="287.70523"
       gradientTransform="matrix(0.99454417,0.00346652,0.00346652,0.99488015,56.291034,33.551494)"
       gradientUnits="userSpaceOnUse"
       id="linearGradient885"
       xlink:href="#linearGradient3023"
       inkscape:collect="always" />
    <linearGradient
       y2="133.12714"
       x2="248.02493"
       y1="141.89047"
       x1="341.26752"
       gradientTransform="matrix(0.99454417,0.00346652,0.00346652,0.99488015,56.291034,33.551494)"
       gradientUnits="userSpaceOnUse"
       id="linearGradient887"
       xlink:href="#linearGradient3023"
       inkscape:collect="always" />
    <linearGradient
       y2="133.12714"
       x2="248.02493"
       y1="141.89047"
       x1="341.26752"
       gradientTransform="matrix(0.99454417,0.00346652,0.00346652,0.99488015,56.291034,33.551494)"
       gradientUnits="userSpaceOnUse"
       id="linearGradient889"
       xlink:href="#linearGradient3023"
       inkscape:collect="always" />
  </defs>
  <sodipodi:namedview
     id="base"
     pagecolor="#ffffff"
     bordercolor="#666666"
     borderopacity="1.0"
     inkscape:pageopacity="0.0"
     inkscape:pageshadow="2"
     inkscape:zoom="0.66263213"
     inkscape:cx="725.22972"
     inkscape:cy="493.90625"
     inkscape:document-units="mm"
     inkscape:current-layer="g3009"
     inkscape:document-rotation="0"
     showgrid="false"
     inkscape:window-width="1920"
     inkscape:window-height="1041"
     inkscape:window-x="0"
     inkscape:window-y="0"
     inkscape:window-maximized="1" />
  <metadata
     id="metadata5">
    <rdf:RDF>
      <cc:Work
         rdf:about="">
        <dc:format>image/svg+xml</dc:format>
        <dc:type
           rdf:resource="http://purl.org/dc/dcmitype/StillImage" />
        <dc:title />
      </cc:Work>
    </rdf:RDF>
  </metadata>
  <g
     inkscape:label="Layer 1"
     inkscape:groupmode="layer"
     id="layer1">
    <path
       sodipodi:nodetypes="cscsccc"
       id="path948"
       d="m 89.231212,73.938102 c 0,0 1.132916,-8.139102 -1.174976,-7.788029 -2.307894,0.351074 -2.387113,4.68985 -2.387113,4.68985 0,0 -0.770489,-2.145771 -1.018522,-1.400454 -0.248023,0.745316 -0.171794,2.56673 -0.171794,2.56673 l -0.376127,2.233073 z"
       style="fill:#e7e7e7;fill-opacity:1;stroke:#000000;stroke-width:0.173932;stroke-linecap:butt;stroke-linejoin:miter;stroke-miterlimit:4;stroke-dasharray:none;stroke-opacity:1" />
    <g
       id="g3009"
       transform="matrix(0.29284216,-0.30737717,0.30737717,0.29284216,94.996656,91.479277)">
      <path
         sodipodi:nodetypes="cssssssccsc"
         id="path1083"
         d="m -204.52768,182.40972 c 0,0 -132.47136,-103.821713 -113.28891,-168.819851 9.66181,-32.738228 68.16944,-9.8190368 106.35291,-18.0056249 23.7721,-5.0967705 25.13342,-45.7922451 46.30873,-47.5854601 67.313989,-5.700432 96.994099,85.112833 197.007365,47.5511357 C 121.96481,-38.293335 141.36981,118.19198 192.19984,146.59323 c 25.31404,14.14421 67.84156,68.94076 63.6026,134.12789 -4.27278,65.70713 -30.39396,65.47035 -66.95468,75.55716 -50.39605,60.40182 22.82749,100.95894 -84.11557,138.15601 -131.239201,-14.43941 -223.84052,-274.22468 -276.26429,-283.84514 -59.10095,-10.84582 -32.99558,-28.17943 -32.99558,-28.17943 z"
         style="fill:#d3d4f7;fill-opacity:0.581472;stroke:none;stroke-width:0.369004px;stroke-linecap:butt;stroke-linejoin:miter;stroke-opacity:1" />
      <path
         sodipodi:nodetypes="cccccccccc"
         id="path891"
         d="M -295.05816,97.838736 -236.07863,41.648192 -138.60801,143.9567 -102.2253,109.29442 49.408923,268.45489 14.009308,302.18056 -0.66307757,316.31515 86.084651,407.39434 40.678387,449.59389 Z"
         style="fill:#a9abef;fill-opacity:1;stroke:none;stroke-width:0.64383px;stroke-linecap:butt;stroke-linejoin:miter;stroke-opacity:1" />
      <g
         id="g3046"
         transform="matrix(1.0160495,-0.00354029,-0.00354029,1.0157063,-75.32078,-77.489179)">
        <path
           style="fill:none;stroke:#ffcc00;stroke-width:2.28544;stroke-linecap:butt;stroke-linejoin:miter;stroke-miterlimit:4;stroke-dasharray:none;stroke-opacity:1"
           d="m 258.31045,61.8342 -22.00495,0.0155 c -5.23365,14.516912 31.68628,38.77234 31.68628,38.77234"
           id="path2961"
           sodipodi:nodetypes="ccc" />
        <path
           style="fill:url(#linearGradient3017);fill-opacity:1;stroke:none;stroke-width:0.273087px;stroke-linecap:butt;stroke-linejoin:miter;stroke-opacity:1"
           d="m 256.89617,55.117019 c 0,0 8.00137,44.776445 15.51609,56.329771 7.51471,11.55331 20.46684,14.17301 20.46684,14.17301 0,0 14.4103,-2.20985 22.21562,-13.96193 7.80533,-11.752115 14.83882,-56.540851 14.83882,-56.540851 z"
           id="path2939"
           sodipodi:nodetypes="cccccc" />
        <rect
           style="fill:#ffe580;fill-opacity:1;stroke:none;stroke-width:0.460171;paint-order:stroke fill markers"
           id="rect2955"
           width="73.037354"
           height="4.012578"
           x="256.89624"
           y="51.104439"
           ry="0.054619446" />
        <path
           sodipodi:nodetypes="ccc"
           id="path2971"
           d="m 328.19335,63.054481 22.00494,0.0155 c 5.23365,14.516912 -31.21695,39.080189 -31.21695,39.080189"
           style="fill:none;stroke:#f1c100;stroke-width:2.28544;stroke-linecap:butt;stroke-linejoin:miter;stroke-miterlimit:4;stroke-dasharray:none;stroke-opacity:1" />
        <g
           style="fill:url(#linearGradient889);fill-opacity:1"
           id="g3029"
           transform="matrix(0.98961516,0,0,0.98961516,-10.184707,13.037937)">
          <path
             sodipodi:nodetypes="czcczcc"
             id="path2941"
             d="m 303.45144,112.3949 c 0,0 2.26518,17.03533 -0.83222,24.11257 -3.09739,7.07724 -14.91399,13.33782 -14.91399,13.33782 l 37.35502,-0.23525 c 0,0 -10.82534,-6.42287 -13.86074,-12.85026 -3.0354,-6.42738 -1.55177,-24.28042 -1.55177,-24.28042 z"
             style="fill:url(#linearGradient885);fill-opacity:1;stroke:none;stroke-width:0.264583px;stroke-linecap:butt;stroke-linejoin:miter;stroke-opacity:1" />
          <rect
             ry="0.055192612"
             y="149.31613"
             x="287.70523"
             height="12.611631"
             width="37.581882"
             id="rect2989"
             style="fill:url(#linearGradient887);fill-opacity:1;stroke:none;stroke-width:2.62979;stroke-miterlimit:4;stroke-dasharray:none;stroke-opacity:1;paint-order:stroke fill markers" />
        </g>
        <g
           transform="matrix(0.98961516,0,0,0.98961516,-10.184707,13.037937)"
           id="g5556"
           style="fill:url(#linearGradient3037);fill-opacity:1">
          <path
             style="fill:url(#linearGradient3048);fill-opacity:1;stroke:none;stroke-width:0.264583px;stroke-linecap:butt;stroke-linejoin:miter;stroke-opacity:1"
             d="m 303.45144,112.3949 c 0,0 2.26518,17.03533 -0.83222,24.11257 -3.09739,7.07724 -14.91399,13.33782 -14.91399,13.33782 l 37.35502,-0.23525 c 0,0 -10.82534,-6.42287 -13.86074,-12.85026 -3.0354,-6.42738 -1.55177,-24.28042 -1.55177,-24.28042 z"
             id="path5552"
             sodipodi:nodetypes="czcczcc"
             clip-path="url(#clipPath5574)"
             inkscape:path-effect="#path-effect5578"
             inkscape:original-d="m 303.45144,112.3949 c 0,0 2.26518,17.03533 -0.83222,24.11257 -3.09739,7.07724 -14.91399,13.33782 -14.91399,13.33782 l 37.35502,-0.23525 c 0,0 -10.82534,-6.42287 -13.86074,-12.85026 -3.0354,-6.42738 -1.55177,-24.28042 -1.55177,-24.28042 z" />
          <rect
             style="fill:url(#linearGradient3050);fill-opacity:1;stroke:none;stroke-width:2.62979;stroke-miterlimit:4;stroke-dasharray:none;stroke-opacity:1;paint-order:stroke fill markers"
             id="rect5554"
             width="37.581882"
             height="12.611631"
             x="287.70523"
             y="149.31613"
             ry="0.055192612" />
        </g>
      </g>
      <g
         id="g5536"
         transform="matrix(1.3631474,-0.0047497,-0.0047497,1.3626871,-371.95071,-185.4486)">
        <g
           id="g5542"
           transform="translate(-226.30244,-97.946534)">
          <path
             d="m 635.15918,-41.15448 a 37.437008,37.147453 0 0 1 -37.37723,37.147406 37.437008,37.147453 0 0 1 -37.4966,-37.028759 37.437008,37.147453 0 0 1 37.25746,-37.265674 37.437008,37.147453 0 0 1 37.6156,36.909734"
             sodipodi:arc-type="arc"
             sodipodi:open="true"
             sodipodi:end="6.2767974"
             sodipodi:start="0"
             sodipodi:ry="37.147453"
             sodipodi:rx="37.437008"
             sodipodi:cy="-41.15448"
             sodipodi:cx="597.72217"
             sodipodi:type="arc"
             transform="rotate(46.387213)"
             id="path5538"
             style="fill:#7f86eb;fill-opacity:0.952941;stroke:none;stroke-width:6.04178;stroke-miterlimit:4;stroke-dasharray:none;stroke-opacity:1;paint-order:stroke fill markers" />
          <path
             style="fill:#c6c9f6;fill-opacity:0.952941;stroke:none;stroke-width:5.15052;stroke-miterlimit:4;stroke-dasharray:none;stroke-opacity:1;paint-order:stroke fill markers"
             id="path5530"
             transform="rotate(46.387213)"
             sodipodi:type="arc"
             sodipodi:cx="597.72217"
             sodipodi:cy="-41.15448"
             sodipodi:rx="31.914459"
             sodipodi:ry="31.667618"
             sodipodi:start="0"
             sodipodi:end="6.2767974"
             sodipodi:open="true"
             sodipodi:arc-type="arc"
             d="m 629.63663,-41.15448 a 31.914459,31.667618 0 0 1 -31.8635,31.6675774 31.914459,31.667618 0 0 1 -31.96526,-31.5664324 31.914459,31.667618 0 0 1 31.7614,-31.768399 31.914459,31.667618 0 0 1 32.06671,31.464966" />
        </g>
        <text
           transform="rotate(46.387213)"
           id="text5526"
           y="68.111748"
           x="348.52167"
           style="font-size:33.0824px;line-height:1.25;font-family:sans-serif;word-spacing:0px;fill:#535ce4;fill-opacity:0.952941;stroke:none;stroke-width:0.827062;stroke-opacity:1"
           xml:space="preserve"><tspan
             style="fill:#535ce4;fill-opacity:0.952941;stroke:none;stroke-width:0.827062;stroke-opacity:1"
             y="68.111748"
             x="348.52167"
             id="tspan5524"
             sodipodi:role="line">1<tspan
   id="tspan5528"
   style="font-size:21.5036px;baseline-shift:super;fill:#535ce4;fill-opacity:0.952941;stroke:none;stroke-width:0.827062;stroke-opacity:1">st</tspan></tspan></text>
      </g>
      <g
         transform="matrix(0.67398875,-0.00234842,-0.00234842,0.67376114,-358.34274,-81.734464)"
         id="g985">
        <g
           transform="matrix(1.224529,0,0,1.224529,-325.56536,-188.7402)"
           id="g977">
          <path
             style="fill:#7f86eb;fill-opacity:0.952941;stroke:none;stroke-width:6.04178;stroke-miterlimit:4;stroke-dasharray:none;stroke-opacity:1;paint-order:stroke fill markers"
             id="path973"
             transform="rotate(46.387213)"
             sodipodi:type="arc"
             sodipodi:cx="597.72217"
             sodipodi:cy="-41.15448"
             sodipodi:rx="37.437008"
             sodipodi:ry="37.147453"
             sodipodi:start="0"
             sodipodi:end="6.2767974"
             sodipodi:open="true"
             sodipodi:arc-type="arc"
             d="m 635.15918,-41.15448 a 37.437008,37.147453 0 0 1 -37.37723,37.147406 37.437008,37.147453 0 0 1 -37.4966,-37.028759 37.437008,37.147453 0 0 1 37.25746,-37.265674 37.437008,37.147453 0 0 1 37.6156,36.909734" />
          <path
             d="m 629.63663,-41.15448 a 31.914459,31.667618 0 0 1 -31.8635,31.6675774 31.914459,31.667618 0 0 1 -31.96526,-31.5664324 31.914459,31.667618 0 0 1 31.7614,-31.768399 31.914459,31.667618 0 0 1 32.06671,31.464966"
             sodipodi:arc-type="arc"
             sodipodi:open="true"
             sodipodi:end="6.2767974"
             sodipodi:start="0"
             sodipodi:ry="31.667618"
             sodipodi:rx="31.914459"
             sodipodi:cy="-41.15448"
             sodipodi:cx="597.72217"
             sodipodi:type="arc"
             transform="rotate(46.387213)"
             id="path975"
             style="fill:#c6c9f6;fill-opacity:0.952941;stroke:none;stroke-width:5.15052;stroke-miterlimit:4;stroke-dasharray:none;stroke-opacity:1;paint-order:stroke fill markers" />
        </g>
        <text
           xml:space="preserve"
           style="font-size:33.0824px;line-height:1.25;font-family:sans-serif;word-spacing:0px;fill:#535ce4;fill-opacity:0.952941;stroke:none;stroke-width:0.827062;stroke-opacity:1"
           x="348.52167"
           y="68.111748"
           id="text983"
           transform="rotate(46.387213)"><tspan
             sodipodi:role="line"
             id="tspan981"
             x="348.52167"
             y="68.111748"
             style="fill:#535ce4;fill-opacity:0.952941;stroke:none;stroke-width:0.827062;stroke-opacity:1">2<tspan
   id="tspan987"
   style="font-size:65%;baseline-shift:super">nd</tspan></tspan></text>
      </g>
      <g
         id="g1001"
         transform="matrix(0.54399537,-0.00189548,-0.00189548,0.54381166,-97.559977,213.55197)">
        <g
           id="g993"
           transform="matrix(1.2926157,0,0,1.2926157,-355.6661,-216.2727)">
          <path
             d="m 635.15918,-41.15448 a 37.437008,37.147453 0 0 1 -37.37723,37.147406 37.437008,37.147453 0 0 1 -37.4966,-37.028759 37.437008,37.147453 0 0 1 37.25746,-37.265674 37.437008,37.147453 0 0 1 37.6156,36.909734"
             sodipodi:arc-type="arc"
             sodipodi:open="true"
             sodipodi:end="6.2767974"
             sodipodi:start="0"
             sodipodi:ry="37.147453"
             sodipodi:rx="37.437008"
             sodipodi:cy="-41.15448"
             sodipodi:cx="597.72217"
             sodipodi:type="arc"
             transform="rotate(46.387213)"
             id="path989"
             style="fill:#7f86eb;fill-opacity:0.952941;stroke:none;stroke-width:6.04178;stroke-miterlimit:4;stroke-dasharray:none;stroke-opacity:1;paint-order:stroke fill markers" />
          <path
             style="fill:#c6c9f6;fill-opacity:0.952941;stroke:none;stroke-width:5.15052;stroke-miterlimit:4;stroke-dasharray:none;stroke-opacity:1;paint-order:stroke fill markers"
             id="path991"
             transform="rotate(46.387213)"
             sodipodi:type="arc"
             sodipodi:cx="597.72217"
             sodipodi:cy="-41.15448"
             sodipodi:rx="31.914459"
             sodipodi:ry="31.667618"
             sodipodi:start="0"
             sodipodi:end="6.2767974"
             sodipodi:open="true"
             sodipodi:arc-type="arc"
             d="m 629.63663,-41.15448 a 31.914459,31.667618 0 0 1 -31.8635,31.6675774 31.914459,31.667618 0 0 1 -31.96526,-31.5664324 31.914459,31.667618 0 0 1 31.7614,-31.768399 31.914459,31.667618 0 0 1 32.06671,31.464966" />
        </g>
        <text
           transform="rotate(46.387213)"
           id="text999"
           y="72.075653"
           x="342.56064"
           style="font-size:42.0945px;line-height:1.25;font-family:sans-serif;word-spacing:0px;fill:#535ce4;fill-opacity:0.952941;stroke:none;stroke-width:1.05236;stroke-opacity:1"
           xml:space="preserve"><tspan
             style="fill:#535ce4;fill-opacity:0.952941;stroke:none;stroke-width:1.05236;stroke-opacity:1"
             y="72.075653"
             x="342.56064"
             id="tspan997"
             sodipodi:role="line">3<tspan
   id="tspan1003"
   style="font-size:27.3614px;baseline-shift:super;stroke-width:1.05236">rd</tspan></tspan></text>
      </g>
    </g>
    <g
       transform="matrix(1.0123335,0,0,1.0194223,-0.06629648,-4.1382003)"
       id="g912">
      <g
         style="fill:#9c9df3;fill-opacity:1;stroke:none"
         transform="matrix(0.76941672,0,0,0.76941672,83.270873,18.602222)"
         id="g2916">
        <path
           style="fill:#9c9df3;fill-opacity:1;stroke:none;stroke-width:0.264583px;stroke-linecap:butt;stroke-linejoin:miter;stroke-opacity:1"
           d="m 82.504304,68.59962 c 0,0 -4.79178,1.323243 -8.08595,-0.731886 -4.27387,-2.666331 -12.06191,-13.445479 -12.06191,-13.445479 l 0.58823,-27.432851 -7.75594,-0.444778 c 0,0 -4.67794,21.872244 -1.57875,32.01446 2.14672,7.025201 14.87179,16.542633 14.87179,16.542633 l -4.10187,18.398035 z"
           id="path2891"
           sodipodi:nodetypes="cscccsccc" />
        <path
           sodipodi:nodetypes="cscccsccc"
           id="path2909"
           d="m 82.504304,68.59962 c 0,0 -4.79178,1.323243 -8.08595,-0.731886 -4.27387,-2.666331 -12.06191,-13.445479 -12.06191,-13.445479 l 0.58823,-27.432851 -7.75594,-0.444778 c 0,0 -4.67794,21.872244 -1.57875,32.01446 2.14672,7.025201 14.87179,16.542633 14.87179,16.542633 l -4.10187,18.398035 z"
           style="fill:#9c9df3;fill-opacity:1;stroke:none;stroke-width:0.264583px;stroke-linecap:butt;stroke-linejoin:miter;stroke-opacity:1" />
      </g>
      <g
         style="stroke:none"
         transform="matrix(0.76941672,0,0,0.76941672,94.040893,18.430166)"
         id="g2924">
        <path
           style="fill:#f9f9f9;fill-opacity:1;stroke:none;stroke-width:0.264583px;stroke-linecap:butt;stroke-linejoin:miter;stroke-opacity:1"
           d="m 45.604152,109.22689 c 0,0 -14.42283,10.73512 -14.67623,22.28525 -0.35041,15.97197 20.89805,27.98646 20.89805,27.98646 l 9.02491,-8.29273 c 0,0 -14.57998,-5.40213 -13.72198,-15.76649 0.66701,-8.05731 22.13592,-17.77355 22.13592,-17.77355 l -3.40116,-17.48182 -17.09804,0.12326 z"
           id="path2895"
           sodipodi:nodetypes="csccscccc" />
        <path
           sodipodi:nodetypes="csccscccc"
           id="path2920"
           d="m 45.604152,109.22689 c 0,0 -14.42283,10.73512 -14.67623,22.28525 -0.35041,15.97197 20.89805,27.98646 20.89805,27.98646 l 9.02491,-8.29273 c 0,0 -14.57998,-5.40213 -13.72198,-15.76649 0.66701,-8.05731 22.13592,-17.77355 22.13592,-17.77355 l -3.40116,-17.48182 -17.09804,0.12326 z"
           style="fill:#040467;fill-opacity:0.673278;stroke:none;stroke-width:0.264583px;stroke-linecap:butt;stroke-linejoin:miter;stroke-opacity:1" />
      </g>
      <g
         style="fill:#101084;fill-opacity:1"
         transform="matrix(0.76941672,0,0,0.76941672,-17.098889,12.933167)"
         id="g2902">
        <path
           style="fill:#000000;fill-opacity:1;stroke:none;stroke-width:0.264583px;stroke-linecap:butt;stroke-linejoin:miter;stroke-opacity:1"
           d="m 222.78151,75.4724 c 0,0 -6.01096,13.739474 -6.44436,23.199025 -0.4334,9.459555 1.98106,18.979045 4.64666,24.498285 9.66092,11.20698 23.98192,-2.20049 23.98192,-2.20049 0,0 -12.99285,6.01116 -12.63453,-16.47007 l 0.2668,-16.738726 c 0,0 5.78455,0.201128 9.62162,-2.483305 3.83706,-2.684436 18.27004,-26.521567 18.25121,-31.453604 0,0 -6.03777,2.550527 -8.99487,-3.242702 0,0 -5.02509,21.052268 -11.75341,23.741773 -6.72832,2.689506 -16.94104,1.149814 -16.94104,1.149814 z"
           id="path2893"
           sodipodi:nodetypes="czccscsccsc" />
      </g>
      <g
         style="stroke:none"
         transform="matrix(0.76941672,0,0,0.76941672,-24.502632,17.566318)"
         id="g2930">
        <path
           style="fill:#f9f9f9;fill-opacity:1;stroke:none;stroke-width:0.264583px;stroke-linecap:butt;stroke-linejoin:miter;stroke-opacity:1"
           d="m 218.06534,112.05836 c 0,0 -12.36792,15.96529 -1.1426,36.01051 11.22532,20.04521 28.68296,32.18266 28.68296,32.18266 l 8.25229,-3.10585 c 0,0 -17.91719,-25.5246 -22.13151,-29.71789 0.0556,-2.30766 -0.52576,-4.95737 -0.11397,-7.58011 1.3736,-8.74867 5.73461,-18.23937 8.55191,-25.72647 z"
           id="path2897"
           sodipodi:nodetypes="cscccscc" />
        <path
           sodipodi:nodetypes="csccccc"
           id="path2926"
           d="m 218.06534,112.05836 c 0,0 -12.36792,15.96529 -1.1426,36.01051 11.22532,20.04521 28.68296,32.18266 28.68296,32.18266 l 8.25229,-3.10585 c 0,0 -17.91719,-25.5246 -22.13151,-29.71789 -2.10615,-10.65677 5.05062,-22.75668 8.43794,-33.30658 z"
           style="fill:#070851;fill-opacity:0.673278;stroke:none;stroke-width:0.264583px;stroke-linecap:butt;stroke-linejoin:miter;stroke-opacity:1" />
      </g>
      <path
         sodipodi:nodetypes="ccccccscscccccscccscccccsccccc"
         inkscape:connector-curvature="0"
         id="path826"
         d="m 156.12687,53.667784 -2.89308,-0.08435 c 0,0 -2.19628,-1.158384 -3.43182,-1.290784 -0.94137,0.04891 -1.63144,0.273842 -2.38762,0.652469 -0.85327,0.63441 -1.31367,1.156697 -1.65034,1.832801 -0.19746,1.126845 -0.4052,2.164367 -0.35703,3.180169 0,0 -1.05927,0.735062 -1.34863,1.277671 -0.29273,0.548805 -0.25745,1.118371 -0.15064,1.840127 -0.0147,0.823794 0.33524,1.704975 0.27253,2.550431 -0.0523,0.71131 -0.46183,1.329224 -0.34342,2.006242 0.0556,0.308682 0.19228,0.661018 0.47152,0.840624 0.74195,0.476878 1.58261,0.81579 2.46929,1.035769 l 0.16478,0.224428 -0.92471,4.712463 c 0,0 2.35342,2.499591 3.96896,2.376824 1.88947,-0.143675 4.31823,-2.794391 4.31823,-2.794391 l 0.36933,-1.522099 c 0.78751,-0.775015 2.57883,-2.114195 2.57883,-2.114195 0,0 2.53591,-3.546461 1.19723,-3.536176 -1.14247,0.0113 -1.01876,-1.087239 -1.01876,-1.087239 0,0 -0.0408,0.699454 0.24428,0.895342 0.39515,0.271657 1.21409,0.58384 1.72885,0.439025 0.83247,-0.232997 1.33639,-1.260216 1.70654,-2.195566 0.13256,-0.337521 -0.39829,-0.816762 -0.39829,-0.816762 -0.50097,-0.486154 -1.38658,-0.73223 -2.05541,-0.558081 -0.70703,0.185627 -1.12395,0.910499 -1.12395,0.910499 l -1.88177,0.113045 1.21979,-2.407417 -1.26283,-2.98779 z"
         style="opacity:1;fill:#e7e7e7;fill-opacity:1;stroke:#000000;stroke-width:0.255;stroke-linecap:butt;stroke-linejoin:miter;stroke-miterlimit:4;stroke-dasharray:none;stroke-opacity:1" />
      <path
         id="path2889"
         d="m 146.5017,71.488531 c 0,0 -7.40857,-0.701981 -10.71488,10.19696 -3.30633,10.898935 -6.65723,20.785679 -6.65723,20.785679 0,0 11.63268,5.56947 21.26694,4.46545 9.63426,-1.104 9.88746,-1.56351 9.88746,-1.56351 0,0 -6.98699,-12.593057 -5.21616,-22.884359 1.77083,-10.291299 1.44751,-10.457632 1.44751,-10.457632 l -3.37451,-1.004346 z"
         style="fill:#d0d2f6;fill-opacity:1;stroke:none;stroke-width:0.209989px;stroke-linecap:butt;stroke-linejoin:miter;stroke-opacity:1" />
      <path
         sodipodi:nodetypes="cccccssscssscscssscsssssssscccssssccccccssscc"
         inkscape:connector-curvature="0"
         id="path847-3"
         d="m 145.63833,54.719034 -1.74302,-2.066082 -0.59922,-1.531188 1.25559,-0.885963 -0.37281,-1.416928 c 0,0 1.39588,-0.792926 2.15335,-1.078968 1.13912,-0.430072 2.24811,-0.08001 3.32906,-0.618749 0.64365,-0.320667 0.60329,-0.964208 1.28447,-1.214254 0.69781,-0.256408 2.76211,0.02255 2.76211,0.02255 0,0 -0.88194,0.266218 -0.5867,0.664947 0.24107,0.326108 0.90086,-0.378904 1.22752,-0.126307 0.35229,0.272759 -0.29719,1.090678 0.11884,1.25323 0.72563,0.282546 1.46554,-0.189459 1.46554,-0.189459 0,0 1.78471,-0.277655 2.63147,0.321718 0.4535,0.320665 1.24695,1.194494 1.24695,1.194494 0,0 -0.91338,-0.779161 -1.38778,-0.523162 -0.16556,0.08932 -0.32366,0.314663 -0.24613,0.486686 0.3163,0.703426 1.49215,0.646095 2.27971,0.824433 0.69776,0.158339 2.12912,0.208411 2.12912,0.208411 0,0 -1.18873,0.192169 -1.26346,0.640497 -0.17796,1.06969 1.74979,1.572506 2.33468,2.542463 0.9654,1.600821 2.01772,3.42637 1.81729,5.207212 -0.12871,1.144493 -1.31782,1.902482 -1.87202,2.91137 -0.45523,0.827724 -0.82059,1.69968 -1.18884,2.567457 -0.19872,0.473633 -0.20265,1.05578 -0.55633,1.437797 -0.40053,0.431699 -1.19133,0.403933 -1.62499,0.805934 -0.44876,0.416455 -0.43864,1.166221 -0.90623,1.56657 -0.39226,0.339168 -1.47396,0.612352 -1.47396,0.612352 l -1.17206,0.62987 1.19722,-3.536243 c 0,0 0.99244,-0.112095 1.39043,-0.356028 0.60466,-0.370728 1.09518,-0.934424 1.35124,-1.58336 0.14105,-0.363651 -0.33416,-0.720561 -0.66258,-0.980361 -0.45426,-0.358753 -1.05007,-0.575435 -1.62024,-0.500304 -0.33171,0.04351 -0.80301,0.433343 -0.80301,0.433343 l -0.882,1.201621 -1.57274,-0.512841 1.21978,-2.4074 -1.26279,-2.987914 0.51828,-3.494841 c 0,0 -1.94113,0.103532 -2.89299,-0.0848 -1.19766,-0.236834 -2.21844,-1.22916 -3.4319,-1.290807 -0.84094,-0.04351 -1.68646,0.250989 -2.38774,0.652696 -0.5007,0.286904 -1.20197,1.200153 -1.20197,1.200153 z"
         style="opacity:1;fill:#898989;fill-opacity:1;stroke:none;stroke-width:0.454874;stroke-linecap:butt;stroke-linejoin:miter;stroke-miterlimit:4;stroke-dasharray:none;stroke-opacity:1" />
      <path
         sodipodi:nodetypes="ccsscc"
         id="path2935"
         d="m 133.91676,141.15109 c -1.73646,3.07245 -3.06897,6.55002 -3.06897,6.55002 0.5178,3.07384 3.07063,-0.36518 6.46026,-2.98122 1.19888,-0.92527 4.40642,-3.6626 5.22722,-4.67444 3.14151,-3.87263 -1.67458,-5.27492 -1.67458,-5.27492 z"
         style="fill:#000000;fill-opacity:1;stroke:#000000;stroke-width:0.203575px;stroke-linecap:butt;stroke-linejoin:miter;stroke-opacity:1" />
      <path
         sodipodi:nodetypes="ccscccccsc"
         d="m 180.62753,45.827321 c -1.18951,1.588025 -1.71807,3.94259 -1.71807,3.94259 0,0 -0.54084,-3.019272 -1.08056,-2.125817 -0.5397,0.893459 -0.89607,3.282558 -0.89607,3.282558 l -1.09915,2.787507 3.83749,2.05571 3.47472,-0.902743 c 0,0 1.93962,-5.409433 1.71152,-8.453116 -1.03437,0.03799 -2.61699,-0.01542 -3.44381,-0.222231 0,0 -0.55174,-0.246113 -0.78607,-0.364458 z"
         style="fill:#e7e7e7;fill-opacity:1;stroke:#000000;stroke-width:0.2;stroke-linecap:butt;stroke-linejoin:miter;stroke-miterlimit:4;stroke-dasharray:none;stroke-opacity:1"
         id="path5591" />
      <path
         style="fill:#9c9df3;fill-opacity:1;stroke:none;stroke-width:0.203575px;stroke-linecap:butt;stroke-linejoin:miter;stroke-opacity:1"
         d="m 154.31303,71.002896 c 0,0 -4.62493,10.571381 -4.95839,17.849721 -0.33346,7.278333 2.82481,14.521493 3.73252,15.440253 8.0013,8.09854 18.29478,1.71607 18.29478,1.71607 0,0 -9.9969,4.6251 -9.72121,-12.672377 l 0.20528,-12.879056 c 0,0 4.45073,0.154757 7.40303,-1.910697 0.65349,-0.45718 3.96381,-3.782346 5.47214,-6.042698 3.7151,-5.567357 8.58192,-15.203403 8.57064,-18.158231 0,0 -4.64555,1.962419 -6.92079,-2.494989 0,0 -3.86639,16.197968 -9.04327,18.267317 -5.17688,2.069352 -13.03473,0.884687 -13.03473,0.884687 z"
         id="path2899"
         sodipodi:nodetypes="czscscsaccsc" />
      <path
         sodipodi:nodetypes="cscsccc"
         id="path5544"
         d="m 125.73411,39.026099 c 0,0 -1.31826,-9.248478 1.3672,-8.849553 2.68546,0.398926 2.77764,5.329087 2.77764,5.329087 0,0 0.89654,-2.438244 1.18515,-1.591339 0.2886,0.846905 0.1999,2.91658 0.1999,2.91658 l 0.43766,2.537445 z"
         style="fill:#e7e7e7;fill-opacity:1;stroke:#000000;stroke-width:0.2;stroke-linecap:butt;stroke-linejoin:miter;stroke-miterlimit:4;stroke-dasharray:none;stroke-opacity:1" />
      <path
         inkscape:transform-center-y="4.7091528"
         inkscape:transform-center-x="-2.2033561"
         style="fill:#000000;fill-opacity:1;stroke:#000000;stroke-width:0.203575px;stroke-linecap:butt;stroke-linejoin:miter;stroke-opacity:1"
         d="m 162.25243,157.06584 c -2.72817,2.23882 -3.71492,4.0523 -3.71492,4.0523 -0.62631,3.05358 2.9955,0.76746 7.10075,-0.44915 1.452,-0.43031 5.4312,-1.82576 6.56183,-2.47323 4.32728,-2.47808 -1.38003,-4.33055 -1.38003,-4.33055 l -7.05677,2.25169 z"
         id="path2937"
         sodipodi:nodetypes="ccssccc" />
    </g>
    <g
       style="fill:#bfbff7;fill-opacity:1;stroke:none"
       transform="matrix(-0.66123919,0,0,0.67712342,122.31189,51.031763)"
       id="g918">
      <path
         sodipodi:nodetypes="cscccsccc"
         id="path916"
         d="m 82.504304,68.59962 c 0,0 -4.79178,1.323243 -8.08595,-0.731886 -4.27387,-2.666331 -12.06191,-13.445479 -12.06191,-13.445479 L 57.937597,33.29353 49.7372,33.693484 c 0,0 0.773594,14.723386 3.872784,24.865602 2.14672,7.025201 14.87179,16.542633 14.87179,16.542633 l -4.10187,18.398035 z"
         style="fill:#bfbff7;fill-opacity:1;stroke:none;stroke-width:0.264583px;stroke-linecap:butt;stroke-linejoin:miter;stroke-opacity:1" />
    </g>
    <g
       style="fill:#141a6f;fill-opacity:1;stroke:none"
       transform="matrix(-0.66123919,0,0,0.67712342,113.05611,50.880345)"
       id="g924">
      <path
         sodipodi:nodetypes="csccscccc"
         id="path922"
         d="m 45.604152,109.22689 c 0,0 -7.441558,19.09509 -7.694958,30.64522 -0.35041,15.97197 11.880115,37.48062 11.880115,37.48062 l 11.750389,0.7802 c 0,0 -8.377436,-26.13846 -7.519436,-36.50282 0.66701,-8.05731 15.24456,-23.96428 15.24456,-23.96428 l -3.40116,-17.48182 -17.09804,0.12326 z"
         style="fill:#141a6f;fill-opacity:1;stroke:none;stroke-width:0.264583px;stroke-linecap:butt;stroke-linejoin:miter;stroke-opacity:1" />
    </g>
    <g
       style="fill:#101084;fill-opacity:1"
       transform="matrix(-0.66123919,0,0,0.67712342,208.56998,46.042725)"
       id="g928">
      <path
         style="fill:#000000;fill-opacity:1;stroke:none;stroke-width:0.264583px;stroke-linecap:butt;stroke-linejoin:miter;stroke-opacity:1"
         d="m 222.78151,75.4724 c 0,0 -6.01096,13.739474 -6.44436,23.199025 -0.4334,9.459555 1.98106,18.979045 4.64666,24.498285 9.66092,11.20698 23.98192,-2.20049 23.98192,-2.20049 0,0 -12.99285,6.01116 -12.63453,-16.47007 l 0.2668,-16.738726 c 0,0 5.78455,0.201128 9.62162,-2.483305 3.83706,-2.684436 18.27004,-26.521567 18.25121,-31.453604 0,0 -6.03777,2.550527 -8.99487,-3.242702 0,0 -5.02509,21.052268 -11.75341,23.741773 -6.72832,2.689506 -16.94104,1.149814 -16.94104,1.149814 z"
         id="path926"
         sodipodi:nodetypes="czccscsccsc" />
    </g>
    <g
       style="fill:#101559;fill-opacity:1;stroke:none"
       transform="matrix(-0.66123919,0,0,0.67712342,214.93278,50.120118)"
       id="g934">
      <path
         style="fill:#101559;fill-opacity:1;stroke:none;stroke-width:0.264583px;stroke-linecap:butt;stroke-linejoin:miter;stroke-opacity:1"
         d="m 218.06534,112.05836 c 0,0 -12.36792,15.96529 -1.1426,36.01051 11.22532,20.04521 28.68296,32.18266 28.68296,32.18266 l 8.25229,-3.10585 c 0,0 -17.91719,-25.5246 -22.13151,-29.71789 0.0556,-2.30766 -0.52576,-4.95737 -0.11397,-7.58011 1.3736,-8.74867 5.73461,-18.23937 8.55191,-25.72647 z"
         id="path930"
         sodipodi:nodetypes="cscccscc" />
      <path
         sodipodi:nodetypes="csccccc"
         id="path932"
         d="m 218.06534,112.05836 c 0,0 -12.36792,15.96529 -1.1426,36.01051 11.22532,20.04521 25.77066,29.26295 25.77066,29.26295 l 11.16459,-0.18614 c 0,0 -17.91719,-25.5246 -22.13151,-29.71789 -2.10615,-10.65677 5.05062,-22.75668 8.43794,-33.30658 z"
         style="fill:#101559;fill-opacity:1;stroke:none;stroke-width:0.264583px;stroke-linecap:butt;stroke-linejoin:miter;stroke-opacity:1" />
    </g>
    <path
       sodipodi:nodetypes="ccccccscscccccscccscccccsccccc"
       inkscape:connector-curvature="0"
       id="path936"
       d="m 59.699214,81.89113 2.486322,-0.07423 c 0,0 1.88749,-1.019434 2.949317,-1.135952 0.809016,0.04304 1.402065,0.240994 2.051927,0.574204 0.733304,0.558311 1.128973,1.017949 1.418309,1.612952 0.169697,0.991677 0.348229,1.904747 0.306833,2.7987 0,0 0.910339,0.64689 1.159015,1.124412 0.251574,0.482975 0.221254,0.98422 0.129462,1.619399 0.01263,0.724979 -0.288106,1.500459 -0.234214,2.244502 0.04495,0.625987 0.396899,1.16978 0.295137,1.765588 -0.04778,0.271655 -0.165246,0.581728 -0.405227,0.739789 -0.637634,0.419676 -1.3601,0.717935 -2.122115,0.911526 l -0.141613,0.197508 0.794699,4.147193 c 0,0 -2.022536,2.199759 -3.410937,2.091719 -1.623816,-0.12644 -3.7111,-2.459191 -3.7111,-2.459191 L 60.947625,96.70972 c -0.676788,-0.682049 -2.216254,-1.860592 -2.216254,-1.860592 0,0 -2.179369,-3.121055 -1.028903,-3.112003 0.981842,0.01 0.875526,-0.956823 0.875526,-0.956823 0,0 0.03506,0.615553 -0.209935,0.787944 -0.339593,0.239071 -1.043393,0.513807 -1.48578,0.386363 -0.715427,-0.205049 -1.148497,-1.10905 -1.466606,-1.932203 -0.113922,-0.297035 0.342292,-0.71879 0.342292,-0.71879 0.430536,-0.427838 1.19163,-0.644396 1.766426,-0.491137 0.607623,0.16336 0.965926,0.801282 0.965926,0.801282 l 1.617199,0.09949 -1.048292,-2.118642 1.085281,-2.629397 z"
       style="fill:#e7e7e7;fill-opacity:1;stroke:#000000;stroke-width:0.221764;stroke-linecap:butt;stroke-linejoin:miter;stroke-miterlimit:4;stroke-dasharray:none;stroke-opacity:1" />
    <path
       id="path938"
       d="m 67.971115,97.574238 c 0,0 6.366949,-0.617777 9.208403,8.973812 2.84147,9.59158 5.721244,18.29239 5.721244,18.29239 0,0 -9.997162,4.90139 -18.276876,3.92981 -8.279714,-0.97157 -8.497315,-1.37596 -8.497315,-1.37596 0,0 6.004642,-11.08249 4.482785,-20.13932 -1.521857,-9.056848 -1.243995,-9.203227 -1.243995,-9.203227 l 2.900065,-0.883874 z"
       style="fill:#dddff9;fill-opacity:1;stroke:none;stroke-width:0.18262px;stroke-linecap:butt;stroke-linejoin:miter;stroke-opacity:1" />
    <path
       sodipodi:nodetypes="cccccssscssscscssscsssssssscccssssccccccssscc"
       inkscape:connector-curvature="0"
       id="path940"
       d="m 68.713099,82.81628 1.497955,-1.81825 0.514972,-1.347519 -1.079058,-0.77969 0.320394,-1.246964 c 0,0 -1.199623,-0.697812 -1.850595,-0.949543 -0.978964,-0.378484 -1.932033,-0.07041 -2.861005,-0.544529 -0.553155,-0.282202 -0.518469,-0.848548 -1.103878,-1.068601 -0.5997,-0.225652 -2.373765,0.01984 -2.373765,0.01984 0,0 0.757941,0.234285 0.504211,0.585185 -0.207176,0.28699 -0.774201,-0.333454 -1.054933,-0.111156 -0.30276,0.240042 0.255404,0.959849 -0.102133,1.102902 -0.623609,0.248654 -1.259489,-0.166732 -1.259489,-0.166732 0,0 -1.533786,-0.24435 -2.261493,0.283126 -0.38974,0.282201 -1.071634,1.051212 -1.071634,1.051212 0,0 0.784962,-0.685698 1.192663,-0.460407 0.142283,0.07861 0.278154,0.276918 0.211525,0.428306 -0.27183,0.619048 -1.282359,0.568595 -1.959191,0.72554 -0.599657,0.139346 -1.829773,0.183413 -1.829773,0.183413 0,0 1.0216,0.169117 1.085822,0.563668 0.15294,0.941377 -1.503775,1.38388 -2.006431,2.237488 -0.829667,1.408799 -1.734035,3.01537 -1.561785,4.582595 0.110614,1.007209 1.132539,1.674275 1.60882,2.562144 0.391227,0.728437 0.705217,1.4958 1.021693,2.259485 0.170781,0.41682 0.174158,0.929138 0.478112,1.26533 0.344217,0.379916 1.023834,0.35548 1.396521,0.70926 0.385666,0.366501 0.37697,1.026331 0.778818,1.378656 0.33711,0.298485 1.266725,0.5389 1.266725,0.5389 l 1.007273,0.554318 -1.028895,-3.112063 c 0,0 -0.852906,-0.09865 -1.194939,-0.313321 -0.519647,-0.326259 -0.941202,-0.822338 -1.161261,-1.393433 -0.121219,-0.32003 0.287179,-0.634128 0.569423,-0.862765 0.390392,-0.315719 0.902434,-0.50641 1.39244,-0.440291 0.285073,0.03829 0.690109,0.381363 0.690109,0.381363 l 0.757993,1.057483 1.351618,-0.451325 -1.048282,-2.118625 1.085245,-2.629507 -0.445411,-3.075628 c 0,0 1.668213,0.09111 2.486245,-0.07463 1.029272,-0.208425 1.906534,-1.081719 2.949385,-1.135972 0.722707,-0.03829 1.449349,0.220882 2.052032,0.574404 0.430302,0.252489 1.032977,1.056192 1.032977,1.056192 z"
       style="fill:#898989;fill-opacity:1;stroke:none;stroke-width:0.395588;stroke-linecap:butt;stroke-linejoin:miter;stroke-miterlimit:4;stroke-dasharray:none;stroke-opacity:1" />
    <path
       sodipodi:nodetypes="cssscc"
       id="path942"
       d="m 80.133458,170.97003 c 1.492319,2.7039 3.834778,0.98498 6.552556,3.36966 2.052925,1.80132 -4.775405,4.17217 -9.178045,2.55866 -1.230768,-0.45105 -5.878071,0.13263 -6.583469,-0.75785 -2.699823,-3.4081 1.43914,-4.64217 1.43914,-4.64217 z"
       style="fill:#000000;fill-opacity:1;stroke:#000000;stroke-width:0.177042px;stroke-linecap:butt;stroke-linejoin:miter;stroke-opacity:1" />
    <path
       sodipodi:nodetypes="ccscccccac"
       d="m 38.643268,74.991149 c 1.022269,1.397538 1.476514,3.469667 1.476514,3.469667 0,0 0.4648,-2.657103 0.928637,-1.870821 0.46382,0.786287 0.770085,2.888808 0.770085,2.888808 l 0.944614,2.45314 -3.297951,1.809123 -2.986186,-0.794458 c 0,0 -1.666915,-4.760558 -1.470886,-7.439145 0,0 1.100384,-1.069657 1.809234,-1.152448 0.639753,-0.07472 1.825939,0.636134 1.825939,0.636134 z"
       style="fill:#e7e7e7;fill-opacity:1;stroke:#000000;stroke-width:0.173932;stroke-linecap:butt;stroke-linejoin:miter;stroke-miterlimit:4;stroke-dasharray:none;stroke-opacity:1"
       id="path944" />
    <path
       style="fill:#bfbff7;fill-opacity:1;stroke:none;stroke-width:0.177042px;stroke-linecap:butt;stroke-linejoin:miter;stroke-opacity:1"
       d="m 61.258034,97.146856 c 0,0 3.974679,9.303314 4.261256,15.708614 0.286576,6.40527 -2.427651,12.7796 -3.20774,13.58815 -6.876343,7.1271 -15.722593,1.51023 -15.722593,1.51023 0,0 8.591368,4.07031 8.35444,-11.1523 l -0.176419,-11.33418 c 0,0 -3.824971,0.13619 -6.362187,-1.68151 -0.561612,-0.40233 -3.406511,-3.32865 -4.702775,-5.317866 -3.192769,-4.899536 -7.37533,-13.379717 -7.365635,-15.980106 0,0 3.9924,1.727023 5.947749,-2.19571 0,0 3.322787,14.254986 7.771815,16.076111 4.449027,1.821127 11.202089,0.778567 11.202089,0.778567 z"
       id="path946"
       sodipodi:nodetypes="czscscsaccsc" />
    <path
       inkscape:transform-center-y="4.564906"
       inkscape:transform-center-x="-2.1210133"
       style="fill:#000000;fill-opacity:1;stroke:#000000;stroke-width:0.177042px;stroke-linecap:butt;stroke-linejoin:miter;stroke-opacity:1"
       d="m 54.454399,170.19565 c 2.344598,1.97027 5.536246,3.9552 5.536246,3.9552 0.538253,2.68728 -4.301327,1.98693 -7.829392,0.91625 -1.247854,-0.37869 -5.30375,-0.61655 -6.275417,-1.18636 -3.718877,-2.18083 1.186004,-3.81109 1.186004,-3.81109 z"
       id="path950"
       sodipodi:nodetypes="ccsscc" />
    <path
       style="fill:#e7e7e7;fill-opacity:1;stroke:#000000;stroke-width:0.148993;stroke-linecap:butt;stroke-linejoin:miter;stroke-miterlimit:4;stroke-dasharray:none;stroke-opacity:1"
       d="m 199.9849,96.014196 c 0,0 -0.97048,-6.972078 1.0065,-6.671344 1.97698,0.300735 2.04483,4.017397 2.04483,4.017397 0,0 0.66001,-1.8381 0.87248,-1.19965 0.21247,0.638449 0.14716,2.198699 0.14716,2.198699 l 0.3222,1.912885 z"
       id="path1005"
       sodipodi:nodetypes="cscsccc" />
    <g
       id="g1009"
       transform="matrix(0.56642757,0,0,0.58003425,171.64748,76.392277)"
       style="fill:#bfbff7;fill-opacity:1;stroke:none">
      <path
         style="fill:#bfbff7;fill-opacity:1;stroke:none;stroke-width:0.264583px;stroke-linecap:butt;stroke-linejoin:miter;stroke-opacity:1"
         d="m 82.504304,68.59962 c 0,0 -4.79178,1.323243 -8.08595,-0.731886 -4.27387,-2.666331 -12.06191,-13.445479 -12.06191,-13.445479 L 57.937597,33.29353 49.7372,33.693484 c 0,0 0.773594,14.723386 3.872784,24.865602 2.14672,7.025201 14.87179,16.542633 14.87179,16.542633 l -4.10187,18.398035 z"
         id="path1007"
         sodipodi:nodetypes="cscccsccc" />
    </g>
    <g
       id="g1013"
       transform="matrix(0.56642757,0,0,0.58003425,179.57612,76.26257)"
       style="fill:#141a6f;fill-opacity:1;stroke:none">
      <path
         style="fill:#141a6f;fill-opacity:1;stroke:none;stroke-width:0.264583px;stroke-linecap:butt;stroke-linejoin:miter;stroke-opacity:1"
         d="m 45.604152,109.22689 c 0,0 -7.441558,19.09509 -7.694958,30.64522 -0.35041,15.97197 11.880115,37.48062 11.880115,37.48062 l 11.750389,0.7802 c 0,0 -8.377436,-26.13846 -7.519436,-36.50282 0.66701,-8.05731 15.24456,-23.96428 15.24456,-23.96428 l -3.40116,-17.48182 -17.09804,0.12326 z"
         id="path1011"
         sodipodi:nodetypes="csccscccc" />
    </g>
    <g
       id="g1017"
       transform="matrix(0.56642757,0,0,0.58003425,97.757493,72.118591)"
       style="fill:#101084;fill-opacity:1">
      <path
         sodipodi:nodetypes="czccscsccsc"
         id="path1015"
         d="m 222.78151,75.4724 c 0,0 -6.01096,13.739474 -6.44436,23.199025 -0.4334,9.459555 1.98106,18.979045 4.64666,24.498285 9.66092,11.20698 23.98192,-2.20049 23.98192,-2.20049 0,0 -12.99285,6.01116 -12.63453,-16.47007 l 0.2668,-16.738726 c 0,0 5.78455,0.201128 9.62162,-2.483305 3.83706,-2.684436 18.27004,-26.521567 18.25121,-31.453604 0,0 -6.03777,2.550527 -8.99487,-3.242702 0,0 -5.02509,21.052268 -11.75341,23.741773 -6.72832,2.689506 -16.94104,1.149814 -16.94104,1.149814 z"
         style="fill:#000000;fill-opacity:1;stroke:none;stroke-width:0.264583px;stroke-linecap:butt;stroke-linejoin:miter;stroke-opacity:1" />
    </g>
    <g
       id="g1023"
       transform="matrix(0.56642757,0,0,0.58003425,92.307019,75.611349)"
       style="fill:#101559;fill-opacity:1;stroke:none">
      <path
         sodipodi:nodetypes="cscccscc"
         id="path1019"
         d="m 218.06534,112.05836 c 0,0 -12.36792,15.96529 -1.1426,36.01051 11.22532,20.04521 28.68296,32.18266 28.68296,32.18266 l 8.25229,-3.10585 c 0,0 -17.91719,-25.5246 -22.13151,-29.71789 0.0556,-2.30766 -0.52576,-4.95737 -0.11397,-7.58011 1.3736,-8.74867 5.73461,-18.23937 8.55191,-25.72647 z"
         style="fill:#101559;fill-opacity:1;stroke:none;stroke-width:0.264583px;stroke-linecap:butt;stroke-linejoin:miter;stroke-opacity:1" />
      <path
         style="fill:#101559;fill-opacity:1;stroke:none;stroke-width:0.264583px;stroke-linecap:butt;stroke-linejoin:miter;stroke-opacity:1"
         d="m 218.06534,112.05836 c 0,0 -12.36792,15.96529 -1.1426,36.01051 11.22532,20.04521 25.77066,29.26295 25.77066,29.26295 l 11.16459,-0.18614 c 0,0 -17.91719,-25.5246 -22.13151,-29.71789 -2.10615,-10.65677 5.05062,-22.75668 8.43794,-33.30658 z"
         id="path1021"
         sodipodi:nodetypes="csccccc" />
    </g>
    <path
       style="fill:#e7e7e7;fill-opacity:1;stroke:#000000;stroke-width:0.189966;stroke-linecap:butt;stroke-linejoin:miter;stroke-miterlimit:4;stroke-dasharray:none;stroke-opacity:1"
       d="m 225.28245,102.82688 -2.12982,-0.0636 c 0,0 -1.61684,-0.87326 -2.52643,-0.97307 -0.69301,0.0369 -1.20103,0.20643 -1.75771,0.49187 -0.62816,0.47825 -0.96709,0.87198 -1.21494,1.38167 -0.14537,0.84949 -0.29831,1.63164 -0.26283,2.39742 0,0 -0.77983,0.55413 -0.99284,0.96318 -0.21551,0.41372 -0.18953,0.8431 -0.1109,1.38721 -0.0108,0.62102 0.2468,1.28531 0.20063,1.92267 -0.0385,0.53623 -0.33999,1.00205 -0.25282,1.51244 0.0409,0.2327 0.14156,0.49831 0.34713,0.63371 0.5462,0.3595 1.16508,0.615 1.81783,0.78083 l 0.12131,0.16918 -0.68075,3.55256 c 0,0 1.73253,1.88435 2.92186,1.79179 1.39099,-0.1083 3.17898,-2.10658 3.17898,-2.10658 l 0.27189,-1.14745 c 0.57975,-0.58426 1.89848,-1.59382 1.89848,-1.59382 0,0 1.86688,-2.67354 0.88137,-2.66579 -0.84106,0.008 -0.74999,-0.81963 -0.74999,-0.81963 0,0 -0.03,0.52729 0.17984,0.67498 0.29091,0.20479 0.89378,0.44012 1.27274,0.33095 0.61285,-0.17565 0.98382,-0.95003 1.25633,-1.65515 0.0976,-0.25445 -0.29322,-0.61573 -0.29322,-0.61573 -0.36881,-0.3665 -1.02077,-0.552 -1.51315,-0.42072 -0.5205,0.13994 -0.82743,0.6864 -0.82743,0.6864 l -1.38531,0.0852 0.89798,-1.81487 -0.92967,-2.25238 z"
       id="path1025"
       inkscape:connector-curvature="0"
       sodipodi:nodetypes="ccccccscscccccscccscccccsccccc" />
    <path
       style="fill:#dddff9;fill-opacity:1;stroke:none;stroke-width:0.156435px;stroke-linecap:butt;stroke-linejoin:miter;stroke-opacity:1"
       d="m 218.19661,116.26128 c 0,0 -5.45402,-0.5292 -7.88805,7.68709 -2.43405,8.2163 -4.90091,15.66954 -4.90091,15.66954 0,0 8.56373,4.19862 15.65626,3.36634 7.09253,-0.83226 7.27893,-1.17867 7.27893,-1.17867 0,0 -5.14368,-9.49343 -3.84003,-17.25165 1.30366,-7.75823 1.06563,-7.88362 1.06563,-7.88362 l -2.48424,-0.75714 z"
       id="path1027" />
    <path
       style="fill:#898989;fill-opacity:1;stroke:none;stroke-width:0.338866;stroke-linecap:butt;stroke-linejoin:miter;stroke-miterlimit:4;stroke-dasharray:none;stroke-opacity:1"
       d="m 217.56103,103.61938 -1.28318,-1.55755 -0.44114,-1.1543 0.92434,-0.66789 -0.27445,-1.068174 c 0,0 1.02762,-0.597748 1.58524,-0.813387 0.8386,-0.324217 1.65502,-0.06035 2.45079,-0.466457 0.47385,-0.241735 0.44412,-0.726876 0.9456,-0.915377 0.51371,-0.193296 2.03341,0.01699 2.03341,0.01699 0,0 -0.64927,0.200692 -0.43193,0.501279 0.17748,0.245839 0.6632,-0.285643 0.90368,-0.09521 0.25934,0.205623 -0.21878,0.822224 0.0875,0.944758 0.53419,0.213009 1.07889,-0.142821 1.07889,-0.142821 0,0 1.31387,-0.209318 1.93724,0.242531 0.33385,0.241736 0.91797,0.900486 0.91797,0.900486 0,0 -0.67241,-0.587381 -1.02165,-0.394394 -0.12188,0.06738 -0.23827,0.23721 -0.1812,0.36689 0.23286,0.530294 1.0985,0.48707 1.67827,0.621512 0.51368,0.119364 1.56742,0.157114 1.56742,0.157114 0,0 -0.87511,0.14487 -0.93013,0.48285 -0.13102,0.80639 1.28815,1.18545 1.71874,1.91667 0.71069,1.20679 1.48539,2.58301 1.33784,3.92552 -0.0948,0.86278 -0.97015,1.4342 -1.37814,2.19477 -0.33513,0.62399 -0.6041,1.28132 -0.87519,1.93551 -0.14629,0.35705 -0.1492,0.79591 -0.40956,1.0839 -0.29486,0.32544 -0.87703,0.30451 -1.19628,0.60756 -0.33037,0.31394 -0.32292,0.87917 -0.66715,1.18097 -0.28878,0.25569 -1.0851,0.46164 -1.0851,0.46164 l -0.86284,0.47484 0.88136,-2.66585 c 0,0 0.73063,-0.0845 1.02361,-0.26839 0.44514,-0.27948 0.80625,-0.70443 0.99474,-1.19364 0.10385,-0.27414 -0.24599,-0.5432 -0.48777,-0.73905 -0.33441,-0.27045 -0.77304,-0.43381 -1.19278,-0.37717 -0.2442,0.0328 -0.59116,0.32669 -0.59116,0.32669 l -0.64931,0.90586 -1.15782,-0.38662 0.89798,-1.81485 -0.92963,-2.25247 0.38153,-2.63463 c 0,0 -1.42901,0.0781 -2.12974,-0.0639 -0.88169,-0.17854 -1.63317,-0.92662 -2.52649,-0.97309 -0.61909,-0.0328 -1.24153,0.18921 -1.7578,0.49204 -0.36861,0.21629 -0.88487,0.90476 -0.88487,0.90476 z"
       id="path1029"
       inkscape:connector-curvature="0"
       sodipodi:nodetypes="cccccssscssscscssscsssssssscccssssccccccssscc" />
    <path
       style="fill:#000000;fill-opacity:1;stroke:#000000;stroke-width:0.151656px;stroke-linecap:butt;stroke-linejoin:miter;stroke-opacity:1"
       d="m 207.77816,179.13323 c -1.27833,2.3162 -3.28492,0.84375 -5.61301,2.88651 -1.75858,1.54303 4.09068,3.57394 7.86205,2.19177 1.0543,-0.38637 5.03525,0.11362 5.6395,-0.64917 2.31272,-2.91944 -1.23279,-3.97657 -1.23279,-3.97657 z"
       id="path1031"
       sodipodi:nodetypes="cssscc" />
    <path
       id="path1033"
       style="fill:#e7e7e7;fill-opacity:1;stroke:#000000;stroke-width:0.148993;stroke-linecap:butt;stroke-linejoin:miter;stroke-miterlimit:4;stroke-dasharray:none;stroke-opacity:1"
       d="m 243.3193,96.916252 c -0.87569,1.197156 -1.26481,2.972174 -1.26481,2.972174 0,0 -0.39815,-2.276119 -0.79548,-1.602573 -0.39732,0.673543 -0.65967,2.474597 -0.65967,2.474597 l -0.80917,2.1014 2.82507,1.54971 2.55802,-0.68054 c 0,0 1.42791,-4.077968 1.25999,-6.372485 0,0 -0.94261,-0.916285 -1.54983,-0.987205 -0.54802,-0.06401 -1.56412,0.544922 -1.56412,0.544922 z"
       sodipodi:nodetypes="ccscccccac" />
    <path
       sodipodi:nodetypes="czscscsaccsc"
       id="path1035"
       d="m 223.94714,115.89517 c 0,0 -3.40477,7.96937 -3.65026,13.45624 -0.24548,5.48685 2.07957,10.9472 2.7478,11.63982 5.89038,6.10518 13.46822,1.29368 13.46822,1.29368 0,0 -7.3595,3.48669 -7.15654,-9.55322 l 0.15113,-9.70904 c 0,0 3.27652,0.11667 5.44993,-1.44041 0.4811,-0.34464 2.91808,-2.85136 4.02847,-4.55536 2.73497,-4.19702 6.31782,-11.46127 6.30952,-13.68881 0,0 -3.41995,1.4794 -5.09493,-1.88088 0,0 -2.84635,12.21104 -6.65745,13.77105 -3.81111,1.56001 -9.59589,0.66693 -9.59589,0.66693 z"
       style="fill:#bfbff7;fill-opacity:1;stroke:none;stroke-width:0.151656px;stroke-linecap:butt;stroke-linejoin:miter;stroke-opacity:1" />
    <path
       sodipodi:nodetypes="ccsscc"
       id="path1037"
       d="m 229.77524,178.46988 c -2.00841,1.68777 -4.74243,3.38808 -4.74243,3.38808 -0.46108,2.30197 3.68458,1.70204 6.70678,0.78489 1.06892,-0.3244 4.54327,-0.52815 5.37561,-1.01626 3.18565,-1.86814 -1.01594,-3.26464 -1.01594,-3.26464 z"
       style="fill:#000000;fill-opacity:1;stroke:#000000;stroke-width:0.151656px;stroke-linecap:butt;stroke-linejoin:miter;stroke-opacity:1"
       inkscape:transform-center-x="1.8168935"
       inkscape:transform-center-y="3.910368" />
  </g>
</svg>
