<?xml version="1.0" encoding="iso-8859-1"?>
<!-- Generator: Adobe Illustrator 22.1.0, SVG Export Plug-In . SVG Version: 6.00 Build 0)  -->
<svg version="1.1" id="Calque_1" xmlns="http://www.w3.org/2000/svg" xmlns:xlink="http://www.w3.org/1999/xlink" x="0px" y="0px"
	 viewBox="0 0 1050 1050" style="enable-background:new 0 0 1050 1050;" xml:space="preserve">
<g>
	<g>
		<path style="fill:#C2D9FF;" d="M525,421c57.346,0,104,46.654,104,104s-46.654,104-104,104s-104-46.654-104-104
			S467.654,421,525,421 M525,420c-57.99,0-105,47.01-105,105s47.01,105,105,105s105-47.01,105-105S582.99,420,525,420L525,420z"/>
	</g>
	<g>
		<path style="fill:#C2D9FF;" d="M525,221c41.04,0,80.852,8.038,118.33,23.889c36.2,15.311,68.711,37.231,96.63,65.15
			c27.919,27.919,49.839,60.43,65.15,96.63C820.962,444.148,829,483.96,829,525s-8.038,80.852-23.889,118.33
			c-15.311,36.2-37.231,68.711-65.15,96.63c-27.919,27.919-60.43,49.839-96.63,65.15C605.852,820.962,566.04,829,525,829
			s-80.852-8.038-118.33-23.889c-36.2-15.311-68.711-37.231-96.63-65.15c-27.919-27.919-49.839-60.43-65.15-96.63
			C229.038,605.852,221,566.04,221,525s8.038-80.852,23.889-118.33c15.311-36.2,37.231-68.711,65.15-96.63
			c27.919-27.919,60.43-49.839,96.63-65.15C444.148,229.038,483.96,221,525,221 M525,220c-168.447,0-305,136.553-305,305
			s136.553,305,305,305s305-136.553,305-305S693.447,220,525,220L525,220z"/>
	</g>
	<g>
		<path style="fill:#C2D9FF;" d="M525,1c70.74,0,139.363,13.854,203.964,41.178c62.397,26.392,118.436,64.174,166.56,112.298
			c48.123,48.124,85.906,104.162,112.298,166.56C1035.146,385.637,1049,454.26,1049,525s-13.854,139.363-41.178,203.964
			c-26.392,62.397-64.174,118.436-112.298,166.56c-48.124,48.123-104.162,85.906-166.56,112.298
			C664.363,1035.146,595.74,1049,525,1049s-139.363-13.854-203.964-41.178c-62.397-26.392-118.436-64.174-166.56-112.298
			C106.353,847.4,68.57,791.362,42.178,728.964C14.854,664.363,1,595.74,1,525s13.854-139.363,41.178-203.964
			c26.392-62.397,64.174-118.436,112.298-166.56C202.6,106.353,258.638,68.57,321.036,42.178C385.637,14.854,454.26,1,525,1 M525,0
			C235.051,0,0,235.051,0,525s235.051,525,525,525s525-235.051,525-525S814.949,0,525,0L525,0z"/>
	</g>
</g>
</svg>
