<?xml version="1.0" encoding="UTF-8" standalone="no"?>
<svg
   xmlns:dc="http://purl.org/dc/elements/1.1/"
   xmlns:cc="http://creativecommons.org/ns#"
   xmlns:rdf="http://www.w3.org/1999/02/22-rdf-syntax-ns#"
   xmlns:svg="http://www.w3.org/2000/svg"
   xmlns="http://www.w3.org/2000/svg"
   xmlns:sodipodi="http://sodipodi.sourceforge.net/DTD/sodipodi-0.dtd"
   xmlns:inkscape="http://www.inkscape.org/namespaces/inkscape"
   width="297mm"
   height="210mm"
   viewBox="0 0 297 210"
   version="1.1"
   id="svg8"
   inkscape:version="1.0 (5b275a35d9, 2020-05-03)"
   sodipodi:docname="omkar_stand.svg">
  <defs
     id="defs2" />
  <sodipodi:namedview
     showborder="true"
     id="base"
     pagecolor="#ffffff"
     bordercolor="#666666"
     borderopacity="1.0"
     inkscape:pageopacity="0.0"
     inkscape:pageshadow="2"
     inkscape:zoom="0.5"
     inkscape:cx="506.6878"
     inkscape:cy="391.1177"
     inkscape:document-units="mm"
     inkscape:current-layer="layer1"
     inkscape:document-rotation="0"
     showgrid="false"
     inkscape:window-width="1600"
     inkscape:window-height="813"
     inkscape:window-x="0"
     inkscape:window-y="1080"
     inkscape:window-maximized="1" />
  <metadata
     id="metadata5">
    <rdf:RDF>
      <cc:Work
         rdf:about="">
        <dc:format>image/svg+xml</dc:format>
        <dc:type
           rdf:resource="http://purl.org/dc/dcmitype/StillImage" />
        <dc:title />
      </cc:Work>
    </rdf:RDF>
  </metadata>
  <g
     inkscape:label="Layer 1"
     inkscape:groupmode="layer"
     id="layer1">
    <path
       id="path863"
       style="opacity:1;fill:#dea074;fill-opacity:1;stroke:none;stroke-width:0.273412;stroke-linecap:butt;stroke-linejoin:miter;stroke-miterlimit:4;stroke-dasharray:none;stroke-opacity:1"
       d="m 61.580902,12.39016 c 0,0 -1.460853,0.967449 -1.751403,1.877323 -0.612228,0.807148 -0.524092,1.742772 -0.665693,2.60113 -0.112754,0.683568 -0.339701,1.628334 -0.972999,2.016442 -0.501009,0.307036 -1.079548,1.135025 -1.079548,1.135025 0,0 -0.516247,2.955109 -0.412095,4.541849 0.138054,2.102089 0.05124,4.236456 0.464925,6.30206 0.200745,1.002369 0.478493,2.013549 0.969483,2.910197 0.701013,1.28023 1.731514,2.359965 2.749937,3.406827 L 59.763458,57.75494 76.249619,58.327597 75.696032,36.68527 c 0.18407,-0.158894 0.35619,-0.320582 0.495746,-0.487827 0.97535,-1.168794 1.37583,-2.72673 1.874683,-4.164973 0.393397,-1.134213 0.615485,-2.321367 0.872617,-3.494001 0.367605,-1.676409 0.78371,-3.351266 0.957153,-5.05873 0.140885,-1.386901 0.484236,-2.852394 0.06427,-4.181705 -0.192172,-0.608393 -0.113801,-0.127045 -1.123577,-1.549758 -1.009734,-1.4227 -2.564351,-2.432435 -2.436468,-3.310848 0.0597,-0.409907 0.09599,-0.571539 0.119754,-0.641039 -0.18466,0.178266 -1.974242,1.775515 -6.513392,1.30233 -4.801955,-0.500595 -8.223148,-2.737861 -8.42593,-2.708559 z m 14.939322,1.406229 c 0.01081,-0.0104 0.03698,-0.03434 0.03698,-0.03434 0,0 -0.01,-0.04509 -0.03698,0.03434 z"
       sodipodi:nodetypes="ccssccsscccccsssssscsscccc" />
    <g
       id="g1506"
       transform="matrix(1.3970294,0,0,1.3970294,-53.799506,-27.448298)">
      <path
         sodipodi:nodetypes="ccccc"
         d="m 87.848254,101.33917 114.079336,-0.44597 8.90057,9.86617 H 75.579559 Z"
         style="fill:#e2e6e7;fill-opacity:0.959733;stroke-width:0.162"
         id="rect833" />
      <rect
         y="110.75937"
         x="75.579559"
         height="4.3717585"
         width="135.31148"
         id="rect836"
         style="fill:#bfc8c9;fill-opacity:0.959733;stroke-width:0.162" />
      <rect
         y="115.13113"
         x="75.579559"
         height="39.862492"
         width="24.67568"
         id="rect838"
         style="fill:#e2e6e7;fill-opacity:0.959733;stroke-width:0.162" />
      <rect
         style="fill:#e2e6e7;fill-opacity:0.959733;stroke-width:0.162"
         id="rect840"
         width="24.67568"
         height="39.862492"
         x="186.21536"
         y="115.13113" />
      <path
         sodipodi:nodetypes="ccccc"
         id="path842"
         d="m 100.25524,115.13113 v 39.86249 l 6.73424,-9.91852 -0.0246,-29.93044 z"
         style="fill:#bfc8c9;fill-opacity:0.959733;stroke:none;stroke-width:0.264583px;stroke-linecap:butt;stroke-linejoin:miter;stroke-opacity:1" />
      <path
         sodipodi:nodetypes="ccccc"
         style="fill:#bfc8c9;fill-opacity:0.959733;stroke:none;stroke-width:0.264583px;stroke-linecap:butt;stroke-linejoin:miter;stroke-opacity:1"
         d="m 186.21536,115.1176 v 39.86249 l -7.29138,-11.58516 0.10967,-28.88258 z"
         id="path844" />
      <path
         sodipodi:nodetypes="ccccc"
         id="path864"
         d="m 84.5703,123.13042 -1.99884,-1.69423 10.8022,-0.14713 -2.16004,1.78565 z"
         style="fill:#000000;fill-opacity:0.960784;stroke:#000000;stroke-width:0.106125px;stroke-linecap:butt;stroke-linejoin:miter;stroke-opacity:1" />
      <path
         style="fill:#000000;fill-opacity:0.960784;stroke:#000000;stroke-width:0.106125px;stroke-linecap:butt;stroke-linejoin:miter;stroke-opacity:1"
         d="m 84.687145,131.17114 -1.99884,-1.69423 10.8022,-0.14713 -2.16004,1.78565 z"
         id="path866"
         sodipodi:nodetypes="ccccc" />
      <path
         sodipodi:nodetypes="ccccc"
         id="path868"
         d="m 84.756105,143.22971 -1.99884,-1.69423 10.8022,-0.14713 -2.16004,1.78565 z"
         style="fill:#000000;fill-opacity:0.960784;stroke:#000000;stroke-width:0.106125px;stroke-linecap:butt;stroke-linejoin:miter;stroke-opacity:1" />
      <path
         style="fill:#000000;fill-opacity:0.960784;stroke:#000000;stroke-width:0.106125px;stroke-linecap:butt;stroke-linejoin:miter;stroke-opacity:1"
         d="m 194.97891,122.22684 -1.99884,-1.69423 10.8022,-0.14713 -2.16004,1.78565 z"
         id="path870"
         sodipodi:nodetypes="ccccc" />
      <path
         sodipodi:nodetypes="ccccc"
         id="path872"
         d="m 194.84662,130.12642 -1.99884,-1.69423 10.8022,-0.14713 -2.16004,1.78565 z"
         style="fill:#000000;fill-opacity:0.960784;stroke:#000000;stroke-width:0.106125px;stroke-linecap:butt;stroke-linejoin:miter;stroke-opacity:1" />
      <path
         style="fill:#000000;fill-opacity:0.960784;stroke:#000000;stroke-width:0.106125px;stroke-linecap:butt;stroke-linejoin:miter;stroke-opacity:1"
         d="m 195.1733,137.59528 -1.99884,-1.69423 10.8022,-0.14713 -2.16004,1.78565 z"
         id="path874"
         sodipodi:nodetypes="ccccc" />
      <path
         sodipodi:nodetypes="ccccc"
         id="path876"
         d="m 195.43788,146.44967 -1.99884,-1.69423 10.8022,-0.14713 -2.16004,1.78565 z"
         style="fill:#000000;fill-opacity:0.960784;stroke:#000000;stroke-width:0.106125px;stroke-linecap:butt;stroke-linejoin:miter;stroke-opacity:1" />
    </g>
    <path
       style="fill:#dea074;fill-opacity:1;stroke:none;stroke-width:0.36963px;stroke-linecap:butt;stroke-linejoin:miter;stroke-opacity:1"
       d="m 54.3825,189.99959 0.460888,13.2438 13.471251,-0.56909 -1.329499,-13.76191 z"
       id="path1512" />
    <path
       id="path1514"
       d="m 104.6994,160.71828 6.04052,17.24091 7.89163,-4.56618 -1.32951,-13.76192 z"
       style="fill:#dea074;fill-opacity:1;stroke:none;stroke-width:0.36963px;stroke-linecap:butt;stroke-linejoin:miter;stroke-opacity:1"
       sodipodi:nodetypes="ccccc" />
    <path
       style="fill:#2c3152;fill-opacity:1;stroke:none;stroke-width:0.479048px;stroke-linecap:butt;stroke-linejoin:miter;stroke-opacity:1"
       d="m 43.96044,119.75772 c 0,0 2.458903,27.80301 5.541651,41.37059 2.340712,10.30174 3.668904,31.88315 3.668904,31.88315 0,0 12.756488,2.30487 16.066661,-1.50412 0.676773,-0.77875 -1.084975,-2.08601 -1.124973,-3.11699 l -1.204782,-31.04574 -1.410137,-18.60373 5.917344,-9.09844 20.989627,0.49877 11.620875,26.45437 c 0,0 -2.90951,5.23973 -2.10844,6.43919 3.03522,4.54456 13.91331,5.40547 17.04853,0.66059 0.59466,-0.89995 0.24858,-1.36538 -0.26977,-1.82063 -0.57461,-0.50466 -1.38532,-1.24093 -1.88903,-7.82612 -0.72439,-9.47014 -3.03327,-20.451 -4.46702,-30.68832 -0.18868,-1.34723 0.23496,-2.92953 -0.5442,-4.04467 -0.81313,-1.16377 -2.63257,-2.45154 -3.91449,-3.06168 L 83.165022,98.322236 Z"
       id="path1491"
       sodipodi:nodetypes="cscsscccccssssasscc" />
    <path
       style="fill:#7779f3;fill-opacity:1;stroke:none;stroke-width:0.517723px;stroke-linecap:butt;stroke-linejoin:miter;stroke-opacity:1"
       d="m 62.398844,46.472055 c 0,0 5.929775,1.514762 9.870736,-0.162386 3.94096,-1.677137 4.254608,-1.46112 4.254608,-1.46112 l 6.640834,53.473687 c 0,0 -6.908974,15.806114 -17.724415,15.806114 H 54.435529 Z"
       id="path1477"
       sodipodi:nodetypes="csccscc" />
    <path
       style="fill:#2c3152;fill-opacity:1;stroke:none;stroke-width:0.450839px;stroke-linecap:butt;stroke-linejoin:miter;stroke-opacity:1"
       d="m 63.216127,43.089971 c 0,0 -2.604266,-8.624679 -5.06326,-6.477802 -1.506063,1.314903 -1.458762,3.055027 -6.677461,3.775125 -5.218698,0.720104 -11.028139,4.096819 -11.028139,4.096819 0,0 -6.217478,5.561727 -6.263031,12.122456 -0.08641,12.448105 -3.995534,37.130856 -3.995534,37.130856 L 45.367951,83.4309 c 0,0 -4.858375,6.291384 -4.381344,19.85772 0.482486,13.7214 0.590888,20.71925 0.590888,20.71925 l 26.19014,-6.04124 c 0,0 -9.607485,-15.84528 -7.804129,-35.587875 1.803358,-19.742585 7.698437,-20.359042 3.252621,-39.288784 z"
       id="path1473"
       sodipodi:nodetypes="csscsccsccsc" />
    <path
       style="fill:#2c3152;fill-opacity:1;stroke:none;stroke-width:0.450839px;stroke-linecap:butt;stroke-linejoin:miter;stroke-opacity:1"
       d="m 75.671618,37.987942 c 0,0 0.665488,17.460265 0.209371,34.394017 -0.457266,16.976398 4.502059,34.061861 5.776511,36.851761 1.27445,2.78993 0.668621,2.00255 0.668621,2.00255 0,0 14.378334,1.88105 16.309719,-2.97025 1.93136,-4.8513 -7.171977,-12.366887 -7.171977,-12.366887 0,0 -8.924538,-13.716111 -7.797443,-22.61452 1.127098,-8.898393 0.97573,-9.199311 0.97573,-9.199311 0,0 3.801755,10.714794 2.713567,17.241328 -1.088203,6.526517 0.525116,6.357979 0.525116,6.357979 0,0 3.006742,-3.140378 6.549803,-1.088438 3.54304,2.05194 3.865575,2.998846 3.865575,2.998846 0,0 2.640979,-14.136038 1.291159,-24.81728 C 98.170182,53.563466 93.381105,45.584128 91.239403,44.909149 89.097701,44.234171 75.671618,37.987942 75.671618,37.987942 Z"
       id="path1475"
       sodipodi:nodetypes="csscscscscscssc" />
    <path
       sodipodi:nodetypes="casssssccccsscacasssssssscccccacsscasacc"
       inkscape:connector-curvature="0"
       id="path865"
       d="m 56.776193,26.295842 c 0,0 -0.275361,-1.922635 -0.705409,-2.77449 -0.376009,-0.744797 -1.262225,-1.167566 -1.58562,-1.936675 -0.699884,-1.664485 -0.650704,-3.579413 -0.594752,-5.384195 0.07401,-2.386277 1.529424,-4.688522 1.225887,-7.0565776 -0.04422,-0.3446613 -0.430541,-0.2244499 -0.431691,-0.9488503 -10e-4,-0.7244067 -0.08912,-0.6235833 -0.03045,-0.9271975 0.143983,-0.7449742 -0.160615,-1.4975982 0.917265,-2.083285 1.077887,-0.5857022 1.155965,-0.5412435 1.155965,-0.5412435 0,0 -0.932537,0.8752171 -0.81319,1.6462491 0.119363,0.7710394 0.286358,0.6593257 0.286358,0.6593257 0,0 0.96705,-3.0061739 1.430087,-3.3835829 0.463022,-0.377434 1.913861,-1.9087989 2.821578,-1.5781194 0.907705,0.3306783 1.80242,0.9021067 1.80242,0.9021067 0,0 0.524747,-1.232138 1.085404,-1.4705983 0.642827,-0.273424 2.077805,0.2731066 2.077805,0.2731066 0,0 0.899735,-0.91256074 1.471499,-1.16808016 0.82768,-0.36986084 1.790991,-0.63302632 2.680688,-0.45893541 0.764792,0.14962464 1.380525,0.74297393 1.985729,1.23391237 0.684401,0.5552019 1.237486,1.6764369 1.828532,1.9095395 0.591042,0.2331014 1.667053,-0.1767689 2.45193,0.05183 1.225466,0.356962 3.014824,0.8065703 3.27302,1.9874949 0.258196,1.1809485 1.703777,1.8576755 2.503136,2.8312658 0.970774,1.1823687 2.222018,2.2269674 2.780824,3.6510774 0.618595,1.576499 1.307039,3.370336 0.491702,5.056714 -0.815359,1.686378 -2.439235,4.093706 -2.439235,4.093706 0,0 -1.621027,2.447725 -1.977692,3.836927 -0.356658,1.389205 -1.049605,1.553022 -1.049605,1.553022 v 0 l 0.25638,-6.988185 c 0,0 -2.874876,-2.734997 -3.28992,-4.563845 -0.0717,-0.315933 0.172325,-0.956496 0.172325,-0.956496 0,0 -2.436509,2.645166 -6.608447,1.655437 -4.171937,-0.98974 -2.881957,-0.502859 -4.252186,-0.99407 -1.440357,-0.516365 -4.115627,-2.032974 -4.115627,-2.032974 0,0 -1.669078,2.053042 -2.147995,3.264358 -0.252895,0.639645 -0.09511,1.394989 -0.351207,2.033363 -0.360053,0.897554 -1.161528,1.555483 -1.61887,2.407597 -0.22838,0.425523 -0.555107,1.338245 -0.555107,1.338245 z"
       style="fill:#000000;fill-opacity:1;stroke:none;stroke-width:0.272982px;stroke-linecap:butt;stroke-linejoin:miter;stroke-opacity:1" />
    <path
       style="fill:#dea074;fill-opacity:1;stroke:none;stroke-width:0.40766px;stroke-linecap:butt;stroke-linejoin:miter;stroke-opacity:1"
       d="m 32.667257,92.010479 11.923126,21.908561 c 0,0 5.86932,8.88199 10.53999,9.33024 1.956888,0.18782 4.401533,-1.15235 5.078874,-2.99786 0.782468,-2.13194 -0.812212,-4.66536 -2.233814,-6.43639 -1.188562,-1.48068 -3.629823,-3.39505 -4.84994,-2.98736 -1.220119,0.4077 -9.287085,-26.395578 -9.287085,-26.395578 z"
       id="path1487"
       sodipodi:nodetypes="ccaaascc" />
    <path
       sodipodi:nodetypes="ccaaascssc"
       id="path1489"
       d="M 98.296211,89.595017 88.196086,106.88439 c 0,0 -4.409312,8.2877 -8.448424,8.84704 -1.679558,0.2326 -3.706129,-1.03001 -4.380565,-2.58568 -0.756123,-1.74412 0.138238,-4.01798 1.241314,-5.56614 0.9503,-1.33378 3.130746,-2.92828 4.183106,-2.57664 1.05236,0.35165 7.697931,-17.894653 7.697931,-17.894653 0,0 2.69012,-1.426599 3.701011,-1.280461 0.592074,0.08559 1.948828,0.585819 3.161728,1.381739 1.571962,1.031549 2.944024,2.385422 2.944024,2.385422 z"
       style="fill:#dea074;fill-opacity:1;stroke:none;stroke-width:0.35161px;stroke-linecap:butt;stroke-linejoin:miter;stroke-opacity:1" />
    <path
       style="fill:#000000;fill-opacity:1;stroke:#000000;stroke-width:0.394918px;stroke-linecap:butt;stroke-linejoin:miter;stroke-opacity:1"
       d="m 108.60915,177.50389 c 0,0 -2.60323,-4.58491 0.73074,-5.66121 3.33397,-1.07631 7.97308,-3.34607 9.66918,-1.26632 3.03824,3.72548 4.94969,4.36229 8.61921,7.38413 0.79203,2.44323 -1.28402,4.45445 -2.54211,5.20745 -6.7476,1.61219 -11.64802,-2.26704 -15.55252,-4.27804 z"
       id="path1527"
       sodipodi:nodetypes="csscccc" />
    <path
       sodipodi:nodetypes="csssccc"
       id="path1529"
       d="m 45.104868,205.75252 c 0,0 -2.228793,-3.72755 0.891696,-4.73493 3.120475,-1.00737 8.450602,-2.8131 10.953716,-2.60378 2.822864,0.23607 9.41869,0.12 11.329336,0.34845 1.910634,0.22853 2.150885,3.84991 1.328943,5.57416 -3.316881,1.75511 -13.918908,4.32841 -17.705328,4.49247 -2.485469,-0.0966 -5.492365,-0.98618 -6.798363,-3.07637 z"
       style="fill:#000000;fill-opacity:1;stroke:#000000;stroke-width:0.36963px;stroke-linecap:butt;stroke-linejoin:miter;stroke-opacity:1" />
    <g
       id="g1556"
       transform="matrix(1.3970294,0,0,1.3970294,-53.799506,-31.144605)">
      <g
         transform="translate(2.3296204,2.6333961)"
         id="g1546">
        <rect
           style="opacity:1;fill:#2c3152;fill-opacity:1;stroke:none;stroke-width:0.162"
           id="rect1531"
           width="66.375473"
           height="43.556911"
           x="132.51106"
           y="46.820438"
           ry="2.1062977" />
        <path
           id="rect1535"
           style="opacity:1;fill:#2c3152;fill-opacity:1;stroke:none;stroke-width:0.127587"
           d="m 159.32255,88.968118 h 12.77341 c 0.68782,0 1.08812,0.662598 1.24156,1.440554 l 1.43653,7.283388 c 0.15344,0.777957 -1.99027,0.540818 -2.67809,0.540818 h -12.77341 c -0.68783,0 -2.70099,0.291835 -2.5605,-0.48941 l 1.31893,-7.334796 c 0.14049,-0.781244 0.55374,-1.440554 1.24157,-1.440554 z"
           sodipodi:nodetypes="sssssssss" />
        <path
           id="rect1538"
           style="opacity:1;fill:#2c3152;fill-opacity:1;stroke:none;stroke-width:0.136048"
           d="m 153.48311,98.114764 h 24.36545 c 2.05753,0.399283 3.0519,2.303826 3.89712,3.568446 0.49755,0.74441 -2.73024,0.51843 -3.89712,0.51843 h -24.36545 c -1.16689,0 -4.7867,0.18451 -4.13149,-0.49648 1.04044,-0.95267 2.98029,-3.560443 4.13149,-3.590396 z"
           sodipodi:nodetypes="cccsscc" />
      </g>
      <rect
         style="opacity:1;fill:#f4f4f8;fill-opacity:1;stroke:none;stroke-width:0.13975"
         id="rect1533"
         width="61.269115"
         height="35.115112"
         x="137.48531"
         y="51.718266"
         ry="1.6980746" />
      <ellipse
         ry="2.7516468"
         rx="2.8235557"
         cy="92.184143"
         cx="168.21866"
         id="path1548"
         style="opacity:1;fill:#f4f4f8;fill-opacity:1;stroke:none;stroke-width:0.162" />
    </g>
    <path
       id="rect1558"
       style="opacity:1;fill:#2c3152;fill-opacity:1;stroke:none;stroke-width:0.162131"
       d="m 136.02071,117.99757 55.07504,0.0389 3.01576,6.47136 h -61.43153 z"
       sodipodi:nodetypes="ccccc" />
    <ellipse
       style="opacity:1;fill:#2c3152;fill-opacity:1;stroke:none;stroke-width:0.100428"
       id="path1561"
       cx="269.42621"
       cy="74.072571"
       rx="6.2559328"
       ry="3.7595012"
       transform="matrix(0.9654313,0.26065764,-0.7318941,0.68141839,0,0)" />
    <ellipse
       style="opacity:1;fill:#f4f4f8;fill-opacity:1;stroke:none;stroke-width:0.165793"
       id="path1563"
       cx="208.42851"
       cy="120.41066"
       rx="1.6420152"
       ry="1.0760947" />
    <rect
       style="opacity:1;fill:#7779f3;fill-opacity:1;stroke:none;stroke-width:0.121063"
       id="rect1565"
       width="20.738213"
       height="2.122139"
       x="170.83337"
       y="60.926502" />
    <rect
       y="72.669167"
       x="150.68352"
       height="2.122139"
       width="20.738213"
       id="rect1567"
       style="opacity:1;fill:#7779f3;fill-opacity:1;stroke:none;stroke-width:0.121063" />
    <rect
       y="66.352676"
       x="150.56274"
       height="2.122139"
       width="62.872845"
       id="rect1569"
       style="opacity:1;fill:#7779f3;fill-opacity:1;stroke:none;stroke-width:0.210793" />
    <rect
       style="opacity:1;fill:#7779f3;fill-opacity:1;stroke:none;stroke-width:0.169577"
       id="rect1571"
       width="40.689827"
       height="2.122139"
       x="172.26544"
       y="49.590298" />
    <rect
       style="opacity:1;fill:#7779f3;fill-opacity:1;stroke:none;stroke-width:0.121063"
       id="rect1573"
       width="20.738213"
       height="2.122139"
       x="173.97952"
       y="55.127968" />
    <rect
       y="54.815483"
       x="197.21039"
       height="2.122139"
       width="16.188227"
       id="rect1575"
       style="opacity:1;fill:#7779f3;fill-opacity:1;stroke:none;stroke-width:0.106961" />
    <rect
       y="60.932648"
       x="194.03334"
       height="2.122139"
       width="11.17244"
       id="rect1577"
       style="opacity:1;fill:#7779f3;fill-opacity:1;stroke:none;stroke-width:0.0888582" />
    <rect
       style="opacity:1;fill:#7779f3;fill-opacity:1;stroke:none;stroke-width:0.0638785"
       id="rect1579"
       width="5.7737889"
       height="2.122139"
       x="207.26567"
       y="60.769188" />
    <rect
       style="opacity:1;fill:#7779f3;fill-opacity:1;stroke:none;stroke-width:0.106961"
       id="rect1581"
       width="16.188227"
       height="2.122139"
       x="150.80464"
       y="60.859165" />
    <rect
       y="72.458099"
       x="174.44525"
       height="2.122139"
       width="5.7737889"
       id="rect1583"
       style="opacity:1;fill:#7779f3;fill-opacity:1;stroke:none;stroke-width:0.0638785" />
    <rect
       style="opacity:1;fill:#7779f3;fill-opacity:1;stroke:none;stroke-width:0.0638785"
       id="rect1585"
       width="5.7737889"
       height="2.122139"
       x="198.14038"
       y="72.321335" />
    <rect
       y="72.454369"
       x="190.18648"
       height="2.122139"
       width="5.7737889"
       id="rect1587"
       style="opacity:1;fill:#7779f3;fill-opacity:1;stroke:none;stroke-width:0.0638785" />
    <rect
       style="opacity:1;fill:#7779f3;fill-opacity:1;stroke:none;stroke-width:0.0638785"
       id="rect1589"
       width="5.7737889"
       height="2.122139"
       x="182.80417"
       y="72.51754" />
    <rect
       y="72.528053"
       x="206.65738"
       height="2.122139"
       width="5.7737889"
       id="rect1591"
       style="opacity:1;fill:#7779f3;fill-opacity:1;stroke:none;stroke-width:0.0638785" />
    <rect
       style="opacity:1;fill:#7779f3;fill-opacity:1;stroke:none;stroke-width:0.358662"
       id="rect1593"
       width="20.052183"
       height="6.7607465"
       x="150.28821"
       y="49.734306" />
  </g>
</svg>
