<?xml version="1.0" encoding="UTF-8" standalone="no"?>
<svg
   xmlns:dc="http://purl.org/dc/elements/1.1/"
   xmlns:cc="http://creativecommons.org/ns#"
   xmlns:rdf="http://www.w3.org/1999/02/22-rdf-syntax-ns#"
   xmlns:svg="http://www.w3.org/2000/svg"
   xmlns="http://www.w3.org/2000/svg"
   xmlns:xlink="http://www.w3.org/1999/xlink"
   xmlns:sodipodi="http://sodipodi.sourceforge.net/DTD/sodipodi-0.dtd"
   xmlns:inkscape="http://www.inkscape.org/namespaces/inkscape"
   width="50.895489mm"
   height="45.960819mm"
   viewBox="0 0 50.895489 45.960819"
   version="1.1"
   id="svg8"
   inkscape:version="1.0 (6e3e5246a0, 2020-05-07)"
   sodipodi:docname="resume_parser.svg"
   inkscape:export-filename="/home/omkarpathak/Documents/GIT/illustrations/pngs/parser.png"
   inkscape:export-xdpi="300"
   inkscape:export-ydpi="300">
  <defs
     id="defs2">
    <pattern
       inkscape:collect="always"
       xlink:href="#Strips1_2white"
       id="pattern2890"
       patternTransform="matrix(2.6344413,-4.7140124e-8,-1.0808565e-8,2.6417915,-24.615826,148.6595)" />
    <pattern
       inkscape:stockid="Stripes 1:2 white"
       id="Strips1_2white"
       patternTransform="translate(0,0) scale(10,10)"
       height="1"
       width="3"
       patternUnits="userSpaceOnUse"
       inkscape:collect="always">
      <rect
         id="rect1897"
         height="2"
         width="1"
         y="-0.5"
         x="0"
         style="fill:white;stroke:none" />
    </pattern>
    <pattern
       inkscape:collect="always"
       xlink:href="#Strips1_1.5"
       id="pattern2862"
       patternTransform="matrix(2.6344413,-4.7140124e-8,-1.0808565e-8,2.6417915,-24.615826,148.6595)" />
    <pattern
       inkscape:stockid="Stripes 1:1.5"
       id="Strips1_1.5"
       patternTransform="translate(0,0) scale(10,10)"
       height="1"
       width="2.5"
       patternUnits="userSpaceOnUse"
       inkscape:collect="always">
      <rect
         id="rect1888"
         height="2"
         width="1"
         y="-0.5"
         x="0"
         style="fill:black;stroke:none" />
    </pattern>
    <filter
       height="1.0491175"
       y="-0.02455876"
       width="1.0556773"
       x="-0.027838644"
       id="filter882"
       style="color-interpolation-filters:sRGB"
       inkscape:collect="always">
      <feGaussianBlur
         id="feGaussianBlur884"
         stdDeviation="0.44494544"
         inkscape:collect="always" />
    </filter>
  </defs>
  <sodipodi:namedview
     id="base"
     pagecolor="#ffffff"
     bordercolor="#666666"
     borderopacity="1.0"
     inkscape:pageopacity="0.0"
     inkscape:pageshadow="2"
     inkscape:zoom="2.4430614"
     inkscape:cx="29.909313"
     inkscape:cy="106.73426"
     inkscape:document-units="mm"
     inkscape:current-layer="layer1"
     inkscape:document-rotation="0"
     showgrid="false"
     inkscape:window-width="1600"
     inkscape:window-height="813"
     inkscape:window-x="0"
     inkscape:window-y="0"
     inkscape:window-maximized="1"
     fit-margin-top="0"
     fit-margin-left="0"
     fit-margin-right="0"
     fit-margin-bottom="0" />
  <metadata
     id="metadata5">
    <rdf:RDF>
      <cc:Work
         rdf:about="">
        <dc:format>image/svg+xml</dc:format>
        <dc:type
           rdf:resource="http://purl.org/dc/dcmitype/StillImage" />
        <dc:title />
      </cc:Work>
    </rdf:RDF>
  </metadata>
  <g
     inkscape:label="Layer 1"
     inkscape:groupmode="layer"
     id="layer1"
     transform="translate(-85.736596,-100.25056)">
    <path
       sodipodi:nodetypes="saassssas"
       id="path872"
       d="m 101.01973,142.90116 c -7.557527,-0.5725 -10.590368,-4.99045 -10.858341,-9.87563 -0.184855,-3.36993 5.761119,-4.34921 6.70029,-7.5909 0.610693,-2.1079 2.386302,-3.46513 -1.04351,-6.50053 -3.429808,-3.03539 -2.218062,-9.95929 4.556741,-13.59878 6.7748,-3.63948 25.95494,-3.50274 27.72696,2.42308 1.77203,5.92583 -2.7895,18.26955 -1.52057,25.04427 1.26892,6.77471 -0.83168,9.98884 -4.54214,12.29646 -5.98213,3.72043 -16.14088,-1.82841 -21.01943,-2.19797 z"
       style="fill:#d2d2d2;fill-opacity:1;stroke:none;stroke-width:0.065;stroke-linecap:butt;stroke-linejoin:miter;stroke-miterlimit:4;stroke-dasharray:none;stroke-opacity:1;filter:url(#filter882)" />
    <path
       style="fill:#ffffff;stroke:none;stroke-width:0.065;stroke-linecap:butt;stroke-linejoin:miter;stroke-opacity:1;stroke-miterlimit:4;stroke-dasharray:none"
       d="m 99.96139,142.37199 c -7.557521,-0.5725 -10.590362,-4.99045 -10.858335,-9.87563 -0.184855,-3.36993 5.761119,-4.34921 6.70029,-7.5909 0.610693,-2.1079 2.386302,-3.46513 -1.04351,-6.50053 -3.429808,-3.03539 -2.218062,-9.95929 4.55674,-13.59878 6.774795,-3.63948 25.954935,-3.50274 27.726955,2.42308 1.77203,5.92583 -2.7895,18.26955 -1.52057,25.04427 1.26892,6.77471 -0.83168,9.98884 -4.54214,12.29646 -5.98213,3.72043 -16.14088,-1.82841 -21.01943,-2.19797 z"
       id="path871"
       sodipodi:nodetypes="saassssas" />
    <rect
       style="opacity:1;fill:#c2c2c2;stroke-width:0.0317505;paint-order:stroke fill markers"
       id="rect833"
       width="22.602526"
       height="29.345846"
       x="98.729256"
       y="110.15718"
       ry="0.011315832" />
    <rect
       transform="matrix(0.99970918,-0.02411542,0.03322906,0.99944776,0,0)"
       style="opacity:1;fill:#aaaaaa;fill-opacity:1;stroke-width:0.0287316;paint-order:stroke fill markers"
       id="rect839"
       width="20.575609"
       height="26.397486"
       x="95.919815"
       y="114.94971"
       ry="0.010178936" />
    <rect
       ry="0.010178936"
       y="116.93763"
       x="92.972389"
       height="26.397486"
       width="20.575609"
       id="rect835"
       style="opacity:1;fill:#ffffff;fill-opacity:1;stroke:#000000;stroke-width:0.0287316;stroke-opacity:1;paint-order:stroke fill markers"
       transform="matrix(0.99889957,-0.04690031,0.05600562,0.99843045,0,0)" />
    <path
       style="fill:#c2c2c2;fill-opacity:1;stroke:#000000;stroke-width:0.0174898;stroke-linecap:butt;stroke-linejoin:miter;stroke-miterlimit:4;stroke-dasharray:none;stroke-opacity:1"
       d="m 102.54236,112.16894 14.77783,-0.011 c 0,0 -0.0916,-2.42638 -0.96753,-2.83086 -0.98455,-0.45462 -2.23846,0.10583 -3.23687,-0.46819 -0.9984,-0.57402 -1.43683,-2.38855 -2.89699,-2.13385 -1.98368,0.34601 -1.3508,2.10205 -3.83688,2.18676 -2.48269,0.0846 -3.53417,-0.0218 -3.78986,1.04054 -0.28768,1.19525 -0.3671,2.16472 -0.3671,2.16472 z"
       id="path837"
       sodipodi:nodetypes="ccssssscc" />
    <path
       style="opacity:1;fill:#ffffff;fill-opacity:1;stroke:none;stroke-width:0.01978;stroke-miterlimit:4;stroke-dasharray:none;stroke-opacity:1;paint-order:stroke fill markers"
       id="path841"
       sodipodi:type="arc"
       sodipodi:cx="110.2745"
       sodipodi:cy="109.2374"
       sodipodi:rx="0.69388843"
       sodipodi:ry="0.67706615"
       sodipodi:start="0"
       sodipodi:end="6.2767974"
       sodipodi:open="true"
       sodipodi:arc-type="arc"
       d="m 110.96839,109.2374 a 0.69388843,0.67706615 0 0 1 -0.69278,0.67706 0.69388843,0.67706615 0 0 1 -0.695,-0.6749 0.69388843,0.67706615 0 0 1 0.69056,-0.67922 0.69388843,0.67706615 0 0 1 0.6972,0.67273" />
    <rect
       style="opacity:1;fill:#333333;fill-opacity:1;stroke:none;stroke-width:0.0141137;stroke-miterlimit:4;stroke-dasharray:none;stroke-opacity:1;paint-order:stroke fill markers"
       id="rect861"
       width="7.4248943"
       height="0.84923971"
       x="102.28513"
       y="116.08214"
       ry="0.0073689059" />
    <rect
       ry="0.0073689059"
       y="122.94154"
       x="102.28173"
       height="0.84923971"
       width="7.4248943"
       id="rect863"
       style="opacity:1;fill:#333333;fill-opacity:1;stroke:none;stroke-width:0.0141137;stroke-miterlimit:4;stroke-dasharray:none;stroke-opacity:1;paint-order:stroke fill markers" />
    <rect
       style="opacity:1;fill:#333333;fill-opacity:1;stroke:none;stroke-width:0.0141137;stroke-miterlimit:4;stroke-dasharray:none;stroke-opacity:1;paint-order:stroke fill markers"
       id="rect865"
       width="7.4248943"
       height="0.84923971"
       x="102.39508"
       y="129.84242"
       ry="0.0073689059" />
    <rect
       ry="0.0073689059"
       y="117.8716"
       x="102.36827"
       height="0.84923971"
       width="15.889658"
       id="rect867"
       style="opacity:1;fill:#e1e1e1;fill-opacity:1;stroke:none;stroke-width:0.0206469;stroke-miterlimit:4;stroke-dasharray:none;stroke-opacity:1;paint-order:stroke fill markers" />
    <rect
       style="opacity:1;fill:#e1e1e1;fill-opacity:1;stroke:none;stroke-width:0.0206469;stroke-miterlimit:4;stroke-dasharray:none;stroke-opacity:1;paint-order:stroke fill markers"
       id="rect869"
       width="15.889658"
       height="0.84923971"
       x="102.36827"
       y="119.43779"
       ry="0.0073689059" />
    <rect
       ry="0.0073689059"
       y="120.86164"
       x="102.36827"
       height="0.84923971"
       width="15.889658"
       id="rect871"
       style="opacity:1;fill:#e1e1e1;fill-opacity:1;stroke:none;stroke-width:0.0206469;stroke-miterlimit:4;stroke-dasharray:none;stroke-opacity:1;paint-order:stroke fill markers" />
    <rect
       style="opacity:1;fill:#e1e1e1;fill-opacity:1;stroke:none;stroke-width:0.0206469;stroke-miterlimit:4;stroke-dasharray:none;stroke-opacity:1;paint-order:stroke fill markers"
       id="rect873"
       width="15.889658"
       height="0.84923971"
       x="102.36827"
       y="124.56364"
       ry="0.0073689059" />
    <rect
       ry="0.0073689059"
       y="126.12986"
       x="102.36827"
       height="0.84923971"
       width="15.889658"
       id="rect875"
       style="opacity:1;fill:#e1e1e1;fill-opacity:1;stroke:none;stroke-width:0.0206469;stroke-miterlimit:4;stroke-dasharray:none;stroke-opacity:1;paint-order:stroke fill markers" />
    <rect
       style="opacity:1;fill:#e1e1e1;fill-opacity:1;stroke:none;stroke-width:0.0206469;stroke-miterlimit:4;stroke-dasharray:none;stroke-opacity:1;paint-order:stroke fill markers"
       id="rect877"
       width="15.889658"
       height="0.84923971"
       x="102.36827"
       y="127.83846"
       ry="0.0073689059" />
    <rect
       ry="0.0073689059"
       y="131.54037"
       x="102.36827"
       height="0.84923971"
       width="15.889658"
       id="rect879"
       style="opacity:1;fill:#e1e1e1;fill-opacity:1;stroke:none;stroke-width:0.0206469;stroke-miterlimit:4;stroke-dasharray:none;stroke-opacity:1;paint-order:stroke fill markers" />
    <rect
       style="opacity:1;fill:#e1e1e1;fill-opacity:1;stroke:none;stroke-width:0.0206469;stroke-miterlimit:4;stroke-dasharray:none;stroke-opacity:1;paint-order:stroke fill markers"
       id="rect881"
       width="15.889658"
       height="0.84923971"
       x="102.36827"
       y="133.24893"
       ry="0.0073689059" />
    <path
       id="rect2958"
       style="opacity:1;fill:#aaaaaa;fill-opacity:1;stroke:none;stroke-width:0.0186907;stroke-miterlimit:4;stroke-dasharray:none;stroke-opacity:1;paint-order:stroke fill markers"
       d="m 102.53722,111.12541 h 13.00654 c 0.004,0 0.007,0.003 0.007,0.007 v 0.83449 c 0,0.004 -0.003,0.007 -0.007,0.007 l -12.99043,0.11745 c -0.004,4e-5 -0.28616,-0.0111 -0.2856,-0.0151 l 0.12637,-0.92399 c 5.5e-4,-0.004 0.13903,-0.0276 0.14312,-0.0276 z"
       sodipodi:nodetypes="sssssssss" />
    <path
       d="m 30.882976,162.6067 a 6.8677459,6.6234202 0 0 1 -6.856778,6.62342 6.8677459,6.6234202 0 0 1 -6.878679,-6.60226 6.8677459,6.6234202 0 0 1 6.834808,-6.6445 6.8677459,6.6234202 0 0 1 6.900509,6.58104"
       sodipodi:arc-type="arc"
       sodipodi:open="true"
       sodipodi:end="6.2767974"
       sodipodi:start="0"
       sodipodi:ry="6.6234202"
       sodipodi:rx="6.8677459"
       sodipodi:cy="162.6067"
       sodipodi:cx="24.01523"
       sodipodi:type="arc"
       id="path885"
       style="opacity:0.575738;fill:#f9f9f9;fill-opacity:1;stroke:none;stroke-width:0.0139238;stroke-miterlimit:4;stroke-dasharray:none;stroke-opacity:1;paint-order:stroke fill markers"
       transform="matrix(0.77890518,-0.62714171,0.60830654,0.79370218,0,0)" />
    <rect
       style="opacity:1;fill:#353771;fill-opacity:0.995703;stroke:none;stroke-width:0.0174898;stroke-miterlimit:4;stroke-dasharray:none;stroke-opacity:1;paint-order:stroke fill markers"
       id="rect914"
       width="1.7107209"
       height="10.189659"
       x="21.318586"
       y="171.67886"
       ry="0.011315797"
       transform="rotate(-38.151353)" />
    <g
       id="g2912"
       style="fill:#1b1c39;fill-opacity:0.840122"
       transform="matrix(0.26907314,0,0,0.26907314,82.702896,90.978932)">
      <path
         d="m 132.05905,54.124022 a 30.829546,32.153931 51.848647 0 0 -20.5357,7.192843 30.829546,32.153931 51.848647 0 0 -6.05854,44.088815 30.829546,32.153931 51.848647 0 0 44.30944,4.27159 30.829546,32.153931 51.848647 0 0 6.20013,-44.074877 l -0.12247,-0.153998 A 30.829546,32.153931 51.848647 0 0 132.05905,54.124022 Z m -0.81081,6.183604 a 24.873892,25.942432 51.848647 0 1 19.38125,9.136393 l 0.0987,0.124539 a 24.873892,25.942432 51.848647 0 1 -5.00279,35.560642 24.873892,25.942432 51.848647 0 1 -35.74976,-3.44683 24.873892,25.942432 51.848647 0 1 4.88859,-35.571482 24.873892,25.942432 51.848647 0 1 16.38401,-5.803262 z"
         style="opacity:1;fill:#353771;fill-opacity:0.995703;stroke:none;stroke-width:0.0649999;stroke-miterlimit:4;stroke-dasharray:none;stroke-opacity:1;paint-order:stroke fill markers"
         id="path887" />
      <path
         d="m 143.42558,112.85941 a 7.2113552,7.2928212 51.848647 0 0 1.25755,2.44243 7.2113552,7.2928212 51.848647 0 0 10.18454,1.1404 7.2113552,7.2928212 51.848647 0 0 1.27099,-10.1689 l -0.0288,-0.0359 a 7.2113552,7.2928212 51.848647 0 0 -1.99209,-1.72281 30.829546,32.153931 51.848647 0 1 -4.79562,4.62216 30.829546,32.153931 51.848647 0 1 -5.89656,3.72257 z"
         style="opacity:1;fill:#343670;fill-opacity:0.996078;stroke:none;stroke-width:0.0649999;stroke-miterlimit:4;stroke-dasharray:none;stroke-opacity:1;paint-order:stroke fill markers"
         id="path898" />
      <rect
         transform="rotate(-38.151353)"
         ry="0.042054728"
         y="186.3526"
         x="49.549816"
         height="33.793629"
         width="3.2041504"
         id="rect916"
         style="opacity:1;fill:#2b2d5d;fill-opacity:0.996078;stroke:none;stroke-width:0.0649999;stroke-miterlimit:4;stroke-dasharray:none;stroke-opacity:1;paint-order:stroke fill markers" />
    </g>
    <path
       style="fill:#2b2d5d;fill-opacity:0.996078;stroke:none;stroke-width:0.0711923px;stroke-linecap:butt;stroke-linejoin:miter;stroke-opacity:1"
       d="m 123.76103,122.96915 c 0,0 0.55852,-0.50143 0.85763,-0.40088 0.42174,0.14178 0.22179,-0.92675 0.22179,-0.92675 l -1.31945,1.03652 z"
       id="path918"
       sodipodi:nodetypes="csccc" />
    <path
       style="opacity:1;fill:url(#pattern2890);fill-opacity:1;stroke:url(#pattern2862);stroke-width:0.0139821;stroke-miterlimit:4;stroke-dasharray:none;stroke-opacity:1;paint-order:stroke fill markers"
       id="path920"
       sodipodi:type="arc"
       sodipodi:cx="23.081575"
       sodipodi:cy="162.52928"
       sodipodi:rx="6.9516134"
       sodipodi:ry="6.6838799"
       sodipodi:start="0"
       sodipodi:end="6.2767974"
       sodipodi:open="true"
       sodipodi:arc-type="arc"
       d="m 30.033189,162.52928 a 6.9516134,6.6838799 0 0 1 -6.940512,6.68387 6.9516134,6.6838799 0 0 1 -6.96268,-6.66252 6.9516134,6.6838799 0 0 1 6.918274,-6.70515 6.9516134,6.6838799 0 0 1 6.984776,6.64111"
       transform="matrix(0.78283294,-0.62223194,0.61324228,0.78989487,0,0)" />
    <g
       id="g2920"
       transform="matrix(0.26907314,0,0,0.26907314,78.988863,89.022865)">
      <g
         id="g2932"
         style="fill:#f2f2f2;stroke:#000000;stroke-opacity:1"
         transform="translate(10.054167,-6.3500003)" />
      <g
         id="g2956"
         transform="matrix(0.7226925,0,0,0.7226925,25.017218,26.938578)">
        <path
           transform="matrix(0.26458333,0,0,0.26458333,13.803065,7.269652)"
           d="m 151.67773,159.26953 a 90.329163,93.49621 0 0 0 -89.894527,93.79297 90.329163,93.49621 0 0 0 90.472657,93.19727 90.329163,93.49621 0 0 0 63.04102,-26.68165 l 63.0039,45.39454 L 234.75,290.51367 a 90.329163,93.49621 0 0 0 7.69141,-37.75 l -0.002,-0.5957 a 90.329163,93.49621 0 0 0 -90.76172,-92.89844 z"
           style="fill:#f2f2f2;fill-opacity:0.996078;stroke:#000000;stroke-width:0.999999px;stroke-linecap:butt;stroke-linejoin:miter;stroke-opacity:1"
           id="path2907" />
        <rect
           ry="0.042054728"
           y="62.463688"
           x="41.027046"
           height="1.5364474"
           width="10.637345"
           id="rect2934"
           style="opacity:1;fill:#999999;fill-opacity:0.996078;stroke:none;stroke-width:0.053;stroke-miterlimit:4;stroke-dasharray:none;stroke-opacity:1;paint-order:stroke fill markers" />
        <rect
           style="opacity:1;fill:#999999;fill-opacity:0.996078;stroke:none;stroke-width:0.053;stroke-miterlimit:4;stroke-dasharray:none;stroke-opacity:1;paint-order:stroke fill markers"
           id="rect2936"
           width="10.637345"
           height="1.5364474"
           x="41.027046"
           y="80.984535"
           ry="0.042054728" />
        <rect
           style="opacity:1;fill:#cccccc;fill-opacity:0.996078;stroke:none;stroke-width:0.0826554;stroke-miterlimit:4;stroke-dasharray:none;stroke-opacity:1;paint-order:stroke fill markers"
           id="rect2938"
           width="25.871632"
           height="1.5364474"
           x="41.027046"
           y="66.167854"
           ry="0.042054728" />
        <rect
           ry="0.042054728"
           y="69.872025"
           x="41.027046"
           height="1.5364474"
           width="25.871632"
           id="rect2940"
           style="opacity:1;fill:#cccccc;fill-opacity:0.996078;stroke:none;stroke-width:0.0826554;stroke-miterlimit:4;stroke-dasharray:none;stroke-opacity:1;paint-order:stroke fill markers" />
        <rect
           style="opacity:1;fill:#cccccc;fill-opacity:0.996078;stroke:none;stroke-width:0.0826554;stroke-miterlimit:4;stroke-dasharray:none;stroke-opacity:1;paint-order:stroke fill markers"
           id="rect2942"
           width="25.871632"
           height="1.5364474"
           x="41.027046"
           y="73.576195"
           ry="0.042054728" />
        <rect
           ry="0.042054728"
           y="76.751198"
           x="41.027046"
           height="1.5364474"
           width="25.871632"
           id="rect2944"
           style="opacity:1;fill:#cccccc;fill-opacity:0.996078;stroke:none;stroke-width:0.0826554;stroke-miterlimit:4;stroke-dasharray:none;stroke-opacity:1;paint-order:stroke fill markers" />
      </g>
    </g>
  </g>
</svg>
