<?xml version="1.0" encoding="UTF-8" standalone="no"?>
<svg
   xmlns:dc="http://purl.org/dc/elements/1.1/"
   xmlns:cc="http://creativecommons.org/ns#"
   xmlns:rdf="http://www.w3.org/1999/02/22-rdf-syntax-ns#"
   xmlns:svg="http://www.w3.org/2000/svg"
   xmlns="http://www.w3.org/2000/svg"
   xmlns:xlink="http://www.w3.org/1999/xlink"
   xmlns:sodipodi="http://sodipodi.sourceforge.net/DTD/sodipodi-0.dtd"
   xmlns:inkscape="http://www.inkscape.org/namespaces/inkscape"
   width="297mm"
   height="210mm"
   viewBox="0 0 297 210"
   version="1.1"
   id="svg937"
   inkscape:version="1.0 (6e3e5246a0, 2020-05-07)"
   sodipodi:docname="skills.svg">
  <defs
     id="defs931">
    <linearGradient
       inkscape:collect="always"
       id="linearGradient3959">
      <stop
         style="stop-color:#c7c8ee;stop-opacity:1;"
         offset="0"
         id="stop3955" />
      <stop
         style="stop-color:#787bd8;stop-opacity:1"
         offset="1"
         id="stop3957" />
    </linearGradient>
    <filter
       inkscape:collect="always"
       style="color-interpolation-filters:sRGB"
       id="filter3907"
       x="-0.063301082"
       width="1.1266022"
       y="-0.054024378"
       height="1.1080488">
      <feGaussianBlur
         inkscape:collect="always"
         stdDeviation="0.77494332"
         id="feGaussianBlur3909" />
    </filter>
    <filter
       inkscape:collect="always"
       style="color-interpolation-filters:sRGB"
       id="filter3945"
       x="-0.072462753"
       width="1.1449255"
       y="-0.12056338"
       height="1.2411268">
      <feGaussianBlur
         inkscape:collect="always"
         stdDeviation="5.0625313"
         id="feGaussianBlur3947" />
    </filter>
    <linearGradient
       inkscape:collect="always"
       xlink:href="#linearGradient3959"
       id="linearGradient3961"
       x1="5.020546"
       y1="147.5812"
       x2="323.77605"
       y2="147.5812"
       gradientUnits="userSpaceOnUse" />
    <linearGradient
       inkscape:collect="always"
       xlink:href="#linearGradient999"
       id="linearGradient1001"
       x1="81.944832"
       y1="89.378456"
       x2="79.419136"
       y2="85.636681"
       gradientUnits="userSpaceOnUse"
       gradientTransform="matrix(1.8532571,0,0,2.8229176,184.6169,-136.44321)" />
    <linearGradient
       inkscape:collect="always"
       id="linearGradient999">
      <stop
         style="stop-color:#d6976d;stop-opacity:1;"
         offset="0"
         id="stop995" />
      <stop
         style="stop-color:#d6976d;stop-opacity:0;"
         offset="1"
         id="stop997" />
    </linearGradient>
  </defs>
  <sodipodi:namedview
     id="base"
     pagecolor="#ffffff"
     bordercolor="#666666"
     borderopacity="1.0"
     inkscape:pageopacity="0.0"
     inkscape:pageshadow="2"
     inkscape:zoom="0.52478962"
     inkscape:cx="494.0054"
     inkscape:cy="288.20058"
     inkscape:document-units="mm"
     inkscape:current-layer="layer1"
     inkscape:document-rotation="0"
     showgrid="false"
     inkscape:window-width="1600"
     inkscape:window-height="813"
     inkscape:window-x="0"
     inkscape:window-y="0"
     inkscape:window-maximized="1" />
  <metadata
     id="metadata934">
    <rdf:RDF>
      <cc:Work
         rdf:about="">
        <dc:format>image/svg+xml</dc:format>
        <dc:type
           rdf:resource="http://purl.org/dc/dcmitype/StillImage" />
        <dc:title />
      </cc:Work>
    </rdf:RDF>
  </metadata>
  <g
     inkscape:label="Layer 1"
     inkscape:groupmode="layer"
     id="layer1">
    <path
       d="m 100.61553,201.45798 a 48.298676,3.8636179 0 0 1 -48.221542,3.86361 48.298676,3.8636179 0 0 1 -48.3755608,-3.85127 48.298676,3.8636179 0 0 1 48.0670348,-3.87592 48.298676,3.8636179 0 0 1 48.529088,3.8389"
       sodipodi:arc-type="arc"
       sodipodi:open="true"
       sodipodi:end="6.2767974"
       sodipodi:start="0"
       sodipodi:ry="3.8636179"
       sodipodi:rx="48.298676"
       sodipodi:cy="201.45798"
       sodipodi:cx="52.316856"
       sodipodi:type="arc"
       id="path4038"
       style="opacity:0.949401;fill:#f0f0f0;fill-opacity:0.996078;stroke:none;stroke-width:0.593007;stroke-miterlimit:4;stroke-dasharray:none;stroke-opacity:1;paint-order:stroke fill markers" />
    <path
       style="opacity:0.949401;fill:#f0f0f0;fill-opacity:0.996078;stroke:none;stroke-width:0.593007;stroke-miterlimit:4;stroke-dasharray:none;stroke-opacity:1;paint-order:stroke fill markers"
       id="path4036"
       sodipodi:type="arc"
       sodipodi:cx="233.29048"
       sodipodi:cy="173.41252"
       sodipodi:rx="48.298676"
       sodipodi:ry="3.8636179"
       sodipodi:start="0"
       sodipodi:end="6.2767974"
       sodipodi:open="true"
       sodipodi:arc-type="arc"
       d="m 281.58916,173.41252 a 48.298676,3.8636179 0 0 1 -48.22155,3.86361 48.298676,3.8636179 0 0 1 -48.37556,-3.85127 48.298676,3.8636179 0 0 1 48.06704,-3.87591 48.298676,3.8636179 0 0 1 48.52908,3.83889" />
    <g
       id="g4034"
       transform="translate(17.462505,-15.345837)">
      <path
         sodipodi:nodetypes="cccc"
         id="path4019"
         d="m 197.44168,190.08516 5.91757,-113.624692 3.9676,114.422272 z"
         style="fill:#b2b3f8;fill-opacity:0.556502;stroke:none;stroke-width:0.264583px;stroke-linecap:butt;stroke-linejoin:miter;stroke-opacity:1" />
      <path
         style="fill:#b2b3f8;fill-opacity:0.556502;stroke:none;stroke-width:0.0822511px;stroke-linecap:butt;stroke-linejoin:miter;stroke-opacity:1"
         d="M 206.42881,174.16289 241.11026,139.39734 206.64991,179.299 Z"
         id="path4021"
         sodipodi:nodetypes="cccc" />
      <path
         sodipodi:nodetypes="cccc"
         id="path4023"
         d="m 205.37047,139.83599 18.59346,-19.97002 -18.47492,22.9203 z"
         style="fill:#b2b3f8;fill-opacity:0.556502;stroke:none;stroke-width:0.0456444px;stroke-linecap:butt;stroke-linejoin:miter;stroke-opacity:1" />
      <path
         style="fill:#b2b3f8;fill-opacity:0.556502;stroke:none;stroke-width:0.0456444px;stroke-linecap:butt;stroke-linejoin:miter;stroke-opacity:1"
         d="m 200.68045,127.66508 -18.59346,-19.97002 18.47492,22.9203 z"
         id="path4025"
         sodipodi:nodetypes="cccc" />
      <path
         sodipodi:nodetypes="cccc"
         id="path4027"
         d="m 198.77666,167.28368 -34.68145,-34.76555 34.46035,39.90166 z"
         style="fill:#b2b3f8;fill-opacity:0.556502;stroke:none;stroke-width:0.0822511px;stroke-linecap:butt;stroke-linejoin:miter;stroke-opacity:1" />
      <path
         style="fill:#b2b3f8;fill-opacity:0.556502;stroke:none;stroke-width:0.264583px;stroke-linecap:butt;stroke-linejoin:miter;stroke-opacity:1"
         d="m 197.44168,190.08516 5.91757,-113.624692 3.9676,114.422272 z"
         id="path3446"
         sodipodi:nodetypes="cccc" />
    </g>
    <g
       id="g1510"
       transform="matrix(0.89586192,0,0,0.89586192,-65.508379,-15.133366)">
      <rect
         ry="0.017938301"
         y="38.708004"
         x="162.5676"
         height="100.7775"
         width="167.67339"
         id="rect3939"
         style="opacity:0.949401;fill:#b7b7b7;fill-opacity:1;stroke:none;stroke-width:0.499999;stroke-miterlimit:4;stroke-dasharray:none;paint-order:stroke fill markers;filter:url(#filter3945)"
         transform="matrix(0.96611442,0,0,0.92992875,11.058697,11.670611)" />
      <rect
         style="opacity:0.949401;fill:#f2f2f2;fill-opacity:1;stroke:none;stroke-width:0.499999;stroke-miterlimit:4;stroke-dasharray:none;paint-order:stroke fill markers"
         id="rect3879"
         width="167.67339"
         height="100.7775"
         x="162.5676"
         y="38.708004"
         ry="0.017938301" />
      <rect
         style="opacity:0.949401;fill:#7779f3;fill-opacity:1;stroke:none;stroke-width:0.541993;stroke-miterlimit:4;stroke-dasharray:none;paint-order:stroke fill markers"
         id="rect3881"
         width="40.240738"
         height="100.7775"
         x="162.5676"
         y="38.708004"
         ry="0.018054241" />
      <rect
         style="opacity:0.949401;fill:#696bf1;fill-opacity:1;stroke:none;stroke-width:0.430393;stroke-miterlimit:4;stroke-dasharray:none;paint-order:stroke fill markers"
         id="rect3883"
         width="31.660295"
         height="5.0637245"
         x="166.6756"
         y="52.677841"
         ry="0.013291486" />
      <rect
         ry="0.013291486"
         y="62.20285"
         x="166.6756"
         height="5.0637245"
         width="31.660295"
         id="rect3885"
         style="opacity:0.949401;fill:#4b4ed3;fill-opacity:1;stroke:none;stroke-width:0.430393;stroke-miterlimit:4;stroke-dasharray:none;paint-order:stroke fill markers" />
      <rect
         style="opacity:0.949401;fill:#696bf1;fill-opacity:1;stroke:none;stroke-width:0.430393;stroke-miterlimit:4;stroke-dasharray:none;paint-order:stroke fill markers"
         id="rect3887"
         width="31.660295"
         height="5.0637245"
         x="166.6756"
         y="71.198692"
         ry="0.013291486" />
      <rect
         ry="0.013291486"
         y="79.665367"
         x="166.6756"
         height="5.0637245"
         width="31.660295"
         id="rect3889"
         style="opacity:0.949401;fill:#696bf1;fill-opacity:1;stroke:none;stroke-width:0.430393;stroke-miterlimit:4;stroke-dasharray:none;paint-order:stroke fill markers" />
      <rect
         ry="0.017938301"
         y="51.848087"
         x="221.09975"
         height="34.426384"
         width="29.381235"
         id="rect3905"
         style="opacity:0.949401;fill:#858585;fill-opacity:1;stroke:none;stroke-width:0.499999;stroke-miterlimit:4;stroke-dasharray:none;paint-order:stroke fill markers;filter:url(#filter3907)" />
      <rect
         style="opacity:0.949401;fill:#ffffff;fill-opacity:1;stroke:none;stroke-width:0.499999;stroke-miterlimit:4;stroke-dasharray:none;paint-order:stroke fill markers"
         id="rect3891"
         width="29.381235"
         height="34.426384"
         x="220.04143"
         y="51.31892"
         ry="0.017938301" />
      <rect
         style="opacity:0.949401;fill:#858585;fill-opacity:1;stroke:none;stroke-width:0.499999;stroke-miterlimit:4;stroke-dasharray:none;paint-order:stroke fill markers;filter:url(#filter3907)"
         id="rect3911"
         width="29.381235"
         height="34.426384"
         x="262.37439"
         y="51.848087"
         ry="0.017938301" />
      <rect
         ry="0.017938301"
         y="51.31892"
         x="261.31604"
         height="34.426384"
         width="29.381235"
         id="rect3913"
         style="opacity:0.949401;fill:#ffffff;fill-opacity:1;stroke:none;stroke-width:0.499999;stroke-miterlimit:4;stroke-dasharray:none;paint-order:stroke fill markers" />
      <rect
         ry="0.017938301"
         y="94.181458"
         x="262.37439"
         height="34.426384"
         width="29.381235"
         id="rect3915"
         style="opacity:0.949401;fill:#858585;fill-opacity:1;stroke:none;stroke-width:0.499999;stroke-miterlimit:4;stroke-dasharray:none;paint-order:stroke fill markers;filter:url(#filter3907)" />
      <rect
         style="opacity:0.949401;fill:#ffffff;fill-opacity:1;stroke:none;stroke-width:0.499999;stroke-miterlimit:4;stroke-dasharray:none;paint-order:stroke fill markers"
         id="rect3917"
         width="29.381235"
         height="34.426384"
         x="261.31604"
         y="93.65229"
         ry="0.017938301" />
      <rect
         style="opacity:0.949401;fill:#858585;fill-opacity:1;stroke:none;stroke-width:0.499999;stroke-miterlimit:4;stroke-dasharray:none;paint-order:stroke fill markers;filter:url(#filter3907)"
         id="rect3919"
         width="29.381235"
         height="34.426384"
         x="222.15808"
         y="94.181458"
         ry="0.017938301" />
      <rect
         ry="0.017938301"
         y="93.65229"
         x="221.09976"
         height="34.426384"
         width="29.381235"
         id="rect3921"
         style="opacity:0.949401;fill:#ffffff;fill-opacity:1;stroke:none;stroke-width:0.499999;stroke-miterlimit:4;stroke-dasharray:none;paint-order:stroke fill markers" />
      <rect
         style="opacity:0.949401;fill:#ececec;fill-opacity:1;stroke:#929292;stroke-width:0.499999;stroke-miterlimit:4;stroke-dasharray:none;stroke-opacity:1;paint-order:stroke fill markers"
         id="rect3923"
         width="29.380352"
         height="9.7928848"
         x="220.04231"
         y="75.952415"
         ry="0.017938301" />
      <rect
         ry="0.017938301"
         y="75.952415"
         x="261.31693"
         height="9.7928848"
         width="29.380352"
         id="rect3925"
         style="opacity:0.949401;fill:#ececec;fill-opacity:1;stroke:#929292;stroke-width:0.499999;stroke-miterlimit:4;stroke-dasharray:none;stroke-opacity:1;paint-order:stroke fill markers" />
      <rect
         style="opacity:0.949401;fill:#ececec;fill-opacity:1;stroke:#929292;stroke-width:0.499999;stroke-miterlimit:4;stroke-dasharray:none;stroke-opacity:1;paint-order:stroke fill markers"
         id="rect3927"
         width="29.380352"
         height="9.7928848"
         x="261.31693"
         y="118.28577"
         ry="0.017938301" />
      <rect
         ry="0.017938301"
         y="118.28577"
         x="221.10065"
         height="9.7928848"
         width="29.380352"
         id="rect3929"
         style="opacity:0.949401;fill:#ececec;fill-opacity:1;stroke:#929292;stroke-width:0.499999;stroke-miterlimit:4;stroke-dasharray:none;stroke-opacity:1;paint-order:stroke fill markers" />
      <path
         style="opacity:0.949401;fill:#ececec;fill-opacity:1;stroke:#929292;stroke-width:0.499999;stroke-miterlimit:4;stroke-dasharray:none;stroke-opacity:1;paint-order:stroke fill markers"
         id="path3931"
         sodipodi:type="arc"
         sodipodi:cx="234.44865"
         sodipodi:cy="64.408897"
         sodipodi:rx="7.0026684"
         sodipodi:ry="6.3550529"
         sodipodi:start="0"
         sodipodi:end="6.2767974"
         sodipodi:open="true"
         sodipodi:arc-type="arc"
         d="m 241.45132,64.408897 a 7.0026684,6.3550529 0 0 1 -6.99148,6.355045 7.0026684,6.3550529 0 0 1 -7.01382,-6.334747 7.0026684,6.3550529 0 0 1 6.96909,-6.375278 7.0026684,6.3550529 0 0 1 7.03607,6.314385" />
      <path
         d="m 281.66798,64.408897 a 7.0026684,6.3550529 0 0 1 -6.99148,6.355045 7.0026684,6.3550529 0 0 1 -7.01382,-6.334747 7.0026684,6.3550529 0 0 1 6.96908,-6.375278 7.0026684,6.3550529 0 0 1 7.03608,6.314385"
         sodipodi:arc-type="arc"
         sodipodi:open="true"
         sodipodi:end="6.2767974"
         sodipodi:start="0"
         sodipodi:ry="6.3550529"
         sodipodi:rx="7.0026684"
         sodipodi:cy="64.408897"
         sodipodi:cx="274.66531"
         sodipodi:type="arc"
         id="path3933"
         style="opacity:0.949401;fill:#ececec;fill-opacity:1;stroke:#929292;stroke-width:0.499999;stroke-miterlimit:4;stroke-dasharray:none;stroke-opacity:1;paint-order:stroke fill markers" />
      <path
         style="opacity:0.949401;fill:#ececec;fill-opacity:1;stroke:#929292;stroke-width:0.499999;stroke-miterlimit:4;stroke-dasharray:none;stroke-opacity:1;paint-order:stroke fill markers"
         id="path3935"
         sodipodi:type="arc"
         sodipodi:cx="274.66531"
         sodipodi:cy="105.15477"
         sodipodi:rx="7.0026684"
         sodipodi:ry="6.3550529"
         sodipodi:start="0"
         sodipodi:end="6.2767974"
         sodipodi:open="true"
         sodipodi:arc-type="arc"
         d="m 281.66798,105.15477 a 7.0026684,6.3550529 0 0 1 -6.99148,6.35504 7.0026684,6.3550529 0 0 1 -7.01382,-6.33474 7.0026684,6.3550529 0 0 1 6.96908,-6.37528 7.0026684,6.3550529 0 0 1 7.03608,6.31438" />
      <path
         d="m 243.0388,105.15477 a 7.0026684,6.3550529 0 0 1 -6.99148,6.35504 7.0026684,6.3550529 0 0 1 -7.01382,-6.33474 7.0026684,6.3550529 0 0 1 6.96908,-6.37528 7.0026684,6.3550529 0 0 1 7.03608,6.31438"
         sodipodi:arc-type="arc"
         sodipodi:open="true"
         sodipodi:end="6.2767974"
         sodipodi:start="0"
         sodipodi:ry="6.3550529"
         sodipodi:rx="7.0026684"
         sodipodi:cy="105.15477"
         sodipodi:cx="236.03613"
         sodipodi:type="arc"
         id="path3937"
         style="opacity:0.949401;fill:#ececec;fill-opacity:1;stroke:#929292;stroke-width:0.499999;stroke-miterlimit:4;stroke-dasharray:none;stroke-opacity:1;paint-order:stroke fill markers" />
      <path
         sodipodi:nodetypes="ccccccscsccccccccscccccsccccc"
         inkscape:connector-curvature="0"
         id="path826-3"
         d="m 111.20259,37.446225 4.66954,0.94958 c 0,0 3.89642,-1.17445 5.92156,-0.93569 1.49498,0.44119 2.52977,1.0927 3.62155,2.03484 1.1653,1.42212 1.73622,2.50128 2.0592,3.80007 -0.0453,2.0267 -0.0454,3.90269 -0.44899,5.64408 0,0 1.46354,1.67459 1.75348,2.7241 0.29341,1.06159 0.0537,2.03486 -0.34958,3.24465 -0.2411,1.4326 -1.08579,2.82636 -1.25681,4.31462 -0.14448,1.25208 0.31422,2.47743 -0.0937,3.60543 -0.18831,0.51314 -0.52093,1.07229 -1.02671,1.27754 -1.34382,0.54482 -2.8016,0.81355 -4.29512,0.85856 l -0.33635,0.3256 1.88277,5.80933 c -5.02051,0.0743 -10.04102,0.17226 -15.06153,-0.24287 -0.0396,-1.13103 -0.0794,-2.56151 -0.11905,-3.69254 -1.01458,-1.64085 -3.45865,-4.63926 -3.45865,-4.63926 0,0 -2.92959,-7.10401 -0.78486,-6.57903 1.83035,0.44799 1.98407,-1.49739 1.98407,-1.49739 0,0 -0.15963,1.22703 -0.67968,1.45841 -0.72133,0.3206 -1.72478,-0.0279 -2.50427,-0.47212 -1.2609,-0.71866 -2.1504,-2.11157 -2.44379,-3.87203 -0.10403,-0.63538 0.90161,-1.26394 0.90161,-1.26394 0.96013,-0.65239 2.46023,-0.74291 3.47768,-0.18399 1.0748,0.5902 1.80574,3.20417 1.80574,3.20417 l 2.68842,-0.29248 -1.18371,-4.63229 2.98646,-4.6971 z"
         style="opacity:1;fill:#ebebeb;fill-opacity:0.996078;stroke:none;stroke-width:0.181454;stroke-linecap:butt;stroke-linejoin:miter;stroke-miterlimit:4;stroke-dasharray:none;stroke-opacity:1" />
      <path
         sodipodi:nodetypes="cccccssscssscscssscsssssssscccssssccccccssscc"
         inkscape:connector-curvature="0"
         id="path847-6"
         d="m 126.95842,42.029375 3.46075,-2.91862 1.45357,-2.42543 -1.73005,-2.01034 1.05353,-2.31321 c 0,0 -1.98506,-1.90237 -3.10861,-2.68483 -1.68961,-1.17668 -3.58155,-0.99087 -5.14303,-2.33299 -0.92984,-0.79911 -0.65821,-1.89878 -1.67094,-2.59001 -1.03743,-0.70793 -4.43916,-1.00843 -4.43916,-1.00843 0,0 1.32958,0.79558 0.72779,1.37399 -0.49144,0.47267 -1.32379,-0.99782 -1.92923,-0.68332 -0.65308,0.3392 0.12656,2.00187 -0.59342,2.12572 -1.25523,0.21523 -2.29089,-0.88258 -2.29089,-0.88258 0,0 -2.77454,-1.15725 -4.32581,-0.44062 -0.83078,0.38397 -2.38471,1.59674 -2.38471,1.59674 0,0 1.716,-1.00373 2.39499,-0.37927 0.23698,0.21796 0.41828,0.66806 0.23864,0.93592 -0.73359,1.09873 -2.60195,0.55384 -3.92302,0.56427 -1.17052,0.009 -3.48344,-0.44546 -3.48344,-0.44546 0,0 1.84574,0.78298 1.82155,1.58816 -0.0578,1.92029 -3.313031,2.061 -4.563241,3.51952 -2.06348,2.40726 -4.33868,5.17082 -4.58928,8.33171 -0.16119,2.03129 1.50327,3.79475 2.06834,5.75236 0.46455,1.60619 0.77051,3.25516 1.08262,4.89773 0.16658,0.89619 -0.014,1.90566 0.43071,2.70137 0.50398,0.8994 1.78192,1.15064 2.34852,2.01178 0.586321,0.89148 0.329091,2.1863 0.950761,3.05701 0.52038,0.73659 2.16836,1.61915 2.16836,1.61915 l 1.67832,1.53504 -0.78486,-6.57907 c 0,0 -1.55645,-0.5699 -2.11665,-1.14382 -0.85109,-0.87135 -1.45708,-2.03344 -1.65942,-3.25475 -0.109281,-0.68353 0.76769,-1.12148 1.37818,-1.44702 0.84418,-0.44952 1.86992,-0.59898 2.76076,-0.25144 0.51811,0.20185 1.1493,1.05476 1.1493,1.05476 l 1.02915,2.41567 2.68842,-0.29249 -1.18372,-4.63228 2.98644,-4.69733 0.2918,-6.25025 c 0,0 3.08152,0.9146 4.66939,0.94945 1.99789,0.0438 3.95471,-1.2888 5.92167,-0.93568 1.36296,0.24464 2.62555,1.07311 3.6217,2.0351 0.71112,0.68706 1.54305,2.53433 1.54305,2.53433 z"
         style="opacity:1;fill:#4d4d4d;fill-opacity:1;stroke:#000000;stroke-width:0.181454;stroke-linecap:butt;stroke-linejoin:miter;stroke-miterlimit:4;stroke-dasharray:none;stroke-opacity:1" />
      <path
         sodipodi:nodetypes="csssccc"
         inkscape:connector-curvature="0"
         id="path993"
         d="m 119.08762,62.796575 c 0,0 -3.11587,-0.82972 -6.71459,-2.77103 -2.86767,-1.54684 -5.99127,-4.01643 -6.35488,-5.99037 -0.57771,-3.13919 4.21328,-1.24993 6.66597,-1.50348 4.31831,-0.44706 11.47475,8.90158 11.47475,8.90158 l -6.01494,1.21792 z"
         style="fill:url(#linearGradient1001);fill-opacity:1;stroke:none;stroke-width:0.16754px;stroke-linecap:butt;stroke-linejoin:miter;stroke-opacity:1" />
      <path
         style="fill:#ebebeb;fill-opacity:0.996078;stroke:none;stroke-width:0.281744px;stroke-linecap:butt;stroke-linejoin:miter;stroke-opacity:1"
         d="m 148.21549,78.508145 7.08895,19.88481 22.54906,-3.34053 c 0,0 1.78653,-5.9213 2.84988,-4.92678 1.06335,0.99453 0.0389,5.89308 0.0389,5.89308 l 10.23485,-2.01952 c 0,0 -0.66685,3.1176 -5.72907,4.88756 -5.06222,1.769965 -32.35618,16.125705 -32.35618,16.125705 l -16.59673,-22.837675 -12.99543,-13.36911 24.91578,-0.29754"
         id="path861"
         sodipodi:nodetypes="cccsccscccc" />
      <path
         style="fill:#05063a;fill-opacity:0.730787;stroke:none;stroke-width:0.255404px;stroke-linecap:butt;stroke-linejoin:miter;stroke-opacity:1"
         d="m 145.1529,136.96252 29.28143,33.47229 -8.70764,43.62639 h -7.95743 l -3.80079,-37.88206 c -10.29683,-3.15534 -25.59968,-16.0284 -25.59968,-16.0284 l 8.59635,-23.50335 z"
         id="path839"
         sodipodi:nodetypes="cccccccc" />
      <path
         style="fill:#6567f1;fill-opacity:1;stroke:none;stroke-width:0.255404px;stroke-linecap:butt;stroke-linejoin:miter;stroke-opacity:1"
         d="m 127.45554,69.800635 13.64091,0.13205 c 8.44933,2.75278 14.14266,17.7599 14.14266,17.7599 l -22.95922,11.03438 z"
         id="path841"
         sodipodi:nodetypes="ccccc" />
      <path
         style="fill:#7779f3;fill-opacity:1;stroke:none;stroke-width:0.255404px;stroke-linecap:butt;stroke-linejoin:miter;stroke-opacity:1"
         d="m 112.30292,69.800635 h 15.15262 c 0,0 11.42787,15.60402 14.61176,40.923745 3.1839,25.31965 3.0856,26.23814 3.0856,26.23814 l -47.359381,-1.28871 0.564,-65.880395 z"
         id="path833"
         sodipodi:nodetypes="ccscccc" />
      <path
         style="fill:#7779f3;fill-opacity:1;stroke:none;stroke-width:0.255404px;stroke-linecap:butt;stroke-linejoin:miter;stroke-opacity:1"
         d="m 97.219079,100.2934 c 11.810241,-14.267185 1.13844,-30.499985 1.13844,-30.499985 0,0 -7.36834,-0.30098 -10.38677,1.20999 -3.57081,1.78747 -5.32624,5.1421 -6.95089,8.39028 -3.24418,6.48613 -5.08117,21.154965 -5.08117,21.154965 z"
         id="path835"
         sodipodi:nodetypes="ccsacc" />
      <path
         style="fill:#070851;fill-opacity:0.623529;stroke:none;stroke-width:0.255404px;stroke-linecap:butt;stroke-linejoin:miter;stroke-opacity:1"
         d="m 136.96514,136.64739 -33.85646,94.17054 h -8.705531 l 3.39037,-95.14412 z"
         id="path837" />
      <path
         style="fill:#ebebeb;fill-opacity:0.996078;stroke:none;stroke-width:0.255404px;stroke-linecap:butt;stroke-linejoin:miter;stroke-opacity:1"
         d="m 95.359369,100.49115 -7.59281,25.37171 16.497871,21.2884 -3.26321,5.14803 -24.480431,-18.88893 1.15467,-32.92343 z"
         id="path863"
         sodipodi:nodetypes="ccccccc" />
      <path
         style="fill:#000000;fill-opacity:1;stroke:#000000;stroke-width:0.295339px;stroke-linecap:butt;stroke-linejoin:miter;stroke-opacity:1"
         d="m 94.403149,230.81793 v 8.8818 l 23.750641,0.10191 c 0,0 -3.71748,-4.26605 -6.07021,-6.01107 -2.65365,-1.96821 -8.9749,-2.97258 -8.9749,-2.97258 z"
         id="path887"
         sodipodi:nodetypes="cccscc" />
      <path
         sodipodi:nodetypes="cccscc"
         id="path889"
         d="m 157.02117,214.06114 v 8.8818 l 23.75063,0.10191 c 0,0 -3.71748,-4.26605 -6.07021,-6.01107 -2.65364,-1.96821 -8.9749,-2.97258 -8.9749,-2.97258 z"
         style="fill:#000000;fill-opacity:1;stroke:#000000;stroke-width:0.295339px;stroke-linecap:butt;stroke-linejoin:miter;stroke-opacity:1" />
    </g>
    <path
       style="fill:none;stroke:#000000;stroke-width:0.253271px;stroke-linecap:butt;stroke-linejoin:miter;stroke-opacity:1"
       d="m 258.12876,176.63925 c 0,0 15.76006,-18.76038 15.76006,-42.34297 0,-23.58259 -21.78523,-39.175429 -16.78299,-65.948398 5.00223,-26.772956 15.29979,-46.771485 15.29979,-46.771485"
       id="path3981" />
    <g
       id="g3993"
       transform="translate(-6.8791668,15.875004)">
      <path
         sodipodi:nodetypes="cacscc"
         id="path3983"
         d="m 274.58583,24.955873 c 1.54014,-1.744409 4.33384,-1.847012 6.63453,-1.913365 2.61739,-0.07549 7.66074,1.738133 7.66074,1.738133 0,0 -5.71544,12.499539 -11.43981,11.273031 -5.72435,-1.226504 -8.55692,-1.999672 -8.55692,-1.999672 0,0 2.85189,-5.888457 5.70146,-9.098127 z"
         style="fill:#acadf8;fill-opacity:1;stroke:#a8aaf7;stroke-width:0.228607px;stroke-linecap:butt;stroke-linejoin:miter;stroke-opacity:1" />
      <path
         id="path3985"
         d="m 268.88437,34.053999 16.11574,-7.903814"
         style="fill:none;stroke:#d2d2fb;stroke-width:0.264583px;stroke-linecap:butt;stroke-linejoin:miter;stroke-opacity:1" />
    </g>
    <path
       sodipodi:nodetypes="cacscc"
       id="path3987"
       d="m 258.26347,26.066901 c -2.12245,-0.954044 -3.04831,-3.591861 -3.79344,-5.769555 -0.84772,-2.477461 -0.61005,-7.831726 -0.61005,-7.831726 0,0 13.63179,1.754739 14.15667,7.585456 0.52489,5.830694 0.62582,8.765154 0.62582,8.765154 0,0 -6.46908,-0.978869 -10.379,-2.749329 z"
       style="fill:#b2b3f8;fill-opacity:1;stroke:none;stroke-width:0.228607px;stroke-linecap:butt;stroke-linejoin:miter;stroke-opacity:1" />
    <path
       id="path3989"
       d="M 268.64247,28.81623 256.31807,15.766462"
       style="fill:none;stroke:#d2d2fb;stroke-width:0.264583px;stroke-linecap:butt;stroke-linejoin:miter;stroke-opacity:1" />
    <g
       id="g3999"
       transform="translate(-10.601816,60.722589)">
      <path
         style="fill:#acadf8;fill-opacity:1;stroke:#a8aaf7;stroke-width:0.228607px;stroke-linecap:butt;stroke-linejoin:miter;stroke-opacity:1"
         d="m 274.58583,24.955873 c 1.54014,-1.744409 4.33384,-1.847012 6.63453,-1.913365 2.61739,-0.07549 7.66074,1.738133 7.66074,1.738133 0,0 -5.71544,12.499539 -11.43981,11.273031 -5.72435,-1.226504 -8.55692,-1.999672 -8.55692,-1.999672 0,0 2.85189,-5.888457 5.70146,-9.098127 z"
         id="path3995"
         sodipodi:nodetypes="cacscc" />
      <path
         style="fill:none;stroke:#d2d2fb;stroke-width:0.264583px;stroke-linecap:butt;stroke-linejoin:miter;stroke-opacity:1"
         d="m 268.88437,34.053999 16.11574,-7.903814"
         id="path3997" />
    </g>
    <g
       transform="rotate(-95.698611,280.30181,58.814647)"
       id="g4005">
      <path
         sodipodi:nodetypes="cacscc"
         id="path4001"
         d="m 274.58583,24.955873 c 1.54014,-1.744409 4.33384,-1.847012 6.63453,-1.913365 2.61739,-0.07549 7.66074,1.738133 7.66074,1.738133 0,0 -5.71544,12.499539 -11.43981,11.273031 -5.72435,-1.226504 -8.55692,-1.999672 -8.55692,-1.999672 0,0 2.85189,-5.888457 5.70146,-9.098127 z"
         style="fill:#acadf8;fill-opacity:1;stroke:#a8aaf7;stroke-width:0.228607px;stroke-linecap:butt;stroke-linejoin:miter;stroke-opacity:1" />
      <path
         id="path4003"
         d="m 268.88437,34.053999 16.11574,-7.903814"
         style="fill:none;stroke:#d2d2fb;stroke-width:0.264583px;stroke-linecap:butt;stroke-linejoin:miter;stroke-opacity:1" />
    </g>
    <g
       transform="translate(5.5087037,105.07874)"
       id="g4011">
      <path
         sodipodi:nodetypes="cacscc"
         id="path4007"
         d="m 274.58583,24.955873 c 1.54014,-1.744409 4.33384,-1.847012 6.63453,-1.913365 2.61739,-0.07549 7.66074,1.738133 7.66074,1.738133 0,0 -5.71544,12.499539 -11.43981,11.273031 -5.72435,-1.226504 -8.55692,-1.999672 -8.55692,-1.999672 0,0 2.85189,-5.888457 5.70146,-9.098127 z"
         style="fill:#acadf8;fill-opacity:1;stroke:#a8aaf7;stroke-width:0.228607px;stroke-linecap:butt;stroke-linejoin:miter;stroke-opacity:1" />
      <path
         id="path4009"
         d="m 268.88437,34.053999 16.11574,-7.903814"
         style="fill:none;stroke:#d2d2fb;stroke-width:0.264583px;stroke-linecap:butt;stroke-linejoin:miter;stroke-opacity:1" />
    </g>
    <g
       id="g4017"
       transform="rotate(-108.73267,305.28372,80.584729)">
      <path
         style="fill:#acadf8;fill-opacity:1;stroke:#a8aaf7;stroke-width:0.228607px;stroke-linecap:butt;stroke-linejoin:miter;stroke-opacity:1"
         d="m 274.58583,24.955873 c 1.54014,-1.744409 4.33384,-1.847012 6.63453,-1.913365 2.61739,-0.07549 7.66074,1.738133 7.66074,1.738133 0,0 -5.71544,12.499539 -11.43981,11.273031 -5.72435,-1.226504 -8.55692,-1.999672 -8.55692,-1.999672 0,0 2.85189,-5.888457 5.70146,-9.098127 z"
         id="path4013"
         sodipodi:nodetypes="cacscc" />
      <path
         style="fill:none;stroke:#d2d2fb;stroke-width:0.264583px;stroke-linecap:butt;stroke-linejoin:miter;stroke-opacity:1"
         d="m 268.88437,34.053999 16.11574,-7.903814"
         id="path4015" />
    </g>
    <rect
       ry="0.055192612"
       y="185.12131"
       x="70.877563"
       height="16.311995"
       width="29.736986"
       id="rect956"
       style="fill:#acadf8;fill-opacity:1;stroke-width:0.465;paint-order:stroke fill markers" />
  </g>
</svg>
