<?xml version="1.0" encoding="utf-8"?>
<!-- Generator: Adobe Illustrator 16.0.0, SVG Export Plug-In . SVG Version: 6.00 Build 0)  -->
<!DOCTYPE svg PUBLIC "-//W3C//DTD SVG 1.1//EN" "http://www.w3.org/Graphics/SVG/1.1/DTD/svg11.dtd">
<svg version="1.1" id="Layer_1" xmlns="http://www.w3.org/2000/svg" xmlns:xlink="http://www.w3.org/1999/xlink" x="0px" y="0px"
	 width="492.792px" height="158.56px" viewBox="0 0 492.792 158.56" enable-background="new 0 0 492.792 158.56"
	 xml:space="preserve">
<g>
	<g>
		<path fill="#FFFFFF" d="M287.574,16.459c-1.851-1.874-4.052-3.313-6.603-4.313c-2.553-1.002-5.355-1.501-8.406-1.501
			c-4.604,0-8.731,0.963-12.384,2.89c-3.652,1.925-6.743,4.428-9.269,7.503c-2.527,3.079-4.465,6.543-5.816,10.396
			c-1.351,3.853-2.026,7.729-2.026,11.631c0,3.402,0.511,6.455,1.538,9.157c1.025,2.704,2.464,4.99,4.315,6.867
			c1.851,1.878,4.054,3.315,6.604,4.314c2.551,1.002,5.353,1.501,8.406,1.501c4.653,0,8.805-0.949,12.458-2.851
			c3.652-1.901,6.742-4.391,9.268-7.468c2.527-3.077,4.453-6.554,5.779-10.431c1.325-3.877,1.989-7.77,1.989-11.672
			c0-3.402-0.515-6.453-1.539-9.154C290.864,20.626,289.425,18.338,287.574,16.459z M280.183,41.374
			c-0.826,2.579-1.978,4.868-3.453,6.869c-1.477,2.001-3.202,3.602-5.178,4.802c-1.978,1.203-4.117,1.802-6.417,1.802
			c-3.553,0-6.117-1.163-7.692-3.487c-1.576-2.327-2.363-5.367-2.363-9.12c0-2.751,0.412-5.428,1.237-8.029
			c0.826-2.601,1.976-4.902,3.453-6.905c1.475-2,3.202-3.603,5.179-4.803c1.976-1.203,4.114-1.802,6.417-1.802
			c3.552,0,6.116,1.165,7.692,3.49c1.576,2.326,2.363,5.366,2.363,9.117C281.42,36.11,281.007,38.799,280.183,41.374z"/>
		<path fill="#FFFFFF" d="M352.865,27.118c-1.101-1.175-2.489-2.078-4.164-2.704c-1.678-0.623-3.69-0.938-6.042-0.938
			c-2.452,0-4.591,0.34-6.417,1.015c-1.827,0.674-3.666,1.538-5.517,2.589c-1.302-1.203-2.739-2.103-4.315-2.701
			c-1.576-0.603-3.565-0.902-5.966-0.902c-2.001,0-3.765,0.088-5.291,0.264c-1.527,0.174-2.902,0.401-4.127,0.674
			c-1.227,0.275-2.326,0.578-3.302,0.902c-0.976,0.326-1.889,0.613-2.74,0.861l-9.08,37.677h11.182l7.28-30.547
			c0.751-0.148,1.4-0.262,1.952-0.338c0.55-0.073,1.225-0.112,2.026-0.112c1.9,0,3.176,0.516,3.827,1.539
			c0.65,1.026,0.976,2.239,0.976,3.639c0,0.854-0.088,1.717-0.263,2.592c-0.176,0.874-0.337,1.664-0.488,2.363l-4.954,20.864h11.182
			l5.104-21.315c0.25-1.002,0.438-2,0.563-3.002c0.125-1,0.188-1.951,0.188-2.851c0-0.302,0-0.626,0-0.977
			c0-0.349-0.05-0.724-0.15-1.126c0.75-0.4,1.601-0.788,2.551-1.162c0.95-0.376,1.952-0.564,3.003-0.564
			c1.9,0,3.176,0.516,3.827,1.539c0.649,1.026,0.975,2.239,0.975,3.639c0,0.854-0.087,1.717-0.262,2.592
			c-0.176,0.874-0.338,1.664-0.488,2.363l-4.953,20.864h11.182l5.103-21.315c0.25-1.002,0.438-2,0.563-3.002
			c0.125-1,0.188-1.951,0.188-2.851c0-1.951-0.251-3.74-0.751-5.364C354.767,29.694,353.966,28.291,352.865,27.118z"/>
		<path fill="#FFFFFF" d="M404.499,24.379h-12.608c-1.901,2.1-4.178,4.4-6.829,6.903c-2.652,2.504-5.479,4.951-8.481,7.355
			l7.956-33.021l-11.633,1.8l-13.508,56.438h11.108l4.202-17.264c0.901,1.153,1.802,2.454,2.703,3.905
			c0.9,1.451,1.764,2.938,2.589,4.465c0.825,1.527,1.576,3.065,2.251,4.613c0.675,1.554,1.238,2.978,1.688,4.28h12.458
			c-0.551-1.701-1.238-3.503-2.063-5.403s-1.727-3.778-2.702-5.63c-0.975-1.849-2.002-3.626-3.077-5.329
			c-1.077-1.699-2.139-3.2-3.19-4.502c3.904-3.352,7.367-6.516,10.396-9.494C398.783,30.521,401.697,27.48,404.499,24.379z"/>
		<path fill="#FFFFFF" d="M442.323,26.404c-1.451-0.701-2.977-1.25-4.577-1.651c-1.603-0.399-3.127-0.687-4.578-0.862
			c-1.453-0.176-2.739-0.287-3.865-0.338c-1.126-0.05-1.915-0.076-2.364-0.076c-3.453,0-6.655,0.65-9.606,1.953
			c-2.953,1.3-5.516,3.089-7.692,5.364c-2.177,2.277-3.878,4.942-5.104,7.992c-1.227,3.053-1.839,6.305-1.839,9.758
			c0,2.25,0.25,4.365,0.751,6.343c0.5,1.975,1.313,3.702,2.438,5.176c1.126,1.479,2.577,2.651,4.353,3.529
			c1.776,0.876,3.915,1.312,6.418,1.312c2.101,0,4.001-0.375,5.703-1.125c1.701-0.749,3.252-1.7,4.653-2.851
			c0.25,0.7,0.5,1.324,0.75,1.876c0.25,0.552,0.525,1.126,0.826,1.725l9.982-1.425c-0.853-2.252-1.427-4.814-1.727-7.694
			c-0.301-2.874-0.101-5.738,0.601-8.592L442.323,26.404z M426.713,44.865c-0.25,1.153-0.488,2.416-0.713,3.791
			c-0.225,1.376-0.388,2.689-0.487,3.939c-1.051,1.051-2.039,1.801-2.965,2.251c-0.926,0.453-1.964,0.677-3.114,0.677
			c-2.152,0-3.629-0.701-4.427-2.104c-0.801-1.397-1.201-3.299-1.201-5.7c0-1.952,0.312-3.828,0.937-5.631
			c0.625-1.802,1.489-3.388,2.59-4.766c1.1-1.375,2.389-2.488,3.865-3.339c1.476-0.851,3.065-1.277,4.766-1.277
			c0.75,0,1.388,0.027,1.914,0.078c0.525,0.049,1.113,0.123,1.763,0.223L426.713,44.865z"/>
		<path fill="#FFFFFF" d="M474.032,23.891c-1.527-0.227-2.916-0.338-4.166-0.338c-3.352,0-6.367,0.313-9.043,0.938
			c-2.678,0.624-5.092,1.289-7.242,1.987l-9.006,37.376h11.182l7.279-30.32c0.551-0.15,1.251-0.286,2.102-0.413
			c0.851-0.124,1.625-0.188,2.327-0.188c1.901,0,3.341,0.112,4.315,0.34c0.976,0.223,1.963,0.459,2.965,0.711l3.302-9.007
			C476.895,24.479,475.557,24.116,474.032,23.891z"/>
		<g>
			<path fill="#FFFFFF" d="M282.766,90.03c-0.951-1.853-2.302-3.417-4.052-4.691c-1.752-1.275-3.891-2.252-6.417-2.928
				c-1.964-0.525-4.122-0.839-6.462-0.956l-1.807,7.531c-0.009,0.004-0.018,0.004-0.029,0.004l-0.53,2.254
				c2.676,0.068,4.773,0.533,6.276,1.412c1.625,0.949,2.439,2.551,2.439,4.803c0,1.703-0.337,3.141-1.013,4.314
				c-0.675,1.176-1.626,2.14-2.852,2.891c-1.227,0.751-2.703,1.287-4.428,1.613c-1.27,0.239-2.645,0.389-4.118,0.453l-2.357,9.83
				c3.415-0.084,6.62-0.412,9.589-1.016c3.453-0.699,6.454-1.849,9.006-3.449c2.552-1.604,4.553-3.704,6.004-6.307
				c1.451-2.599,2.177-5.777,2.177-9.531C284.192,93.957,283.716,91.881,282.766,90.03z"/>
			<path fill="#FFFFFF" d="M327.687,96.559c-1.451-0.701-2.978-1.25-4.579-1.65c-1.601-0.399-3.127-0.688-4.578-0.863
				c-1.452-0.177-2.739-0.287-3.865-0.338c-1.126-0.048-1.914-0.076-2.364-0.076c-3.453,0-6.655,0.651-9.605,1.953
				c-2.954,1.301-5.517,3.088-7.693,5.364c-2.177,2.277-3.877,4.943-5.103,7.995c-1.227,3.049-1.839,6.303-1.839,9.755
				c0,2.25,0.25,4.366,0.751,6.342c0.499,1.976,1.313,3.703,2.439,5.177c1.126,1.479,2.576,2.653,4.353,3.529
				c1.775,0.876,3.914,1.312,6.417,1.312c2.101,0,4.001-0.376,5.704-1.126c1.7-0.748,3.251-1.699,4.653-2.851
				c0.25,0.701,0.499,1.325,0.75,1.877c0.25,0.552,0.525,1.125,0.826,1.724l9.981-1.424c-0.851-2.251-1.426-4.814-1.727-7.694
				c-0.3-2.875-0.101-5.739,0.6-8.592L327.687,96.559z M312.076,115.02c-0.251,1.154-0.487,2.415-0.714,3.791
				c-0.225,1.375-0.387,2.689-0.487,3.939c-1.051,1.051-2.039,1.802-2.965,2.252c-0.927,0.452-1.964,0.676-3.115,0.676
				c-2.151,0-3.627-0.701-4.428-2.103c-0.8-1.399-1.201-3.301-1.201-5.701c0-1.951,0.312-3.827,0.939-5.63
				c0.625-1.802,1.488-3.389,2.59-4.767c1.099-1.373,2.388-2.488,3.865-3.338c1.475-0.851,3.063-1.277,4.765-1.277
				c0.751,0,1.389,0.026,1.914,0.076c0.525,0.051,1.113,0.124,1.764,0.224L312.076,115.02z"/>
			<path fill="#FFFFFF" d="M343.972,117.498l3.302-13.809h12.382l2.252-9.156H349.45l2.852-11.634l-11.632,1.802l-7.355,31.07
				c-0.6,2.551-0.95,4.979-1.05,7.279c-0.101,2.301,0.25,4.341,1.05,6.117c0.801,1.775,2.151,3.177,4.053,4.201
				c1.901,1.027,4.578,1.539,8.031,1.539c2.401,0,4.477-0.199,6.229-0.602c1.75-0.397,3.376-0.871,4.877-1.424l-0.825-8.558
				c-1.151,0.402-2.289,0.715-3.414,0.938c-1.126,0.228-2.29,0.34-3.49,0.34c-1.401,0-2.503-0.202-3.302-0.602
				c-0.801-0.397-1.364-0.963-1.689-1.689c-0.325-0.723-0.449-1.587-0.375-2.588C343.483,119.727,343.671,118.648,343.972,117.498z"
				/>
			<path fill="#FFFFFF" d="M397.181,97.422c-1.001-1.125-2.278-2-3.828-2.626c-1.551-0.626-3.402-0.939-5.553-0.939
				c-1.002,0-2.016,0.075-3.041,0.226c-1.026,0.15-2.039,0.326-3.039,0.525l4.577-18.837l-11.632,1.8l-13.509,56.438h11.183
				l7.279-30.47c0.7-0.15,1.413-0.274,2.139-0.377c0.725-0.1,1.488-0.148,2.288-0.148c1.902,0,3.19,0.464,3.865,1.388
				c0.677,0.927,1.014,2.04,1.014,3.339c0,0.854-0.088,1.752-0.263,2.702c-0.175,0.952-0.363,1.852-0.562,2.702l-4.953,20.864
				h11.181l5.104-21.314c0.499-2.051,0.75-4.128,0.75-6.229c0-1.801-0.25-3.476-0.75-5.028
				C398.932,99.887,398.18,98.549,397.181,97.422z"/>
			<path fill="#FFFFFF" d="M445.436,96.559c-1.451-0.701-2.979-1.25-4.578-1.65c-1.602-0.399-3.127-0.688-4.578-0.863
				c-1.451-0.177-2.74-0.287-3.865-0.338c-1.125-0.048-1.913-0.076-2.364-0.076c-3.451,0-6.654,0.651-9.605,1.953
				c-2.954,1.301-5.517,3.088-7.692,5.364c-2.177,2.277-3.878,4.943-5.104,7.995c-1.227,3.049-1.838,6.303-1.838,9.755
				c0,2.25,0.25,4.366,0.75,6.342c0.499,1.976,1.313,3.703,2.439,5.177c1.126,1.479,2.576,2.653,4.353,3.529
				c1.774,0.876,3.914,1.312,6.416,1.312c2.102,0,4.002-0.376,5.704-1.126c1.701-0.748,3.251-1.699,4.653-2.851
				c0.249,0.701,0.499,1.325,0.75,1.877c0.25,0.552,0.526,1.125,0.825,1.724l9.981-1.424c-0.851-2.251-1.425-4.814-1.726-7.694
				c-0.301-2.875-0.102-5.739,0.601-8.592L445.436,96.559z M429.113,118.811c-0.225,1.375-0.389,2.689-0.488,3.939
				c-1.05,1.051-2.039,1.802-2.965,2.252c-0.927,0.452-1.964,0.676-3.115,0.676c-2.151,0-3.627-0.701-4.428-2.103
				c-0.8-1.399-1.201-3.301-1.201-5.701c0-1.951,0.313-3.827,0.939-5.63c0.624-1.802,1.487-3.389,2.589-4.767
				c1.1-1.373,2.388-2.488,3.864-3.338c1.476-0.851,3.064-1.277,4.765-1.277c0.752,0,1.39,0.026,1.914,0.076
				c0.527,0.051,1.113,0.124,1.765,0.224"/>
			<path fill="#FFFFFF" d="M492.792,94.533h-12.609c-1.902,2.1-4.178,4.402-6.828,6.903c-2.652,2.504-5.479,4.953-8.48,7.354
				l7.954-33.021l-11.632,1.8l-13.51,56.438h11.108l4.203-17.263c0.9,1.152,1.8,2.452,2.7,3.904c0.9,1.451,1.766,2.938,2.59,4.465
				c0.825,1.527,1.576,3.064,2.252,4.613c0.676,1.555,1.238,2.978,1.688,4.28h12.459c-0.551-1.701-1.238-3.501-2.063-5.403
				c-0.825-1.901-1.728-3.777-2.703-5.63c-0.976-1.849-2.001-3.626-3.075-5.327c-1.076-1.701-2.139-3.202-3.191-4.504
				c3.902-3.352,7.367-6.517,10.395-9.493C487.076,100.676,489.989,97.636,492.792,94.533z"/>
			<path fill="#FFFFFF" d="M258.318,81.699c-1.526,0.125-3.111,0.318-4.745,0.563c-0.966,0.145-1.944,0.303-2.948,0.489
				l-12.233,51.258h2.831h8.802l4.203-17.413l4.719-19.678l1.285-5.464c0.008,0,0.017,0,0.025-0.002l2.398-10.004
				C261.261,81.496,259.818,81.577,258.318,81.699z"/>
		</g>
	</g>
	<polygon fill="#FFFFFF" points="214.637,59.146 175.618,20.124 164.421,31.321 203.439,70.339 164.421,109.353 175.618,120.55 
		225.831,70.339 	"/>
	<polygon fill="#FFFFFF" points="50.214,20.124 0,70.339 11.196,81.532 50.214,120.55 61.409,109.353 22.391,70.339 61.409,31.321 	
		"/>
	<path fill="#FFFFFF" d="M137.877,26.249l-0.853,3.732c-0.688,3.002-1.81,7.91-2.495,10.912l-1.025,4.482
		c2.083,2.238,3.859,4.803,5.308,7.723c2.554,5.158,3.83,10.902,3.83,17.24c0,6.34-1.276,12.086-3.83,17.242
		c-2.554,5.154-6.103,9.246-10.642,12.273c-2.479,1.65-5.133,2.836-7.949,3.586l-0.3,1.309c-0.688,3.002-1.823,7.908-2.527,10.906
		l-1.329,5.666c7.894-0.475,15.077-2.709,21.539-6.711c7.331-4.539,13.078-10.713,17.242-18.518
		c4.161-7.805,6.242-16.389,6.242-25.754s-2.081-17.949-6.242-25.754C150.736,36.88,145.073,30.772,137.877,26.249z"/>
	<path fill="#FFFFFF" d="M119.511,0l-4.458,19.311c-0.731-0.032-1.466-0.054-2.209-0.054c-9.176,0-17.43,2.27-24.76,6.811
		c-7.332,4.541-13.055,10.715-17.169,18.518c-4.115,7.805-6.173,16.389-6.173,25.754s2.058,17.949,6.173,25.754
		c4.114,7.805,9.837,13.979,17.169,18.518c1.435,0.89,2.909,1.683,4.417,2.393l-8.63,37.387l18.074,4.17l35.64-154.389L119.511,0z
		 M96.586,99.307c-4.076-2.919-7.297-6.795-9.637-11.657c-2.509-5.203-3.761-10.971-3.761-17.311c0-6.338,1.252-12.107,3.761-17.311
		c2.505-5.203,6.006-9.295,10.5-12.273c4.039-2.682,8.6-4.145,13.672-4.415L96.586,99.307z"/>
</g>
</svg>
