<?xml version="1.0" encoding="utf-8"?>
<!-- Generator: Adobe Illustrator 16.0.0, SVG Export Plug-In . SVG Version: 6.00 Build 0)  -->
<!DOCTYPE svg PUBLIC "-//W3C//DTD SVG 1.1//EN" "http://www.w3.org/Graphics/SVG/1.1/DTD/svg11.dtd">
<svg version="1.1" id="Layer_1" xmlns="http://www.w3.org/2000/svg" xmlns:xlink="http://www.w3.org/1999/xlink" x="0px" y="0px"
	 width="1074.051px" height="158.56px" viewBox="0 0 1074.051 158.56" enable-background="new 0 0 1074.051 158.56"
	 xml:space="preserve">
<g>
	<g>
		<path fill="#FFFFFF" d="M720.83,44.462c-1.6-3.111-3.872-5.742-6.815-7.887c-2.947-2.146-6.544-3.787-10.792-4.924
			c-3.303-0.883-6.931-1.412-10.868-1.609l-3.038,12.67c-0.017,0.002-0.032,0.004-0.049,0.004l-0.892,3.789
			c4.502,0.113,8.028,0.898,10.555,2.375c2.734,1.6,4.103,4.291,4.103,8.078c0,2.861-0.567,5.281-1.704,7.258
			c-1.136,1.979-2.734,3.598-4.796,4.859c-2.063,1.262-4.544,2.168-7.446,2.713c-2.137,0.404-4.447,0.654-6.925,0.762l-3.965,16.533
			c5.741-0.143,11.133-0.691,16.127-1.707c5.806-1.176,10.854-3.111,15.146-5.805c4.292-2.693,7.656-6.227,10.098-10.604
			c2.439-4.373,3.66-9.719,3.66-16.029C723.228,51.069,722.427,47.577,720.83,44.462z"/>
		<path fill="#FFFFFF" d="M327.759,38.72c-3.114-3.154-6.815-5.572-11.107-7.258c-4.292-1.682-9.005-2.523-14.136-2.523
			c-7.743,0-14.685,1.621-20.826,4.859c-6.143,3.24-11.34,7.447-15.588,12.621c-4.25,5.176-7.51,11.002-9.782,17.48
			c-2.272,6.48-3.408,13.002-3.408,19.564c0,5.723,0.862,10.855,2.587,15.398c1.724,4.545,4.144,8.395,7.257,11.549
			c3.112,3.156,6.816,5.576,11.107,7.258c4.291,1.682,9.002,2.523,14.136,2.523c7.825,0,14.809-1.598,20.952-4.795
			c6.141-3.197,11.338-7.385,15.588-12.559c4.248-5.176,7.488-11.023,9.719-17.545c2.229-6.52,3.345-13.063,3.345-19.627
			c0-5.721-0.864-10.854-2.587-15.398C333.291,45.726,330.871,41.876,327.759,38.72z M315.327,80.624
			c-1.389,4.334-3.325,8.184-5.806,11.549c-2.483,3.367-5.386,6.059-8.709,8.078c-3.325,2.02-6.922,3.029-10.792,3.029
			c-5.976,0-10.287-1.957-12.938-5.869s-3.976-9.025-3.976-15.336c0-4.627,0.694-9.129,2.083-13.504
			c1.388-4.375,3.323-8.246,5.806-11.613c2.481-3.363,5.384-6.059,8.709-8.078c3.323-2.02,6.92-3.029,10.792-3.029
			c5.974,0,10.287,1.957,12.937,5.869c2.651,3.914,3.976,9.025,3.976,15.336C317.409,71.769,316.715,76.292,315.327,80.624z"/>
		<path fill="#FFFFFF" d="M437.566,56.644c-1.852-1.977-4.187-3.492-7.005-4.545c-2.82-1.051-6.207-1.578-10.161-1.578
			c-4.124,0-7.721,0.568-10.792,1.705c-3.073,1.135-6.165,2.588-9.277,4.354c-2.189-2.02-4.607-3.533-7.257-4.543
			s-5.995-1.516-10.034-1.516c-3.367,0-6.333,0.148-8.898,0.443c-2.568,0.295-4.881,0.674-6.942,1.135
			c-2.063,0.463-3.913,0.969-5.554,1.516c-1.641,0.547-3.177,1.031-4.607,1.451l-15.272,63.361h18.806l12.243-51.371
			c1.262-0.252,2.354-0.441,3.282-0.568c0.925-0.125,2.061-0.189,3.408-0.189c3.197,0,5.343,0.865,6.437,2.588
			c1.093,1.727,1.641,3.768,1.641,6.121c0,1.432-0.148,2.885-0.442,4.355c-0.296,1.473-0.568,2.799-0.82,3.975l-8.331,35.09h18.807
			l8.583-35.846c0.42-1.684,0.736-3.365,0.947-5.049c0.209-1.684,0.315-3.281,0.315-4.797c0-0.504,0-1.051,0-1.641
			c0-0.588-0.085-1.219-0.252-1.893c1.262-0.674,2.692-1.326,4.292-1.957c1.597-0.631,3.282-0.947,5.049-0.947
			c3.197,0,5.342,0.865,6.437,2.588c1.092,1.727,1.641,3.768,1.641,6.121c0,1.432-0.148,2.885-0.442,4.355
			c-0.295,1.473-0.568,2.799-0.82,3.975l-8.33,35.09h18.806l8.583-35.846c0.42-1.684,0.735-3.365,0.946-5.049
			c0.209-1.684,0.316-3.281,0.316-4.797c0-3.281-0.422-6.289-1.262-9.023C440.763,60.978,439.416,58.62,437.566,56.644z"/>
		<path fill="#FFFFFF" d="M524.403,52.036h-21.205c-3.199,3.533-7.027,7.404-11.486,11.611c-4.461,4.209-9.214,8.33-14.263,12.369
			l13.379-55.535l-19.564,3.029l-22.719,94.916h18.68l7.068-29.031c1.515,1.938,3.029,4.125,4.544,6.564
			c1.515,2.441,2.966,4.943,4.354,7.51c1.388,2.568,2.65,5.154,3.787,7.762c1.136,2.609,2.083,5.008,2.84,7.195h20.952
			c-0.927-2.859-2.083-5.889-3.471-9.088c-1.388-3.197-2.903-6.352-4.544-9.467c-1.641-3.111-3.366-6.1-5.175-8.961
			c-1.811-2.859-3.597-5.385-5.364-7.574c6.563-5.635,12.389-10.959,17.481-15.965C514.789,62.366,519.69,57.255,524.403,52.036z"/>
		<path fill="#FFFFFF" d="M588.017,55.444c-2.441-1.178-5.008-2.104-7.699-2.777c-2.694-0.672-5.26-1.156-7.699-1.451
			c-2.441-0.295-4.607-0.484-6.5-0.568c-1.894-0.082-3.219-0.127-3.977-0.127c-5.806,0-11.191,1.096-16.155,3.283
			c-4.966,2.188-9.277,5.195-12.938,9.023c-3.66,3.83-6.522,8.311-8.583,13.443c-2.063,5.133-3.092,10.602-3.092,16.408
			c0,3.785,0.42,7.342,1.262,10.664c0.84,3.326,2.209,6.229,4.102,8.709c1.894,2.484,4.333,4.461,7.321,5.934
			c2.986,1.471,6.583,2.207,10.792,2.207c3.533,0,6.73-0.631,9.592-1.893c2.859-1.262,5.469-2.859,7.826-4.797
			c0.42,1.18,0.84,2.23,1.262,3.156c0.42,0.928,0.884,1.893,1.389,2.902l16.787-2.396c-1.432-3.787-2.398-8.098-2.903-12.938
			c-0.505-4.838-0.17-9.656,1.01-14.453L588.017,55.444z M561.763,86.493c-0.422,1.938-0.82,4.061-1.199,6.375
			c-0.378,2.314-0.652,4.523-0.82,6.625c-1.767,1.768-3.429,3.029-4.984,3.787c-1.559,0.758-3.304,1.137-5.238,1.137
			c-3.619,0-6.102-1.178-7.447-3.535c-1.347-2.355-2.02-5.553-2.02-9.592c0-3.281,0.525-6.438,1.578-9.467
			c1.051-3.029,2.502-5.699,4.354-8.016c1.85-2.313,4.017-4.184,6.5-5.615c2.481-1.43,5.153-2.146,8.015-2.146
			c1.262,0,2.335,0.043,3.219,0.127c0.883,0.084,1.871,0.211,2.966,0.379L561.763,86.493z"/>
		<path fill="#FFFFFF" d="M641.343,51.216c-2.568-0.379-4.902-0.568-7.005-0.568c-5.639,0-10.709,0.527-15.21,1.578
			c-4.502,1.053-8.563,2.168-12.18,3.344l-15.146,62.857h18.806l12.244-50.992c0.924-0.252,2.102-0.482,3.533-0.693
			c1.43-0.211,2.734-0.316,3.913-0.316c3.196,0,5.616,0.189,7.257,0.568c1.642,0.379,3.303,0.779,4.986,1.199l5.554-15.146
			C646.159,52.206,643.909,51.595,641.343,51.216z"/>
		<path fill="#FFFFFF" d="M796.377,55.444c-2.441-1.178-5.008-2.104-7.7-2.777c-2.693-0.672-5.26-1.156-7.699-1.451
			c-2.441-0.295-4.605-0.484-6.5-0.568c-1.893-0.082-3.219-0.127-3.976-0.127c-5.806,0-11.192,1.096-16.155,3.283
			c-4.967,2.188-9.277,5.195-12.938,9.023c-3.66,3.83-6.522,8.311-8.584,13.443c-2.063,5.133-3.092,10.602-3.092,16.408
			c0,3.785,0.42,7.342,1.262,10.664c0.841,3.326,2.209,6.229,4.103,8.709c1.894,2.484,4.333,4.461,7.321,5.934
			c2.985,1.471,6.582,2.207,10.791,2.207c3.534,0,6.73-0.631,9.593-1.893c2.859-1.262,5.469-2.859,7.825-4.797
			c0.42,1.18,0.84,2.23,1.262,3.156c0.42,0.928,0.885,1.893,1.389,2.902l16.787-2.396c-1.432-3.787-2.398-8.098-2.902-12.938
			c-0.506-4.838-0.17-9.656,1.01-14.453L796.377,55.444z M770.123,86.493c-0.422,1.938-0.82,4.061-1.199,6.375
			c-0.378,2.314-0.652,4.523-0.82,6.625c-1.767,1.768-3.429,3.029-4.985,3.787c-1.559,0.758-3.303,1.137-5.238,1.137
			c-3.619,0-6.102-1.178-7.447-3.535c-1.346-2.355-2.02-5.553-2.02-9.592c0-3.281,0.525-6.438,1.578-9.467
			c1.051-3.029,2.503-5.699,4.355-8.016c1.85-2.313,4.017-4.184,6.5-5.615c2.48-1.43,5.152-2.146,8.014-2.146
			c1.263,0,2.336,0.043,3.219,0.127c0.884,0.084,1.872,0.211,2.967,0.379L770.123,86.493z"/>
		<path fill="#FFFFFF" d="M823.766,90.659l5.553-23.225h20.827l3.787-15.398h-20.954l4.797-19.564l-19.563,3.029l-12.371,52.254
			c-1.01,4.291-1.598,8.375-1.766,12.244c-0.17,3.871,0.42,7.301,1.766,10.287s3.617,5.344,6.816,7.066
			c3.197,1.725,7.699,2.588,13.506,2.588c4.039,0,7.529-0.336,10.477-1.01c2.943-0.672,5.68-1.471,8.203-2.398l-1.389-14.389
			c-1.936,0.676-3.85,1.199-5.742,1.578c-1.895,0.379-3.85,0.568-5.869,0.568c-2.357,0-4.209-0.336-5.555-1.01
			c-1.346-0.672-2.293-1.619-2.84-2.84c-0.547-1.219-0.756-2.67-0.631-4.355C822.945,94.403,823.26,92.595,823.766,90.659z"/>
		<path fill="#FFFFFF" d="M913.252,56.896c-1.684-1.893-3.83-3.365-6.438-4.418c-2.609-1.051-5.723-1.578-9.34-1.578
			c-1.684,0-3.389,0.127-5.111,0.379c-1.727,0.252-3.43,0.549-5.111,0.885l7.699-31.682l-19.564,3.029l-22.719,94.916h18.807
			l12.242-51.244c1.178-0.254,2.377-0.463,3.598-0.631c1.219-0.168,2.502-0.254,3.85-0.254c3.197,0,5.363,0.779,6.5,2.336
			c1.137,1.559,1.705,3.43,1.705,5.617c0,1.432-0.148,2.945-0.443,4.543c-0.295,1.6-0.611,3.113-0.945,4.543l-8.33,35.09h18.805
			l8.584-35.846c0.84-3.449,1.262-6.943,1.262-10.477c0-3.029-0.422-5.848-1.262-8.457C916.198,61.04,914.934,58.788,913.252,56.896
			z"/>
		<path fill="#FFFFFF" d="M994.409,55.444c-2.441-1.178-5.008-2.104-7.699-2.777c-2.693-0.672-5.26-1.156-7.699-1.451
			c-2.441-0.295-4.607-0.484-6.5-0.568c-1.893-0.082-3.219-0.127-3.977-0.127c-5.805,0-11.191,1.096-16.154,3.283
			c-4.967,2.188-9.277,5.195-12.938,9.023c-3.66,3.83-6.521,8.311-8.584,13.443s-3.092,10.602-3.092,16.408
			c0,3.785,0.42,7.342,1.262,10.664c0.84,3.326,2.209,6.229,4.104,8.709c1.893,2.484,4.332,4.461,7.32,5.934
			c2.984,1.471,6.582,2.207,10.791,2.207c3.533,0,6.73-0.631,9.592-1.893s5.469-2.859,7.826-4.797c0.42,1.18,0.84,2.23,1.262,3.156
			c0.42,0.928,0.885,1.893,1.389,2.902l16.787-2.396c-1.432-3.787-2.398-8.098-2.902-12.938c-0.506-4.838-0.17-9.656,1.01-14.453
			L994.409,55.444z M968.157,86.493c-0.424,1.938-0.822,4.061-1.199,6.375c-0.379,2.314-0.654,4.523-0.82,6.625
			c-1.768,1.768-3.43,3.029-4.986,3.787c-1.559,0.758-3.303,1.137-5.238,1.137c-3.619,0-6.102-1.178-7.447-3.535
			c-1.346-2.355-2.02-5.553-2.02-9.592c0-3.281,0.525-6.438,1.578-9.467c1.051-3.029,2.502-5.699,4.355-8.016
			c1.85-2.313,4.016-4.184,6.5-5.615c2.48-1.43,5.152-2.146,8.014-2.146c1.264,0,2.336,0.043,3.219,0.127
			c0.885,0.084,1.871,0.211,2.967,0.379L968.157,86.493z"/>
		<path fill="#FFFFFF" d="M1074.051,52.036h-21.205c-3.199,3.533-7.025,7.404-11.484,11.611c-4.461,4.209-9.215,8.33-14.264,12.369
			l13.379-55.535l-19.563,3.029l-22.721,94.916h18.682l7.068-29.031c1.514,1.938,3.027,4.125,4.543,6.564
			c1.514,2.441,2.967,4.943,4.354,7.51c1.389,2.568,2.652,5.154,3.787,7.762c1.137,2.609,2.082,5.008,2.84,7.195h20.953
			c-0.928-2.859-2.084-5.889-3.471-9.088c-1.389-3.197-2.904-6.352-4.545-9.467c-1.641-3.111-3.367-6.1-5.174-8.961
			c-1.811-2.859-3.598-5.385-5.365-7.574c6.563-5.635,12.389-10.959,17.48-15.965S1069.338,57.255,1074.051,52.036z"/>
		<path fill="#FFFFFF" d="M679.712,30.452c-2.565,0.213-5.232,0.535-7.98,0.947c-1.623,0.242-3.269,0.508-4.957,0.82l-20.572,86.207
			h4.76h14.803l7.068-29.283l7.937-33.096l2.161-9.188c0.015,0,0.028-0.002,0.043-0.004l4.035-16.826
			C684.661,30.108,682.236,30.245,679.712,30.452z"/>
	</g>
	<polygon fill="#FFFFFF" points="214.637,59.146 175.618,20.124 164.421,31.321 203.439,70.339 164.421,109.353 175.618,120.55 
		225.831,70.339 	"/>
	<polygon fill="#FFFFFF" points="50.214,20.124 0,70.339 11.196,81.532 50.214,120.55 61.409,109.353 22.391,70.339 61.409,31.321 	
		"/>
	<path fill="#FFFFFF" d="M137.877,26.249l-0.853,3.732c-0.688,3.002-1.81,7.91-2.495,10.912l-1.025,4.482
		c2.083,2.238,3.859,4.803,5.308,7.723c2.554,5.158,3.83,10.902,3.83,17.24c0,6.34-1.276,12.086-3.83,17.242
		c-2.554,5.154-6.103,9.246-10.642,12.273c-2.479,1.65-5.133,2.836-7.949,3.586l-0.3,1.309c-0.688,3.002-1.823,7.908-2.527,10.906
		l-1.329,5.666c7.894-0.475,15.077-2.709,21.539-6.711c7.331-4.539,13.078-10.713,17.242-18.518
		c4.161-7.805,6.242-16.389,6.242-25.754s-2.081-17.949-6.242-25.754C150.736,36.88,145.073,30.772,137.877,26.249z"/>
	<path fill="#FFFFFF" d="M119.511,0l-4.458,19.311c-0.731-0.032-1.466-0.054-2.209-0.054c-9.176,0-17.43,2.27-24.76,6.811
		c-7.332,4.541-13.055,10.715-17.169,18.518c-4.115,7.805-6.173,16.389-6.173,25.754s2.058,17.949,6.173,25.754
		c4.114,7.805,9.837,13.979,17.169,18.518c1.435,0.89,2.909,1.683,4.417,2.393l-8.63,37.387l18.074,4.17l35.64-154.389L119.511,0z
		 M96.586,99.307c-4.076-2.919-7.297-6.795-9.637-11.657c-2.509-5.203-3.761-10.971-3.761-17.311c0-6.338,1.252-12.107,3.761-17.311
		c2.505-5.203,6.006-9.295,10.5-12.273c4.039-2.682,8.6-4.145,13.672-4.415L96.586,99.307z"/>
</g>
</svg>
