<?xml version="1.0" encoding="utf-8"?>
<!-- Generator: Adobe Illustrator 16.0.0, SVG Export Plug-In . SVG Version: 6.00 Build 0)  -->
<!DOCTYPE svg PUBLIC "-//W3C//DTD SVG 1.1//EN" "http://www.w3.org/Graphics/SVG/1.1/DTD/svg11.dtd">
<svg version="1.1" id="Layer_1" xmlns="http://www.w3.org/2000/svg" xmlns:xlink="http://www.w3.org/1999/xlink" x="0px" y="0px"
	 width="225.831px" height="158.56px" viewBox="0 0 225.831 158.56" enable-background="new 0 0 225.831 158.56"
	 xml:space="preserve">
<g>
	<polygon fill="#FFFFFF" points="214.637,59.146 175.618,20.124 164.42,31.321 203.44,70.339 164.42,109.353 175.618,120.55 
		225.831,70.339 	"/>
	<polygon fill="#FFFFFF" points="50.213,20.124 0,70.339 11.196,81.532 50.213,120.55 61.409,109.353 22.391,70.339 61.409,31.321 	
		"/>
	<path fill="#FFFFFF" d="M137.877,26.249l-0.854,3.732c-0.688,3.002-1.809,7.91-2.494,10.912l-1.025,4.482
		c2.082,2.238,3.859,4.803,5.307,7.723c2.555,5.158,3.83,10.902,3.83,17.24c0,6.34-1.275,12.086-3.83,17.242
		c-2.553,5.154-6.102,9.246-10.641,12.273c-2.48,1.65-5.133,2.836-7.949,3.586l-0.301,1.309c-0.688,3.002-1.822,7.908-2.527,10.906
		l-1.328,5.666c7.893-0.475,15.076-2.709,21.539-6.711c7.33-4.539,13.078-10.713,17.242-18.518
		c4.16-7.805,6.242-16.389,6.242-25.754s-2.082-17.949-6.242-25.754C150.737,36.88,145.073,30.772,137.877,26.249z"/>
	<path fill="#FFFFFF" d="M119.51,0l-4.457,19.311c-0.73-0.032-1.466-0.054-2.209-0.054c-9.176,0-17.43,2.27-24.76,6.811
		c-7.332,4.541-13.055,10.715-17.17,18.518c-4.115,7.805-6.172,16.389-6.172,25.754s2.057,17.949,6.172,25.754
		s9.838,13.979,17.17,18.518c1.435,0.89,2.908,1.683,4.416,2.393l-8.63,37.387l18.074,4.17l35.64-154.389L119.51,0z M96.586,99.307
		c-4.076-2.919-7.297-6.795-9.637-11.657c-2.51-5.203-3.762-10.971-3.762-17.311c0-6.338,1.252-12.107,3.762-17.311
		c2.504-5.203,6.006-9.295,10.5-12.273c4.039-2.682,8.6-4.145,13.672-4.415L96.586,99.307z"/>
</g>
</svg>
