<?xml version="1.0" encoding="utf-8"?>
<!-- Generator: Adobe Illustrator 16.0.0, SVG Export Plug-In . SVG Version: 6.00 Build 0)  -->
<!DOCTYPE svg PUBLIC "-//W3C//DTD SVG 1.1//EN" "http://www.w3.org/Graphics/SVG/1.1/DTD/svg11.dtd">
<svg version="1.1" id="Layer_1" xmlns="http://www.w3.org/2000/svg" xmlns:xlink="http://www.w3.org/1999/xlink" x="0px" y="0px"
	 width="561.544px" height="236.979px" viewBox="0 0 561.544 236.979" enable-background="new 0 0 561.544 236.979"
	 xml:space="preserve">
<g>
	<g>
		<path fill="#FFFFFF" d="M319.99,185.191c-1.094-2.129-2.647-3.929-4.661-5.395c-2.015-1.469-4.475-2.59-7.38-3.366
			c-2.258-0.604-4.739-0.967-7.433-1.103l-2.077,8.665c-0.011,0.002-0.022,0.003-0.033,0.003l-0.609,2.591
			c3.078,0.079,5.49,0.614,7.218,1.624c1.87,1.096,2.806,2.934,2.806,5.525c0,1.957-0.389,3.61-1.166,4.963
			c-0.776,1.354-1.87,2.461-3.28,3.323c-1.41,0.864-3.107,1.483-5.092,1.854c-1.461,0.277-3.041,0.447-4.735,0.521l-2.712,11.307
			c3.926-0.098,7.613-0.473,11.029-1.168c3.971-0.803,7.423-2.127,10.357-3.969s5.236-4.259,6.906-7.252
			c1.667-2.99,2.502-6.646,2.502-10.961C321.63,189.709,321.082,187.32,319.99,185.191z"/>
		<path fill="#FFFFFF" d="M51.185,181.263c-2.13-2.155-4.661-3.81-7.596-4.962c-2.934-1.151-6.158-1.726-9.667-1.726
			c-5.294,0-10.042,1.108-14.242,3.323c-4.201,2.215-7.755,5.092-10.66,8.63c-2.906,3.541-5.135,7.525-6.69,11.954
			C0.775,202.916,0,207.375,0,211.862c0,3.913,0.589,7.425,1.769,10.532c1.179,3.106,2.834,5.739,4.963,7.896
			c2.129,2.158,4.662,3.813,7.597,4.963s6.155,1.726,9.667,1.726c5.351,0,10.127-1.093,14.328-3.278
			c4.2-2.188,7.754-5.051,10.661-8.588c2.905-3.541,5.121-7.54,6.646-11.999c1.524-4.458,2.288-8.934,2.288-13.423
			c0-3.912-0.591-7.422-1.77-10.53C54.967,186.056,53.312,183.421,51.185,181.263z M42.683,209.921
			c-0.95,2.964-2.274,5.597-3.971,7.897c-1.698,2.303-3.684,4.144-5.956,5.524c-2.274,1.381-4.734,2.07-7.38,2.07
			c-4.087,0-7.034-1.337-8.847-4.014c-1.813-2.674-2.719-6.173-2.719-10.485c0-3.166,0.475-6.244,1.425-9.236
			c0.949-2.991,2.271-5.639,3.97-7.941c1.697-2.301,3.683-4.143,5.956-5.525c2.272-1.379,4.732-2.07,7.38-2.07
			c4.085,0,7.035,1.338,8.848,4.014c1.812,2.677,2.718,6.172,2.718,10.487C44.106,203.864,43.632,206.959,42.683,209.921z"/>
		<path fill="#FFFFFF" d="M126.277,193.521c-1.267-1.353-2.863-2.389-4.79-3.108c-1.929-0.719-4.245-1.079-6.949-1.079
			c-2.82,0-5.28,0.389-7.38,1.166c-2.101,0.775-4.216,1.77-6.344,2.977c-1.497-1.381-3.15-2.416-4.963-3.107
			c-1.812-0.689-4.099-1.035-6.862-1.035c-2.303,0-4.331,0.102-6.085,0.303c-1.757,0.201-3.339,0.462-4.747,0.776
			c-1.412,0.316-2.676,0.662-3.799,1.035c-1.121,0.375-2.173,0.706-3.15,0.995l-10.444,43.328h12.861l8.373-35.13
			c0.862-0.171,1.61-0.302,2.244-0.39c0.632-0.085,1.409-0.129,2.33-0.129c2.187,0,3.653,0.592,4.402,1.771
			c0.748,1.181,1.123,2.575,1.123,4.185c0,0.98-0.101,1.973-0.303,2.98c-0.202,1.006-0.388,1.914-0.561,2.717l-5.697,23.996h12.861
			l5.87-24.512c0.287-1.151,0.503-2.303,0.647-3.453c0.143-1.151,0.216-2.244,0.216-3.28c0-0.346,0-0.72,0-1.122
			s-0.058-0.834-0.172-1.294c0.863-0.462,1.84-0.908,2.935-1.341c1.092-0.43,2.244-0.646,3.453-0.646
			c2.187,0,3.653,0.592,4.402,1.771c0.747,1.181,1.122,2.575,1.122,4.185c0,0.98-0.101,1.973-0.303,2.98
			c-0.202,1.006-0.388,1.914-0.561,2.717l-5.697,23.996h12.861l5.87-24.512c0.287-1.151,0.503-2.303,0.647-3.453
			c0.143-1.151,0.216-2.244,0.216-3.28c0-2.245-0.289-4.301-0.863-6.173C128.463,196.486,127.542,194.872,126.277,193.521z"/>
		<path fill="#FFFFFF" d="M185.662,190.369h-14.501c-2.188,2.418-4.806,5.063-7.855,7.943c-3.051,2.877-6.301,5.695-9.753,8.457
			l9.149-37.979l-13.38,2.07l-15.536,64.91h12.774l4.834-19.854c1.036,1.326,2.072,2.82,3.107,4.49
			c1.036,1.67,2.028,3.381,2.979,5.135c0.948,1.758,1.812,3.525,2.589,5.309s1.425,3.424,1.942,4.92h14.328
			c-0.634-1.955-1.424-4.026-2.374-6.215c-0.949-2.186-1.984-4.342-3.107-6.473c-1.123-2.128-2.303-4.172-3.54-6.129
			c-1.238-1.956-2.459-3.683-3.668-5.18c4.489-3.854,8.473-7.494,11.955-10.917C179.088,197.435,182.438,193.939,185.662,190.369z"
			/>
		<path fill="#FFFFFF" d="M229.164,192.701c-1.669-0.807-3.424-1.438-5.265-1.9c-1.842-0.457-3.597-0.79-5.265-0.992
			c-1.67-0.201-3.15-0.331-4.445-0.389c-1.294-0.055-2.201-0.086-2.719-0.086c-3.97,0-7.654,0.748-11.048,2.245
			c-3.396,1.496-6.344,3.554-8.848,6.171c-2.502,2.619-4.459,5.684-5.869,9.192c-1.411,3.512-2.115,7.251-2.115,11.223
			c0,2.587,0.287,5.02,0.862,7.292c0.576,2.274,1.511,4.26,2.806,5.955c1.294,1.699,2.963,3.053,5.006,4.059
			c2.042,1.006,4.502,1.509,7.38,1.509c2.416,0,4.602-0.432,6.56-1.294c1.955-0.863,3.74-1.955,5.351-3.28
			c0.288,0.808,0.575,1.524,0.864,2.158c0.287,0.634,0.604,1.294,0.948,1.984l11.48-1.639c-0.979-2.591-1.64-5.538-1.985-8.847
			c-0.345-3.311-0.116-6.604,0.691-9.885L229.164,192.701z M211.211,213.935c-0.289,1.325-0.561,2.776-0.82,4.359
			c-0.258,1.583-0.446,3.093-0.562,4.53c-1.208,1.209-2.344,2.072-3.409,2.589c-1.065,0.519-2.259,0.779-3.582,0.779
			c-2.475,0-4.174-0.806-5.093-2.419c-0.921-1.611-1.381-3.797-1.381-6.559c0-2.245,0.358-4.404,1.078-6.475
			c0.719-2.071,1.712-3.897,2.979-5.48c1.264-1.583,2.747-2.863,4.445-3.841c1.697-0.978,3.525-1.468,5.481-1.468
			c0.863,0,1.597,0.029,2.201,0.087c0.605,0.058,1.28,0.144,2.028,0.259L211.211,213.935z"/>
		<path fill="#FFFFFF" d="M265.633,189.809c-1.757-0.258-3.354-0.389-4.792-0.389c-3.855,0-7.323,0.361-10.401,1.08
			c-3.079,0.721-5.856,1.483-8.329,2.287l-10.357,42.984h12.861l8.372-34.871c0.632-0.172,1.438-0.329,2.417-0.475
			c0.978-0.145,1.868-0.217,2.675-0.217c2.186,0,3.841,0.131,4.962,0.391c1.123,0.259,2.259,0.533,3.411,0.819l3.797-10.358
			C268.926,190.486,267.387,190.069,265.633,189.809z"/>
		<path fill="#FFFFFF" d="M371.654,192.701c-1.669-0.807-3.425-1.438-5.266-1.9c-1.842-0.457-3.597-0.79-5.266-0.992
			c-1.669-0.201-3.15-0.331-4.444-0.389c-1.296-0.055-2.201-0.086-2.719-0.086c-3.971,0-7.654,0.748-11.048,2.245
			c-3.396,1.496-6.345,3.554-8.848,6.171c-2.503,2.619-4.46,5.684-5.87,9.192c-1.41,3.512-2.114,7.251-2.114,11.223
			c0,2.587,0.288,5.02,0.863,7.292c0.574,2.274,1.51,4.26,2.805,5.955c1.295,1.699,2.964,3.053,5.007,4.059
			c2.042,1.006,4.502,1.509,7.38,1.509c2.417,0,4.603-0.432,6.56-1.294c1.956-0.863,3.74-1.955,5.351-3.28
			c0.288,0.808,0.575,1.524,0.863,2.158c0.287,0.634,0.605,1.294,0.95,1.984l11.48-1.639c-0.979-2.591-1.64-5.538-1.985-8.847
			c-0.345-3.311-0.116-6.604,0.69-9.885L371.654,192.701z M353.7,213.935c-0.288,1.325-0.561,2.776-0.82,4.359
			s-0.447,3.093-0.561,4.53c-1.208,1.209-2.346,2.072-3.409,2.589c-1.065,0.519-2.259,0.779-3.583,0.779
			c-2.475,0-4.172-0.806-5.093-2.419c-0.921-1.611-1.381-3.797-1.381-6.559c0-2.245,0.359-4.404,1.079-6.475
			c0.719-2.071,1.712-3.897,2.979-5.48c1.265-1.583,2.747-2.863,4.444-3.841s3.524-1.468,5.481-1.468
			c0.863,0,1.597,0.029,2.201,0.087s1.279,0.144,2.029,0.259L353.7,213.935z"/>
		<path fill="#FFFFFF" d="M390.384,216.783l3.797-15.883h14.243l2.59-10.531h-14.329l3.281-13.378l-13.378,2.071l-8.461,35.734
			c-0.69,2.935-1.092,5.727-1.208,8.373c-0.116,2.647,0.288,4.993,1.208,7.036c0.921,2.041,2.474,3.653,4.662,4.832
			c2.187,1.179,5.265,1.769,9.236,1.769c2.763,0,5.149-0.229,7.165-0.689c2.013-0.459,3.883-1.006,5.609-1.641l-0.95-9.84
			c-1.323,0.462-2.632,0.82-3.927,1.08c-1.295,0.259-2.632,0.388-4.014,0.388c-1.611,0-2.878-0.229-3.798-0.691
			c-0.92-0.458-1.568-1.105-1.942-1.94c-0.374-0.834-0.517-1.826-0.431-2.979C389.823,219.344,390.039,218.106,390.384,216.783z"/>
		<path fill="#FFFFFF" d="M451.581,193.693c-1.151-1.295-2.62-2.301-4.402-3.021c-1.785-0.719-3.914-1.078-6.387-1.078
			c-1.152,0-2.317,0.086-3.495,0.259c-1.182,0.171-2.346,0.375-3.496,0.604l5.265-21.666l-13.38,2.07l-15.536,64.91h12.861
			l8.372-35.043c0.805-0.174,1.625-0.316,2.46-0.432c0.834-0.115,1.711-0.174,2.633-0.174c2.186,0,3.667,0.533,4.445,1.598
			c0.778,1.066,1.166,2.346,1.166,3.842c0,0.979-0.101,2.014-0.303,3.106c-0.201,1.094-0.417,2.129-0.646,3.106l-5.697,23.996h12.86
			l5.869-24.512c0.575-2.359,0.863-4.75,0.863-7.166c0-2.071-0.288-3.998-0.863-5.781
			C453.595,196.528,452.73,194.988,451.581,193.693z"/>
		<path fill="#FFFFFF" d="M507.08,192.701c-1.669-0.807-3.424-1.438-5.265-1.9c-1.843-0.457-3.598-0.79-5.266-0.992
			c-1.669-0.201-3.15-0.331-4.445-0.389c-1.294-0.055-2.202-0.086-2.719-0.086c-3.97,0-7.653,0.748-11.047,2.245
			c-3.396,1.496-6.345,3.554-8.848,6.171c-2.503,2.619-4.46,5.684-5.87,9.192c-1.41,3.512-2.114,7.251-2.114,11.223
			c0,2.587,0.287,5.02,0.863,7.292c0.574,2.274,1.51,4.26,2.806,5.955c1.294,1.699,2.962,3.053,5.005,4.059
			c2.041,1.006,4.501,1.509,7.38,1.509c2.416,0,4.603-0.432,6.56-1.294c1.957-0.863,3.74-1.955,5.353-3.28
			c0.287,0.808,0.574,1.524,0.862,2.158c0.287,0.634,0.604,1.294,0.949,1.984l11.48-1.639c-0.979-2.591-1.641-5.538-1.984-8.847
			c-0.346-3.311-0.117-6.604,0.69-9.885L507.08,192.701z M489.127,213.935c-0.289,1.325-0.562,2.776-0.82,4.359
			s-0.446,3.093-0.561,4.53c-1.208,1.209-2.345,2.072-3.41,2.589c-1.065,0.519-2.259,0.779-3.583,0.779
			c-2.475,0-4.173-0.806-5.093-2.419c-0.92-1.611-1.381-3.797-1.381-6.559c0-2.245,0.358-4.404,1.079-6.475
			c0.719-2.071,1.711-3.897,2.979-5.48c1.265-1.583,2.746-2.863,4.445-3.841c1.696-0.978,3.524-1.468,5.48-1.468
			c0.864,0,1.598,0.029,2.202,0.087s1.278,0.144,2.028,0.259L489.127,213.935z"/>
		<path fill="#FFFFFF" d="M561.544,190.369h-14.501c-2.188,2.418-4.804,5.063-7.854,7.943c-3.051,2.877-6.302,5.695-9.755,8.457
			l9.15-37.979l-13.379,2.07l-15.538,64.91h12.776l4.834-19.854c1.035,1.326,2.07,2.82,3.107,4.49
			c1.035,1.67,2.028,3.381,2.977,5.135c0.949,1.758,1.813,3.525,2.589,5.309c0.778,1.783,1.424,3.424,1.943,4.92h14.328
			c-0.634-1.955-1.425-4.026-2.373-6.215c-0.95-2.186-1.986-4.342-3.108-6.473c-1.121-2.128-2.303-4.172-3.538-6.129
			c-1.238-1.956-2.46-3.683-3.669-5.18c4.488-3.854,8.473-7.494,11.955-10.917C554.97,197.435,558.321,193.939,561.544,190.369z"/>
		<path fill="#FFFFFF" d="M291.872,175.609c-1.754,0.146-3.579,0.366-5.458,0.648c-1.111,0.166-2.235,0.348-3.39,0.561
			l-14.069,58.953h3.256h10.123l4.833-20.025l5.427-22.631l1.478-6.283c0.01,0,0.02-0.004,0.029-0.004l2.759-11.506
			C295.256,175.374,293.598,175.469,291.872,175.609z"/>
	</g>
	<g>
		<polygon fill="#FFFFFF" points="382.493,59.146 343.475,20.124 332.277,31.321 371.296,70.339 332.277,109.353 343.475,120.55 
			393.688,70.339 		"/>
		<polygon fill="#FFFFFF" points="218.07,20.124 167.856,70.339 179.053,81.532 218.07,120.55 229.266,109.353 190.247,70.339 
			229.266,31.321 		"/>
		<path fill="#FFFFFF" d="M305.733,26.249l-0.853,3.732c-0.688,3.002-1.81,7.91-2.495,10.912l-1.025,4.482
			c2.083,2.238,3.859,4.803,5.308,7.723c2.554,5.158,3.83,10.902,3.83,17.24c0,6.34-1.276,12.086-3.83,17.242
			c-2.554,5.154-6.103,9.246-10.642,12.273c-2.479,1.65-5.133,2.836-7.949,3.586l-0.3,1.309c-0.688,3.002-1.823,7.908-2.527,10.906
			l-1.329,5.666c7.894-0.475,15.077-2.709,21.539-6.711c7.331-4.539,13.078-10.713,17.242-18.518
			c4.161-7.805,6.242-16.389,6.242-25.754s-2.081-17.949-6.242-25.754C318.593,36.88,312.93,30.772,305.733,26.249z"/>
		<path fill="#FFFFFF" d="M287.367,0l-4.458,19.311c-0.731-0.032-1.466-0.054-2.209-0.054c-9.176,0-17.43,2.27-24.76,6.811
			c-7.332,4.541-13.055,10.715-17.169,18.518c-4.115,7.805-6.173,16.389-6.173,25.754s2.058,17.949,6.173,25.754
			c4.114,7.805,9.837,13.979,17.169,18.518c1.435,0.89,2.909,1.683,4.417,2.393l-8.63,37.387l18.074,4.17l35.64-154.389L287.367,0z
			 M264.442,99.307c-4.076-2.919-7.297-6.795-9.637-11.657c-2.509-5.203-3.761-10.971-3.761-17.311
			c0-6.338,1.252-12.107,3.761-17.311c2.505-5.203,6.006-9.295,10.5-12.273c4.039-2.682,8.6-4.145,13.672-4.415L264.442,99.307z"/>
	</g>
</g>
</svg>
